<svg id="Layer_1" data-name="Layer 1" xmlns="http://www.w3.org/2000/svg" viewBox="0 0 750 750"><defs><style>.cls-1{fill:#faac18;}.cls-2{fill:#0b476b;}</style></defs><title>icon-colors</title><path class="cls-1" d="M560.05,496.46c-5,3.85-10.9,7.37-14.55,9.82a6.57,6.57,0,0,1-5.2,1c-12.71-3-56.38-17.38-81.85-46.12a1.28,1.28,0,0,1,1.6-1.95c15.4,8.93,56.92,30.82,99.14,34.42A1.59,1.59,0,0,1,560.05,496.46Z"/><path class="cls-1" d="M690.22,217.82a84.7,84.7,0,0,1,2.09,19.42c-.64,19.26-8.59,50.3-12.49,64.47,12.12,26.9,16.84,53.56,18.65,71.76,5.14,51.79-18.67,88.08-36.05,114.58-4.83,7.36-9.39,14.32-12.65,20.54A15,15,0,0,0,648,519.33c.32,1.9.86,3.91,1.43,6,1.26,4.71,2.82,10.57,2.62,17.3a18.15,18.15,0,0,1-.23,2.43,19.84,19.84,0,0,1-19,16.38c4.41,8,11.66,19.64,23.28,36.49,2.52,3.65,4.82,7.28,7,10.91a300.3,300.3,0,0,0,27.09-391.06Z"/><path class="cls-1" d="M200.49,462c18.5-22.57,27-35.6,37.34-74.17,5.26-19.72,17-34,26.47-45.5,5.21-6.34,10.6-12.88,11.9-17.13.06-.87.15-2,.26-3.33a32,32,0,0,1,.35-4.06c2.89-31.65,13.23-113.16,46.44-192.6C220.55,172.93,149.31,277,149.31,397.65a299.65,299.65,0,0,0,17.8,102C183.68,481.25,196.34,467.06,200.49,462Z"/><path class="cls-1" d="M561.59,593.48c-21.29-10.93-76.6-16.62-108.37-7.43-33.11,9.56-47.12,19.54-51.72,22.83l-.42.3c-11,7.78-21.1,5.13-26.95.06-7.33-6.37-8.92-17.09-4-26.67a29.6,29.6,0,0,1,4.15-5.89,18.38,18.38,0,0,1,2.28-2.88c10.3-10.66,31.21-26.28,59-38.19A153.44,153.44,0,0,1,457,528.26a232.43,232.43,0,0,1-69.32-42q-4.53,3.16-9.75,6.18a19.6,19.6,0,0,1-2.35,1.14c-2.63,1.05-6.2,2.43-10.95,4.16-17.7,6.72-30.19,7.35-42.26,8-2.2.11-4.43.23-6.73.38-5.16.36-9.9.33-14.48.3-14.19-.08-22.78-.13-34.33,10.16-9.61,8.56-22.75,9.34-31.27,1.88a20.42,20.42,0,0,1-4.83-6.38c-10.8,10.54-24.27,24.1-39.12,39.27C244,639.16,340,698,449.65,698a298.81,298.81,0,0,0,170.69-53.26C602.37,623,576.56,601.16,561.59,593.48Z"/><path class="cls-1" d="M318.93,381.31c-.13-.1-.25-.23-.39-.34-.67,1-1.32,2.13-1.94,3.3Z"/><path class="cls-2" d="M653.57,168.61l0,0c-21.29,1.53-18.39-8.9-11.46-18.62-6.5,1.19-36.29,22.75-36.29,22.75,10.16-15.2,30.41-31.15,30.41-31.15-.76.12-1.51.22-2.22.29-16.48,1.64-18.57-11.48-17.06-23.69-12.65,5.51-43.83,43.71-43.83,43.71,3.39-15.08,33-54.35,33-54.35a41.39,41.39,0,0,1-12.72,3.93c-12.56,1.25-13.55-10.09-11.42-21.68-19.51,13.49-46.75,58.59-46.75,58.59,10.46-31.15,33.22-64.91,33.22-64.91A26.71,26.71,0,0,1,558.34,87c-7.11.71-11.3-3.54-13.76-8.93-20.57,15.1-48.2,77.19-48.2,77.19,7.85-34.66,31-77.82,31-77.82-6.18,6.5-11.23,9.21-15.33,9.62-4.79.47-8.28-2.19-10.75-5.62-18.49,20-42,79.39-42,79.39,6.36-34.52,25.08-75,25.08-75C477.3,94.18,471.62,97.54,467.1,98s-7.73-1.91-10.16-5.08c-21.38,24.75-41.31,75.6-41.31,75.6,4.15-22.63,22.08-71.29,22.08-71.29-4.63,5-8,7.1-10.44,7.34-3.2.32-4.79-2.59-5.51-6.49,0,0-31.95,53.05-37.08,77.27,0,0,9.31-46.91,26.25-81.16a21.92,21.92,0,0,1-4.38-3.85,5.32,5.32,0,0,1-1.93-2.53A34.15,34.15,0,0,1,400,76.1c-19.86,36.51-43.63,102.06-43.63,102.06C366.64,122.55,398.9,56.41,398.9,56.41,389.26,54.89,404,28.48,404,28.48,317.76,122.74,298.57,281.9,295.13,320.07a12.5,12.5,0,0,0-.22,2.5h0c-.22,2.7-.35,4.55-.41,5.38-3.72,19.07-31,35.22-38.85,64.63-10.79,40.47-20.07,55.7-40.89,81.11C196.51,496,37.53,668.52,1.36,715.73c-2.26,2.95-1.46,5,.64,4.84a6.78,6.78,0,0,0,3.66-2c10.51-9.77,191.18-203,231.86-238.11,17.48-15.1,37.56-37.25,77.1-41.18,9.56-.95,25-.65,37.12.89,0,0-68.69,8.54-103.43,59.6-3.61,5.31,1.37,7.37,6.24,3,21.56-19.21,39.42-13.68,59.82-15.08,14.14-1,25.58-.31,43.95-7.28,4.52-1.64,7.91-2.95,10.4-3.95,11.67-6.73,23.62-16,28.47-27.55C410.19,418,385,384.25,385,384.25a97,97,0,0,0,34.75,3.2,63.77,63.77,0,0,0,25.39-7.7c-7.6,10-20.93,13.43-31.39,14.47a80.49,80.49,0,0,1-15.2.11s19.29,27.45,5.45,57.44a50.32,50.32,0,0,1-10.56,14.59c4.27,4.39,58.74,58.7,139.87,57.15,0,0-80.67-19.31-105.09-75.47,10-6,18.36-12.19,23.63-18.17,10.42,9.81,47.16,40.58,102.22,44.9,0,0-55.4-15.59-82.71-48.07,16.3,8.23,51.11,22.1,94.36,17.81,3-.3,6-.68,9.08-1.16,0,0-65.42-2.7-98-33a81.69,81.69,0,0,1,21.75-5c20.86-2.07,44.08,2.22,62.14,10.45,33.91,15.46,46.59,52.76,33.87,72.42-9.42,14.57-29.77,25.81-27.23,28.57s10.88,3.84,15.35,6.76c-.3,4.55-7.69,13.56-28.42,17.13-1,.17-2,.3-3.1.41-14.33,1.42-37.74-2-64.32.63a147.35,147.35,0,0,0-43.93,10.89c-27.6,11.83-45.76,26.57-53,34l.43,0a24.72,24.72,0,0,0-3.75,4.48c-1.59,3.09-1.09,6.58,3.84,3.08S411,579,448.1,568.32s97.3-3.88,121.91,8.74,69.64,54.29,83.56,84.65c11.77,25.68,15.76,50.65,17,55.8s4.35,5.85,4.43-.94,1.41-56.65-34.09-108.12C611,565,601.52,545.31,612.64,535.91c0,0,20.33,10,21,6.21.19-6.48-2.62-12.61-3.79-19.64h0A33.19,33.19,0,0,1,633.43,500c15.93-30.4,52.53-65.82,46.68-124.73-2.05-20.64-7.43-46.79-19.92-71.93,0,0,12.92-44.09,13.68-66.74S653.57,168.61,653.57,168.61ZM365.85,267.54a267.44,267.44,0,0,1,40.77-28.47c27.22-15.38,56.88-23.45,84.74-26.22,31.11-3.09,60,.44,80.68,7.81,2,.72,4,1.51,6,2.32,16.23,7.83,38.31,23.18,58.57,53-6.9-8.74-31.39-37.15-66.56-49.65-20-7.12-47.95-10.53-78.06-7.54-27.07,2.69-55.91,10.54-82.42,25.52-43.19,24.41-69.64,56.66-76.07,65A174.24,174.24,0,0,1,365.85,267.54ZM325.52,392.25c-3.36,4.47-9.95,6.4-12.81,4.91a2,2,0,0,1-.52-.37,11.44,11.44,0,0,1-.36-1.8c1.38-3.67,6.26-16,10.62-18.14C327.36,380.73,328.69,388.05,325.52,392.25ZM576.28,565.84c5.07-12.27,13.2-25.76,21-40.13h0c15.23-28,27.81-59.18,6.63-90.27C589.16,413.79,576.13,411,576.13,411s17.77,3.35,30.88,17.77C652.51,478.79,600.78,528.45,576.28,565.84Zm70.93-184c-28.6,2.84-103.67,6.15-177.12-25.55,0,0-.12,0-.16,0a5.58,5.58,0,0,0-2.71-.38c-6.33.63-13.31,10.59-13.31,10.59,7.95-20.81,18.21-29,27.31-29.87a17.53,17.53,0,0,1,8.63,1.33s55.61,33.63,169.43,42.41C659.28,380.37,654.94,381.11,647.21,381.87ZM449.65,308c3.62-2,7.33-3.93,11-5.77l3.83,7.72c-6.69,3.45-10.52,5.93-10.52,5.93Zm30.94-14.67c3.9-1.55,7.84-3,11.72-4.31l2.76,8.18c-4,1.31-7.79,2.68-11.32,4.07Zm32.82-10.21c4.16-.91,8.32-1.67,12.38-2.25l1.28,8.9c-.46.06-.93.16-1.4.23-3.52.5-7,1.1-10.35,1.79Zm34.33,5.24.11-9,1.59,0c3.65.1,7.38.34,11,.73l-1,8.94c-3.43-.36-6.91-.59-10.35-.68ZM580,292.44l2.08-7.72c4.29,1.16,8.28,2.4,12,3.72l-2.61,7.18C587.82,294.45,584,293.38,580,292.44Zm31,10.81,3.15-5.86c3.77,2.08,7.31,4.28,10.7,6.58l-3.09,4.8C618.5,306.92,614.91,305.06,611.05,303.25Zm28.6,17.16,2.72-3.15a79.23,79.23,0,0,1,9.22,8.55L649,328.3A98.9,98.9,0,0,0,639.65,320.41Zm32.14,29.26s-27.91-89.25-145.44-85.11c-3.37.12-6.72.35-10.07.68C468,270,422.74,296.33,389,322.27c-.69.48-1.42,1-2.25,1.73l-.21.17q-5.65,4.43-10.83,8.76c-16.77,13.19-38,28.57-44.85,33.48a.86.86,0,0,1-.44.17.94.94,0,0,1-1-1.21c9-27.91,30.35-48.56,37.93-55.23.06-.05.06-.11.1-.17,35.15-28.75,86.42-60.81,145.09-66.63h.06C639.91,230.74,671.78,349.61,671.79,349.67Z"/></svg>