<svg id="Layer_1" data-name="Layer 1" xmlns="http://www.w3.org/2000/svg" xmlns:xlink="http://www.w3.org/1999/xlink" viewBox="0 0 300 200"><defs><style>.cls-1{fill:none;}.cls-2{clip-path:url(#clip-path);}.cls-3{fill:#0c486b;}</style><clipPath id="clip-path"><rect class="cls-1" x="-280" y="51.96" width="680" height="225.04"/></clipPath></defs><title>icon--wave</title><g class="cls-2"><path class="cls-3" d="M82.21,109.72c.3-5.88,6.57-2,5.4-9-.5-3-2.33-4.3-4.3-4.4a6.3,6.3,0,0,0-4.82,2c-1.91,2.11-3.26,3.43-4.57,3.36A2.86,2.86,0,0,1,72,100.55c-2.05-2.28,0-6.82,5-7.61,3.83-.61,6.5-4.06,4.92-7.17-1.36-2.69-3.17-3.74-5-3.83a8.61,8.61,0,0,0-6.16,2.83c-.92,1-1.67,1.36-2.24,1.33C67.44,86,67,84.34,67.24,81.59c.52-5.51,7.89-11,14.26-10.65a9,9,0,0,1,3.36.81,6.14,6.14,0,0,0,2.31.6c2.54.14,4.1-1.64,3-3A5.29,5.29,0,0,0,86,67.53c-2.2-.12-4.61.41-6.19.33a3.41,3.41,0,0,1-.58-.07c-2.51-.49-2.64-4.11-.57-5.37a3,3,0,0,1,1.79-.52c1.88.09,3.46,2.2,7.66,2.42,5.41.28,10.31-6.93,20-7.89a29,29,0,0,1,4.41-.12c7,.37,11.18,3.53,13.42,7.14,2.12,3.44,4.42,7.43,7.68,7.6a5.08,5.08,0,0,0,2.71-.69c5.62-3,.21-8.61-3.41-10-2.4-.94-2.84-3.35-.37-3.22a4.78,4.78,0,0,1,1,.15,15.93,15.93,0,0,1,11.87,12.06c2.93,12.78,9.85,15.26,15,15.52.55,0,1.08,0,1.58,0,4.7-.12,6.47-2.36,6.35-5.64-.08-2.33,1-4.16,2.26-4.09.65,0,1.36.53,2,1.67,2.92,4.92,5.69,12.93,13.84,16.25s13.43,1.55,18.21,6.46c5.63,5.76,7.3,15.54,19.81,19.82-11.35-1.09-12.36-5.27-21.49-11.22C196.75,104,189.47,106,185.68,103c-5.83-4.75-15.87-18.64-12.39-2.58,2.22,10.29-5.17,22.68-17.26,29.79-2.51,1.48-2.62-.07-1-1.24,10.2-7.36,13.82-16.58,12.33-26.78-.73-5-1.66-8.88-4-9.57-4.26-1.28.28,2.91-2.2,3.79s-7.85-4.18-11.36-6.21c-3-1.75-5.49-1.67-1.36,9.19,5.64,14.86-5.35,32.08-6,33.27-2.07,3.94-4.71,4.57-3,1.06,6.4-13.14,3.92-28.22,0-33.79s-12.69-9-16.85-8.87-4.76,4.07-1.65,6.49,1.75,4.82-1.08,2.39c-2-1.71-8.3-6.65-11.07-6-3,.66-.09,1.79.72,9.53S104.5,125.5,92,134.72c-1.7,1.26-4.83,1.26-1.73-1.6,12.06-11.12,11.54-26.91,9.32-30.87s-6.71,2.45-10.28,4.9,0,9.54-9.91,17.52a17.59,17.59,0,0,1-14.81,3.66,21.76,21.76,0,0,0,8.78-2.51c12-6.64,8.71-13,8.86-16.1m150.57,9.88Zm-98.4-11.22c-2.88-4-4.35-4.38-4.72-8.11-.09-1,.62-1.91,1.66-1.65,4.49,1.13,8.41,9.73,6.83,18.41-.42,2.29-1.55,2.45-1.4.53.34-4.39-.37-6.35-2.37-9.18M62.17,127.71a20.33,20.33,0,0,0,2.4.62,20.33,20.33,0,0,1-2.4-.62Zm323.64-3H284.29c-10.19-.79-20.17-1.63-26.24-2.25-37.91-3.82-41-12.42-45.13-19a40.2,40.2,0,0,0-5.13-7c-3.81-3.91-7.93-4.66-11.91-5.38a36.71,36.71,0,0,1-7.76-2.06c-5.19-2.11-7.64-6.77-10-11.27-.59-1.12-1.15-2.18-1.74-3.19-1.86-3.13-4.26-3.71-5.52-3.78a5.81,5.81,0,0,0-4.41,1.73A9,9,0,0,0,164,79.37a1.69,1.69,0,0,1-.09.78,4.19,4.19,0,0,1-2.06.4c-.43,0-.85,0-1.25,0-3.56-.18-8.56-1.65-11-12.18a20.23,20.23,0,0,0-15-15.29,9.86,9.86,0,0,0-1.78-.27h0A5.56,5.56,0,0,0,126.76,57a4,4,0,0,0-.08.48A21.4,21.4,0,0,0,112.8,52a34.6,34.6,0,0,0-5,.13c-6.24.62-10.65,3.32-14.2,5.48-2.07,1.27-4,2.46-5.18,2.4a7.89,7.89,0,0,1-3.6-1.12,9.81,9.81,0,0,0-4-1.31,7.41,7.41,0,0,0-4.27,1.15,7.55,7.55,0,0,0-3.39,7.74,7.38,7.38,0,0,0,.55,1.78C68,70.76,63.45,75.83,63,81.19c-.32,3.34.21,5.75,1.6,7.36a5.34,5.34,0,0,0,3.77,1.86c2.86.15,4.89-1.94,5.56-2.63a4.55,4.55,0,0,1,2.85-1.53c.54,0,1.07.88,1.35,1.43a2.39,2.39,0,0,1-1.72,1,11.1,11.1,0,0,0-9,6.92,7.7,7.7,0,0,0,1.4,7.85A7,7,0,0,0,73.7,106c3.5.18,6-2.57,8-4.77a2,2,0,0,1,1.4-.62h0a2.59,2.59,0,0,1,.24.79c0,.17.05.31.06.43a8.17,8.17,0,0,0-5.51,7.68,16.26,16.26,0,0,0,.15,2.55c.34,2.88.69,5.87-6.79,10-2.87,1.59-6.49,1.74-10.73,2-2.84.22-6.46.43-10.59.63H-271.52c-.33,0-18.92,152.28,0,152.28H385.81c18.92,0,18.92-152.28,0-152.28"/></g></svg>