<svg id="Layer_1" data-name="Layer 1" xmlns="http://www.w3.org/2000/svg" viewBox="0 0 750 750"><defs><style>.cls-1{fill:#fff;}.cls-2{fill:#faac18;}.cls-2,.cls-3{stroke:#fff;stroke-miterlimit:10;stroke-width:2px;}.cls-3{fill:#0b476b;}</style></defs><title>icon-colors-outlined</title><circle class="cls-1" cx="447.5" cy="397.5" r="296.5"/><path class="cls-2" d="M557.34,494.67c-5,3.8-10.75,7.27-14.34,9.68a6.48,6.48,0,0,1-5.13,1c-12.51-3-55.55-17.12-80.64-45.44A1.26,1.26,0,0,1,458.8,458c15.18,8.79,56.08,30.37,97.68,33.91A1.56,1.56,0,0,1,557.34,494.67Z"/><path class="cls-2" d="M685.6,220.12a83.93,83.93,0,0,1,2.06,19.14c-.64,19-8.47,49.57-12.31,63.53,11.94,26.5,16.59,52.77,18.38,70.7,5.06,51-18.4,86.79-35.52,112.9-4.76,7.25-9.26,14.11-12.47,20.24A14.73,14.73,0,0,0,644,517.21c.31,1.88.84,3.86,1.4,6,1.24,4.63,2.78,10.41,2.59,17a19.48,19.48,0,0,1-.23,2.4,19.53,19.53,0,0,1-18.69,16.13c4.35,7.9,11.49,19.36,22.94,36,2.48,3.59,4.74,7.18,6.9,10.75a295.9,295.9,0,0,0,26.7-385.33Z"/><path class="cls-2" d="M203.05,460.72c18.23-22.24,26.66-35.08,36.79-73.09,5.18-19.43,16.77-33.51,26.08-44.83,5.14-6.24,10.45-12.69,11.73-16.88.06-.85.14-2,.25-3.28a30.8,30.8,0,0,1,.35-4c2.85-31.18,13-111.5,45.76-189.77-101.19,47-171.39,149.51-171.39,268.45a295.27,295.27,0,0,0,17.54,100.53C186.49,479.69,199,465.71,203.05,460.72Z"/><path class="cls-2" d="M558.85,590.27c-21-10.76-75.47-16.37-106.78-7.32-32.63,9.42-46.43,19.26-51,22.5l-.41.29c-10.81,7.67-20.8,5.06-26.56.06-7.22-6.28-8.79-16.84-3.9-26.27a28.72,28.72,0,0,1,4.09-5.8,18.42,18.42,0,0,1,2.25-2.85c10.15-10.5,30.75-25.89,58.13-37.63A152.77,152.77,0,0,1,455.8,526a228.7,228.7,0,0,1-68.3-41.36q-4.47,3.14-9.61,6.09a18.4,18.4,0,0,1-2.32,1.13c-2.59,1-6.11,2.4-10.79,4.1-17.44,6.62-29.74,7.24-41.64,7.84-2.17.11-4.36.22-6.63.38-5.08.35-9.75.32-14.27.3-14-.09-22.44-.14-33.82,10-9.47,8.44-22.42,9.21-30.81,1.85a20.07,20.07,0,0,1-4.76-6.28c-10.65,10.38-23.92,23.74-38.55,38.7,51.65,86.53,146.16,144.5,254.26,144.5a294.45,294.45,0,0,0,168.19-52.48C599,619.4,573.61,597.84,558.85,590.27Z"/><path class="cls-2" d="M319.76,381.22c-.14-.1-.25-.23-.39-.33-.66,1-1.3,2.09-1.92,3.24Z"/><path class="cls-3" d="M649.48,171.64l0,0c-21,1.51-18.13-8.76-11.29-18.34-6.41,1.17-35.77,22.42-35.77,22.42,10-15,30-30.7,30-30.7-.75.13-1.48.22-2.19.29-16.24,1.62-18.29-11.31-16.81-23.35C600.91,127.34,570.18,165,570.18,165c3.35-14.86,32.55-53.55,32.55-53.55a40.8,40.8,0,0,1-12.53,3.88c-12.38,1.23-13.35-9.94-11.26-21.37-19.22,13.3-46.06,57.74-46.06,57.74,10.31-30.7,32.73-64,32.73-64a26.51,26.51,0,0,1-10,3.47c-7,.69-11.13-3.5-13.56-8.8-20.26,14.87-47.49,76.05-47.49,76.05,7.74-34.15,30.58-76.68,30.58-76.68-6.09,6.41-11.07,9.08-15.11,9.48-4.72.47-8.16-2.16-10.59-5.53-18.22,19.69-41.43,78.22-41.43,78.22,6.27-34,24.72-73.92,24.72-73.92-7,8.28-12.57,11.6-17,12s-7.62-1.89-10-5C434.67,121.43,415,171.54,415,171.54c4.1-22.3,21.76-70.25,21.76-70.25-4.56,4.91-7.89,7-10.29,7.24-3.15.31-4.72-2.56-5.42-6.4,0,0-31.49,52.27-36.54,76.14,0,0,9.17-46.23,25.87-80a21.36,21.36,0,0,1-4.33-3.8A5.21,5.21,0,0,1,404.19,92a33.58,33.58,0,0,1-4.57-11.54c-19.58,36-43,100.56-43,100.56,10.14-54.79,41.93-120,41.93-120-9.5-1.49,5-27.51,5-27.51-85,92.87-103.87,249.69-107.26,287.31a12,12,0,0,0-.21,2.46h0c-.23,2.66-.35,4.48-.41,5.3-3.67,18.79-30.55,34.7-38.28,63.68-10.63,39.88-19.77,54.89-40.29,79.92-18,21.95-174.63,192-210.27,238.5-2.23,2.9-1.44,5,.63,4.76a6.61,6.61,0,0,0,3.6-2c10.37-9.63,188.38-200,228.47-234.61,17.22-14.89,37-36.72,76-40.58,9.43-.94,24.68-.64,36.58.87,0,0-67.68,8.42-101.91,58.73-3.56,5.24,1.34,7.26,6.15,3,21.24-18.94,38.83-13.49,58.94-14.87,13.93-.95,25.21-.3,43.31-7.17,4.45-1.61,7.78-2.9,10.24-3.89,11.5-6.63,23.27-15.77,28.06-27.15,12.8-30.45-12-63.72-12-63.72a95.75,95.75,0,0,0,34.25,3.15,62.75,62.75,0,0,0,25-7.59c-7.49,9.87-20.62,13.23-30.93,14.26a80.19,80.19,0,0,1-15,.11s19,27,5.37,56.59A49.5,49.5,0,0,1,393.17,465c4.2,4.33,57.88,57.84,137.82,56.31,0,0-79.49-19-103.55-74.36,9.87-5.94,18.09-12,23.28-17.9,10.27,9.66,46.48,40,100.73,44.24,0,0-54.59-15.37-81.5-47.37,16.06,8.11,50.36,21.78,93,17.55q4.41-.44,8.94-1.14s-64.46-2.66-96.61-32.55a81,81,0,0,1,21.43-4.94c20.55-2,43.43,2.19,61.23,10.31,33.41,15.23,45.9,52,33.38,71.35C582,500.88,562,512,564.46,514.67s10.72,3.79,15.13,6.66c-.3,4.48-7.58,13.37-28,16.88-1,.16-2,.3-3.05.4-14.12,1.41-37.19-2-63.38.62A145.61,145.61,0,0,0,441.87,550c-27.2,11.66-45.1,26.19-52.22,33.56l.43,0a23.92,23.92,0,0,0-3.69,4.42c-1.58,3-1.08,6.49,3.77,3S410.49,576,447,565.48s95.88-3.82,120.13,8.62,68.62,53.49,82.33,83.4c11.61,25.31,15.53,49.91,16.78,55s4.28,5.76,4.36-.93S672,655.74,637,605c-29.49-42.77-38.84-62.21-27.88-71.47,0,0,20,9.89,20.65,6.12.19-6.38-2.57-12.42-3.72-19.36h0a32.64,32.64,0,0,1,3.56-22.12c15.69-29.95,51.75-64.86,46-122.9-2-20.34-7.32-46.11-19.62-70.87,0,0,12.73-43.45,13.48-65.77S649.48,171.64,649.48,171.64ZM366,269.12a263.55,263.55,0,0,1,40.17-28.05c26.83-15.16,56.06-23.12,83.5-25.84,30.65-3,59.09.44,79.5,7.69,2,.71,4,1.49,5.9,2.29,16,7.71,37.75,22.84,57.71,52.2-6.8-8.6-30.93-36.61-65.58-48.92-19.74-7-47.25-10.37-76.91-7.43-26.68,2.65-55.09,10.39-81.21,25.15-42.57,24-68.62,55.83-75,64.08A172,172,0,0,1,366,269.12ZM326.25,392c-3.31,4.4-9.81,6.3-12.63,4.84a2.38,2.38,0,0,1-.51-.37,11.55,11.55,0,0,1-.35-1.77c1.36-3.62,6.17-15.74,10.46-17.87C328.06,380.65,329.37,387.86,326.25,392ZM573.33,563c5-12.09,13-25.38,20.69-39.55h0c15-27.59,27.4-58.3,6.53-88.94-14.54-21.33-27.37-24.11-27.37-24.11s17.51,3.3,30.42,17.5C648.44,477.27,597.47,526.2,573.33,563Zm69.89-181.27c-28.19,2.8-102.15,6.06-174.53-25.18a.9.9,0,0,1-.16,0,5.5,5.5,0,0,0-2.66-.37c-6.24.62-13.11,10.43-13.11,10.43,7.83-20.5,17.93-28.54,26.91-29.43a17.37,17.37,0,0,1,8.5,1.31S543,371.64,655.11,380.29C655.11,380.29,650.83,381,643.22,381.77ZM448.56,309c3.56-2,7.22-3.87,10.86-5.68l3.78,7.61c-6.6,3.4-10.37,5.83-10.37,5.83ZM479,294.5c3.84-1.53,7.73-3,11.55-4.24l2.72,8.06c-3.94,1.28-7.67,2.63-11.16,4Zm32.34-10.06c4.1-.9,8.2-1.65,12.2-2.22l1.26,8.77c-.45.06-.92.15-1.38.22-3.47.5-6.88,1.09-10.2,1.77Zm33.83,5.16.11-8.86,1.56,0c3.6.09,7.27.33,10.89.71l-.93,8.81c-3.39-.36-6.82-.58-10.2-.67Zm31.79,4,2-7.6c4.23,1.13,8.16,2.36,11.85,3.66l-2.57,7.07Q582.89,295.06,577,293.65Zm30.59,10.66,3.11-5.78c3.71,2.05,7.19,4.21,10.54,6.48l-3,4.73C614.93,307.91,611.39,306.08,607.59,304.31Zm28.18,16.9,2.68-3.11a78.64,78.64,0,0,1,9.08,8.43L645,329A97.27,97.27,0,0,0,635.77,321.21ZM667.44,350s-27.51-87.94-143.31-83.86q-5,.18-9.92.67C466.63,271.57,422,297.48,388.84,323c-.68.48-1.4,1-2.23,1.71l-.2.17c-3.71,2.9-7.27,5.79-10.67,8.63-16.52,13-37.45,28.14-44.19,33a1,1,0,0,1-.44.17.93.93,0,0,1-1-1.2c8.84-27.5,29.91-47.85,37.38-54.42.06,0,.06-.11.1-.17,34.63-28.32,85.15-59.91,143-65.65h.06C636,232.85,667.42,350,667.44,350Z"/></svg>