<svg id="Layer_1" data-name="Layer 1" xmlns="http://www.w3.org/2000/svg" viewBox="0 0 750 750"><defs><style>.cls-1{opacity:0.4;}.cls-2{fill:#fff;}</style></defs><title>icon-white--40pc</title><g class="cls-1"><path class="cls-2" d="M485.22,73.22l.19-.2-.82-.14C484.8,73,485,73.09,485.22,73.22Z"/><path class="cls-2" d="M603.74,126.75c0,.21,0,.41-.07.61a19.23,19.23,0,0,1,16.83,11.42q.24.56.45,1.11a19,19,0,0,1,3.79,4.36,19.19,19.19,0,0,1,3,10.62,19.29,19.29,0,0,1,7.94,7.12c.32.52.64,1.09.91,1.63.09.17.17.33.24.5,1.14,2.44,3.67,8,6.59,15.29a300.07,300.07,0,0,1-5,424.71,200.71,200.71,0,0,1,8.69,20.55C710.37,566,750,482.17,750,389.29c0-112.85-58.49-212.28-146.73-269.6A19.42,19.42,0,0,1,603.74,126.75Z"/><path class="cls-2" d="M395.34,74.3a19.5,19.5,0,0,1,2.52,6.19A13.67,13.67,0,0,0,399.49,85c0,.07.09.14.14.21l.13.16a1.68,1.68,0,0,0,.35.3c.23.15.47.32.7.49a18.89,18.89,0,0,1,2.34.28,18.51,18.51,0,0,1,3.15.85,19.25,19.25,0,0,1,13.95-1.19,19.25,19.25,0,0,1,22-2.51c.6-.62,1.28-1.38,2-2.27a19.22,19.22,0,0,1,18.43-6.5,19.35,19.35,0,0,1,8.46-4A323.7,323.7,0,0,0,428.72,68q-16.11,0-31.83,1.57A19.49,19.49,0,0,1,395.34,74.3Z"/><path class="cls-2" d="M133.09,511.42l14.61-16.2a299.45,299.45,0,0,1-19.28-105.93c0-124.76,76.09-231.73,184.38-277.08,4.4-9.37,9.15-18.64,14.29-27.72-127.5,42.62-219.65,163.14-219.65,304.8a319.43,319.43,0,0,0,24.61,123.29C132.4,512.2,132.75,511.8,133.09,511.42Z"/><path class="cls-2" d="M601.9,647.54a75.54,75.54,0,0,0-5.22-9.28,298.94,298.94,0,0,1-168,51.33c-108.23,0-203.06-57.28-255.91-143.16q-7.34,7.55-15,15.44C215,651.22,315,710.57,428.72,710.57a319.36,319.36,0,0,0,177.19-53.42C604.7,654,603.37,650.76,601.9,647.54Z"/><path class="cls-2" d="M619.38,172.23l0,0c-20.18,1.45-17.44-8.43-10.87-17.63-6.16,1.12-34.39,21.56-34.39,21.56,9.63-14.42,28.82-29.53,28.82-29.53-.73.12-1.43.21-2.1.28-15.62,1.55-17.6-10.88-16.17-22.46-12,5.23-41.54,41.42-41.54,41.42,3.22-14.28,31.3-51.5,31.3-51.5a39.3,39.3,0,0,1-12,3.73c-11.91,1.18-12.84-9.56-10.83-20.55-18.48,12.79-44.3,55.53-44.3,55.53,9.91-29.53,31.48-61.52,31.48-61.52a25.5,25.5,0,0,1-9.58,3.34c-6.74.67-10.71-3.36-13-8.46-19.49,14.3-45.68,73.15-45.68,73.15,7.45-32.85,29.41-73.76,29.41-73.76C494,92,489.18,94.52,485.29,94.9c-4.54.45-7.84-2.07-10.19-5.32-17.52,18.94-39.84,75.23-39.84,75.23,6-32.71,23.77-71.09,23.77-71.09-6.7,8-12.08,11.16-16.36,11.58s-7.33-1.81-9.63-4.82c-20.26,23.46-39.15,71.65-39.15,71.65,3.93-21.44,20.92-67.56,20.92-67.56-4.39,4.72-7.58,6.73-9.89,7-3,.3-4.54-2.46-5.22-6.15,0,0-30.28,50.27-35.14,73.23,0,0,8.82-44.47,24.88-76.92A20.56,20.56,0,0,1,385.28,98a5,5,0,0,1-1.82-2.39,32.28,32.28,0,0,1-4.4-11.1c-18.83,34.6-41.35,96.72-41.35,96.72C347.46,128.57,378,65.9,378,65.9c-9.14-1.44,4.81-26.47,4.81-26.47C301.14,128.75,283,279.58,279.69,315.76a11.11,11.11,0,0,0-.2,2.37h0c-.22,2.56-.34,4.31-.39,5.1-3.53,18.07-29.39,33.38-36.82,61.24-10.23,38.36-19,52.8-38.75,76.87C186.23,482.45,35.57,646,1.29,690.73c-2.14,2.79-1.38,4.78.6,4.58a6.37,6.37,0,0,0,3.47-1.89c10-9.27,181.18-192.33,219.74-225.65,16.56-14.32,35.59-35.31,73.06-39,9.06-.9,23.74-.62,35.18.84,0,0-65.09,8.09-98,56.48-3.42,5,1.29,7,5.92,2.87,20.43-18.21,37.35-13,56.68-14.3,13.4-.92,24.25-.29,41.66-6.9,4.28-1.55,7.49-2.79,9.85-3.74,11.06-6.38,22.38-15.17,27-26.11,12.32-29.29-11.55-61.29-11.55-61.29a92,92,0,0,0,32.93,3,60.23,60.23,0,0,0,24.06-7.3c-7.2,9.5-19.83,12.73-29.74,13.71a76.19,76.19,0,0,1-14.41.11s18.28,26,5.17,54.43a47.78,47.78,0,0,1-10,13.83c4,4.16,55.66,55.63,132.55,54.16,0,0-76.45-18.3-99.6-71.52,9.51-5.72,17.41-11.55,22.4-17.22,9.88,9.3,44.7,38.45,96.88,42.55,0,0-52.5-14.78-78.39-45.56,15.45,7.8,48.44,20.95,89.43,16.88,2.83-.28,5.7-.64,8.6-1.1,0,0-62-2.56-92.92-31.3a77.57,77.57,0,0,1,20.61-4.75c19.77-2,41.78,2.11,58.89,9.91,32.14,14.65,44.15,50,32.1,68.63-8.93,13.81-28.21,24.46-25.81,27.08s10.32,3.64,14.55,6.4c-.28,4.31-7.28,12.86-26.93,16.23q-1.4.24-2.94.39c-13.58,1.35-35.76-1.9-60.95.6A139.76,139.76,0,0,0,419.7,536.1c-26.16,11.21-43.38,25.18-50.23,32.27l.41,0a23.38,23.38,0,0,0-3.55,4.24c-1.51,2.93-1,6.24,3.63,2.92s19.55-14.32,54.69-24.47,92.22-3.67,115.54,8.29,66,51.44,79.19,80.22c11.16,24.34,14.94,48,16.13,52.88s4.12,5.54,4.2-.89S641,637.84,607.4,589.05c-28.36-41.13-37.35-59.83-26.81-68.73,0,0,19.27,9.51,19.86,5.88.18-6.14-2.47-12-3.58-18.62h0a31.48,31.48,0,0,1,3.42-21.28c15.1-28.81,49.78-62.38,44.24-118.2-1.94-19.57-7-44.35-18.88-68.17,0,0,12.25-41.78,13-63.26S619.38,172.23,619.38,172.23ZM346.71,266a253.56,253.56,0,0,1,38.64-27c25.8-14.58,53.91-22.23,80.3-24.85,29.49-2.92,56.83.42,76.47,7.4,1.93.69,3.81,1.43,5.67,2.2,15.38,7.42,36.31,22,55.51,50.21-6.54-8.28-29.75-35.21-63.08-47.06-19-6.74-45.44-10-74-7.14-25.66,2.55-53,10-78.11,24.19-40.94,23.13-66,53.7-72.09,61.63A165.14,165.14,0,0,1,346.71,266ZM308.49,384.17c-3.18,4.23-9.43,6.06-12.14,4.65a1.75,1.75,0,0,1-.49-.35,11.87,11.87,0,0,1-.34-1.7c1.3-3.49,5.93-15.14,10.06-17.19C310.23,373.25,311.49,380.18,308.49,384.17ZM546.13,548.68c4.81-11.63,12.51-24.42,19.9-38h0c14.44-26.54,26.36-56.08,6.29-85.54-14-20.52-26.33-23.2-26.33-23.2s16.84,3.17,29.26,16.84C618.38,466.18,569.36,513.24,546.13,548.68Zm67.23-174.35c-27.11,2.69-98.25,5.83-167.87-24.21,0,0-.1,0-.15,0a5.1,5.1,0,0,0-2.56-.36c-6,.59-12.61,10-12.61,10,7.53-19.72,17.25-27.45,25.88-28.31a16.79,16.79,0,0,1,8.18,1.26s52.7,31.88,160.56,40.2C624.79,372.91,620.68,373.61,613.36,374.33Zm-187.23-70c3.43-1.9,6.95-3.73,10.45-5.47l3.63,7.31c-6.34,3.28-10,5.62-10,5.62Zm29.32-13.9c3.69-1.47,7.43-2.85,11.11-4.09l2.61,7.75c-3.79,1.24-7.38,2.54-10.73,3.86Zm31.11-9.68c3.93-.87,7.88-1.59,11.73-2.14L499.5,287l-1.33.21q-5,.72-9.81,1.71Zm32.53,5,.1-8.53,1.51,0c3.46.09,7,.33,10.47.69l-.9,8.48c-3.25-.35-6.55-.56-9.81-.65Zm30.57,3.89,2-7.32c4.07,1.1,7.85,2.27,11.4,3.52l-2.48,6.81Q555.33,290.93,549.66,289.58Zm29.42,10.25,3-5.56c3.57,2,6.93,4.05,10.14,6.24l-2.93,4.55C586.15,303.3,582.74,301.54,579.08,299.83Zm27.11,16.25,2.58-3a75.89,75.89,0,0,1,8.73,8.1l-2.42,2.36A93.91,93.91,0,0,0,606.19,316.08Zm30.46,27.73s-26.45-84.57-137.84-80.65c-3.19.11-6.37.33-9.53.64-45.77,4.54-88.65,29.46-120.59,54.05-.65.45-1.35,1-2.14,1.64l-.19.16c-3.57,2.79-7,5.57-10.26,8.3-15.89,12.5-36,27.07-42.51,31.73a.78.78,0,0,1-.42.16.88.88,0,0,1-.93-1.14c8.5-26.45,28.76-46,35.95-52.35.05,0,.05-.11.09-.16,33.31-27.24,81.9-57.63,137.5-63.15h.06C606.44,231.1,636.63,343.76,636.65,343.81Z"/></g></svg>