<svg id="Layer_1" data-name="Layer 1" xmlns="http://www.w3.org/2000/svg" viewBox="0 0 750 750"><defs><style>.cls-1{fill:#faac18;}.cls-2{fill:#0b476b;}</style></defs><title>icon-colors-centered</title><path class="cls-1" d="M467.06,456.51c-4.12,3.15-8.91,6-11.9,8a5.37,5.37,0,0,1-4.25.8c-10.38-2.48-46.08-14.21-66.89-37.7a1,1,0,0,1,1.3-1.59c12.59,7.3,46.52,25.19,81,28.13A1.3,1.3,0,0,1,467.06,456.51Z"/><path class="cls-1" d="M573.46,228.75a69.54,69.54,0,0,1,1.71,15.88c-.53,15.74-7,41.12-10.22,52.7,9.91,22,13.77,43.77,15.25,58.65,4.2,42.33-15.26,72-29.46,93.65-4,6-7.68,11.71-10.35,16.79a12.32,12.32,0,0,0-1.45,8.79c.26,1.55.7,3.19,1.17,4.93a48.21,48.21,0,0,1,2.14,14.14,14.88,14.88,0,0,1-.19,2,16.24,16.24,0,0,1-15.5,13.39c3.6,6.54,9.53,16.05,19,29.83,2,3,3.93,6,5.72,8.91a245.47,245.47,0,0,0,22.15-319.65Z"/><path class="cls-1" d="M173.17,428.34c15.11-18.45,22.11-29.1,30.51-60.63,4.3-16.12,13.91-27.8,21.64-37.19,4.26-5.18,8.66-10.52,9.73-14,0-.71.12-1.62.21-2.72a23.68,23.68,0,0,1,.29-3.32c2.36-25.87,10.81-92.5,38-157.43-83.95,39-142.18,124-142.18,222.7a245.1,245.1,0,0,0,14.55,83.39C159.43,444.08,169.77,432.48,173.17,428.34Z"/><path class="cls-1" d="M468.32,535.81c-17.41-8.93-62.61-13.58-88.58-6.07-27.07,7.81-38.52,16-42.28,18.66l-.34.24c-9,6.37-17.25,4.2-22,.05-6-5.2-7.29-14-3.23-21.79a23.67,23.67,0,0,1,3.39-4.82,15.94,15.94,0,0,1,1.86-2.36c8.42-8.7,25.51-21.48,48.22-31.21a124.83,124.83,0,0,1,17.5-6,190.22,190.22,0,0,1-56.66-34.31q-3.71,2.58-8,5.05a14.9,14.9,0,0,1-1.93.93c-2.14.86-5.06,2-8.94,3.4-14.47,5.49-24.68,6-34.55,6.51-1.8.09-3.62.18-5.5.31-4.21.29-8.09.27-11.83.25-11.6-.07-18.62-.12-28.06,8.3-7.85,7-18.6,7.63-25.56,1.53a16.71,16.71,0,0,1-4-5.21c-8.83,8.62-19.84,19.7-32,32.1a245.43,245.43,0,0,0,350.44,76.34C501.65,560,480.56,542.09,468.32,535.81Z"/><path class="cls-1" d="M270,362.39c-.12-.08-.21-.19-.32-.27-.55.82-1.08,1.74-1.59,2.69Z"/><path class="cls-2" d="M543.5,188.54l0,0c-17.4,1.25-15-7.27-9.37-15.21-5.32,1-29.67,18.59-29.67,18.59,8.31-12.43,24.86-25.46,24.86-25.46-.62.1-1.23.18-1.81.24-13.47,1.33-15.18-9.39-14-19.37-10.33,4.5-35.82,35.72-35.82,35.72,2.77-12.32,27-44.41,27-44.41a34,34,0,0,1-10.39,3.21c-10.27,1-11.08-8.25-9.34-17.72C469,135.11,446.77,172,446.77,172c8.55-25.47,27.15-53.06,27.15-53.06a21.91,21.91,0,0,1-8.26,2.88c-5.81.57-9.23-2.9-11.24-7.3C437.6,126.84,415,177.59,415,177.59c6.42-28.33,25.36-63.61,25.36-63.61-5.05,5.32-9.18,7.53-12.53,7.86-3.91.39-6.77-1.79-8.79-4.59C404,133.59,384.7,182.14,384.7,182.14c5.2-28.21,20.5-61.31,20.5-61.31-5.78,6.86-10.42,9.62-14.12,10s-6.32-1.57-8.3-4.16C365.3,146.89,349,188.45,349,188.45c3.4-18.49,18.05-58.27,18.05-58.27-3.79,4.08-6.54,5.81-8.53,6-2.62.26-3.92-2.12-4.5-5.3,0,0-26.12,43.36-30.31,63.16,0,0,7.6-38.35,21.46-66.34a17.84,17.84,0,0,1-3.59-3.15,4.32,4.32,0,0,1-1.57-2.06,28,28,0,0,1-3.8-9.57c-16.23,29.84-35.66,83.42-35.66,83.42,8.41-45.46,34.78-99.51,34.78-99.51C327.46,95.59,339.5,74,339.5,74c-70.48,77-86.17,207.13-89,238.34a9.77,9.77,0,0,0-.18,2h0c-.18,2.21-.29,3.71-.33,4.4-3,15.58-25.35,28.78-31.76,52.82-8.82,33.08-16.4,45.53-33.42,66.3C169.91,456.1,40,597.15,10.4,635.74c-1.85,2.41-1.19,4.12.52,4a5.52,5.52,0,0,0,3-1.63c8.6-8,156.27-165.89,189.52-194.62,14.29-12.35,30.7-30.46,63-33.67a155,155,0,0,1,30.34.73s-56.14,7-84.54,48.72c-2.95,4.34,1.12,6,5.11,2.47C235,446,249.57,450.5,266.25,449.36c11.55-.8,20.91-.25,35.92-5.95,3.69-1.34,6.46-2.41,8.5-3.23,9.54-5.5,19.31-13.09,23.27-22.52,10.62-25.26-10-52.86-10-52.86a79.35,79.35,0,0,0,28.4,2.61,52.15,52.15,0,0,0,20.76-6.29c-6.22,8.19-17.11,11-25.66,11.82a65.33,65.33,0,0,1-12.43.09s15.77,22.44,4.46,47a41.16,41.16,0,0,1-8.63,11.93c3.48,3.59,48,48,114.32,46.71,0,0-65.93-15.79-85.9-61.68,8.2-4.94,15-10,19.32-14.86,8.52,8,38.55,33.17,83.55,36.7,0,0-45.28-12.74-67.6-39.29,13.32,6.73,41.77,18.07,77.13,14.56,2.44-.25,4.91-.56,7.42-.95,0,0-53.48-2.21-80.15-27A66.83,66.83,0,0,1,416.75,382a103.33,103.33,0,0,1,50.79,8.54c27.72,12.64,38.08,43.13,27.69,59.19-7.71,11.91-24.33,21.1-22.26,23.36s8.89,3.14,12.55,5.52c-.25,3.72-6.29,11.09-23.23,14-.8.14-1.65.25-2.54.34-11.71,1.16-30.84-1.65-52.57.51a120.89,120.89,0,0,0-35.91,8.9c-22.56,9.67-37.4,21.72-43.31,27.84l.35,0a20.13,20.13,0,0,0-3.06,3.66c-1.31,2.53-.9,5.38,3.13,2.52s16.86-12.35,47.17-21.1,79.54-3.18,99.65,7.14,56.92,44.37,68.3,69.19c9.62,21,12.88,41.4,13.91,45.61S561,642,561,636.42s1.16-46.3-27.86-88.37C508.7,512.57,501,496.44,510,488.76c0,0,16.62,8.2,17.13,5.07.16-5.29-2.13-10.3-3.09-16.05h0a27.14,27.14,0,0,1,3-18.35c13-24.85,42.93-53.81,38.15-102-1.67-16.87-6.07-38.24-16.28-58.79,0,0,10.56-36,11.19-54.56S543.5,188.54,543.5,188.54ZM308.32,269.4a218.2,218.2,0,0,1,33.33-23.27c22.25-12.57,46.49-19.17,69.26-21.43,25.43-2.53,49,.36,65.95,6.38,1.67.59,3.29,1.23,4.89,1.9,13.27,6.39,31.32,18.94,47.88,43.3-5.64-7.14-25.66-30.37-54.41-40.59-16.37-5.81-39.19-8.6-63.8-6.16-22.12,2.2-45.7,8.62-67.36,20.87-35.31,20-56.93,46.31-62.18,53.15A142.28,142.28,0,0,1,308.32,269.4Zm-33,101.94c-2.75,3.64-8.14,5.22-10.47,4a2.34,2.34,0,0,1-.43-.3,10.93,10.93,0,0,1-.29-1.47c1.13-3,5.12-13.06,8.68-14.83C276.86,361.92,278,367.9,275.36,371.34Zm205,141.88c4.15-10,10.79-21.06,17.17-32.8h0c12.45-22.89,22.73-48.37,5.42-73.79-12.06-17.69-22.71-20-22.71-20a50.42,50.42,0,0,1,25.24,14.52C542.64,442.07,500.35,482.66,480.32,513.22Zm58-150.37c-23.38,2.32-84.73,5-144.78-20.88,0,0-.09,0-.13,0a4.38,4.38,0,0,0-2.2-.31c-5.18.51-10.88,8.65-10.88,8.65,6.49-17,14.88-23.67,22.32-24.41a14.3,14.3,0,0,1,7.05,1.09s45.46,27.49,138.49,34.66C548.17,361.62,544.62,362.22,538.3,362.85ZM376.82,302.44c3-1.63,6-3.21,9-4.71L389,304c-5.47,2.82-8.6,4.84-8.6,4.84Zm25.29-12c3.19-1.27,6.41-2.46,9.58-3.53l2.26,6.69c-3.28,1.07-6.37,2.19-9.26,3.32Zm26.83-8.35c3.39-.75,6.8-1.37,10.12-1.84l1,7.27-1.14.19c-2.88.41-5.71.9-8.46,1.47ZM457,286.39l.09-7.35,1.3,0c3,.08,6,.28,9,.59l-.78,7.31c-2.8-.3-5.65-.48-8.46-.55Zm26.37,3.36,1.7-6.31c3.51.95,6.77,2,9.83,3l-2.14,5.87C489.75,291.39,486.63,290.52,483.37,289.75Zm25.37,8.84,2.58-4.79c3.08,1.7,6,3.49,8.75,5.38l-2.53,3.92C514.84,301.58,511.9,300.06,508.74,298.59Zm23.39,14,2.22-2.58a66.2,66.2,0,0,1,7.53,7l-2.09,2A79.54,79.54,0,0,0,532.13,312.61Zm26.26,23.92S535.58,263.58,439.51,267q-4.12.15-8.22.56c-39.48,3.92-76.46,25.41-104,46.61-.56.39-1.16.84-1.84,1.42l-.17.14c-3.08,2.4-6,4.8-8.85,7.16-13.71,10.78-31.07,23.34-36.66,27.36a.68.68,0,0,1-.36.14.77.77,0,0,1-.81-1c7.34-22.81,24.81-39.69,31-45.14,0,0,0-.1.08-.14,28.73-23.5,70.64-49.7,118.59-54.46h.05C532.34,239.32,558.38,336.48,558.39,336.53Z"/></svg>