<svg id="Layer_1" data-name="Layer 1" xmlns="http://www.w3.org/2000/svg" viewBox="0 0 750 750"><defs><style>.cls-1{fill:#fff;}</style></defs><title>white-sq-logotype-stacked</title><path class="cls-1" d="M204.8,459.07a3.05,3.05,0,0,1,1.51.47c2.2,1.43,2,5.62-.42,9.36-1.62,2.5-3.16,3.43-4.66,3.36a4.47,4.47,0,0,1-2.21-.81c-2.2-1.42-3.52-4-1.09-7.72,1.94-3,4.71-4.77,6.87-4.66m.35-6.8h0c-4.71-.24-9.66,2.73-12.92,7.75-2.7,4.17-2.64,7.73-2.12,10a11.63,11.63,0,0,0,5.2,7.15,11.18,11.18,0,0,0,5.56,1.89c2.89.15,7.09-.84,10.73-6.45a18.32,18.32,0,0,0,3-9c.18-4.21-1.5-7.79-4.63-9.82a9.84,9.84,0,0,0-4.86-1.56Z"/><path class="cls-1" d="M628.91,509.93h-58c-16.06-1.23-31.79-2.57-41.37-3.53-59.75-6-64.68-19.59-71.13-29.91a63.82,63.82,0,0,0-8.09-11.05c-6-6.17-12.5-7.34-18.78-8.48a57.45,57.45,0,0,1-12.23-3.25c-8.18-3.33-12.05-10.67-15.79-17.77-.93-1.77-1.81-3.44-2.75-5-2.94-4.94-6.71-5.86-8.7-6a9.21,9.21,0,0,0-7,2.71c-2.54,2.5-3.91,6.43-3.76,10.78a2.89,2.89,0,0,1-.13,1.23,6.72,6.72,0,0,1-3.26.62c-.68,0-1.35,0-2,0-5.61-.29-13.5-2.6-17.29-19.2-4.12-18-19.21-23-23.74-24.1a15.25,15.25,0,0,0-2.8-.43h0c-5.56-.29-8.82,3.14-9.58,6.66a6.51,6.51,0,0,0-.13.77c-5.48-5.19-13-8.22-21.87-8.68a53.85,53.85,0,0,0-8,.21c-9.83,1-16.79,5.23-22.38,8.64-3.26,2-6.35,3.87-8.17,3.78a12.57,12.57,0,0,1-5.67-1.76A15.33,15.33,0,0,0,250,404.1a11.56,11.56,0,0,0-6.73,1.82,11.92,11.92,0,0,0-4.48,15c-8.86,4-16,12-16.81,20.41-.49,5.27.34,9.06,2.53,11.6a8.38,8.38,0,0,0,5.95,2.93c4.51.24,7.71-3.06,8.76-4.14,1.59-1.64,3.5-2.47,4.48-2.42s1.69,1.4,2.13,2.25a3.74,3.74,0,0,1-2.71,1.57C236.41,454.17,231,458.35,229,464a12.13,12.13,0,0,0,2.22,12.38,11.06,11.06,0,0,0,7.71,4c5.52.29,9.44-4,12.6-7.52a3.25,3.25,0,0,1,2.2-1h0a3.93,3.93,0,0,1,.38,1.25c0,.26.07.49.09.68-2.52,1.09-8.25,3.64-8.68,12.11a22.87,22.87,0,0,0,.24,4c.53,4.55,1.08,9.25-10.71,15.76-4.52,2.5-10.23,2.74-16.92,3.23-4.47.34-10.18.67-16.68,1h-89c-.52,0-1,.07-1.54.08l-.48,0c-.18,0-.24.05-.37.06a54,54,0,0,0-51.61,53.89V696a54,54,0,0,0,54,54h516.4a54,54,0,0,0,54-54V563.94A54,54,0,0,0,628.91,509.93Zm-139.2-8.06Zm-269,12.78a30.32,30.32,0,0,0,3.78,1,30.32,30.32,0,0,1-3.78-1Zm-58,159.54H135.94V586.1h26.82Zm66.44,0-12-23.75H203v23.75H176.19V586.1h42.17c24.24,0,38.17,11.31,38.17,31.29,0,13.07-5.41,22.62-15.22,28l18.32,28.78ZM262,607V586.1h72.77l20.57-32.21h9.31L344.13,586.1,330.75,607H315.14V642.9l10.9-7.12L266.5,717.69l21.69-37.19V607Zm72.57-122.78c-4.54-6.39-6.85-6.91-7.43-12.79-.15-1.55,1-3,2.61-2.59,7.08,1.78,13.26,15.33,10.76,29-.66,3.62-2.44,3.87-2.2.83C338.86,491.73,337.74,488.64,334.58,484.18ZM380,673.34l-18.06-27.78c-1.87.12-3.86.24-5.86.24H332.31l-50.95,71.9L346.42,618l-20.57,9,45.63-73.1h6.15l-20.16,32.29c20.93.46,33,11.08,33,29.23,0,14.45-7,24.17-19.55,28.28l20.43,29.65Zm15.92-201.77c3.51,16.23-8.15,35.75-27.2,47-4,2.33-4.14-.12-1.58-2,16.08-11.6,21.78-26.13,19.43-42.21-1.14-7.82-2.61-14-6.23-15.09-6.71-2,.44,4.59-3.46,6s-12.38-6.59-17.91-9.79c-4.76-2.76-8.65-2.63-2.15,14.48,8.9,23.43-8.42,50.58-9.41,52.46-3.26,6.21-7.42,7.2-4.72,1.67,10.08-20.72,6.17-44.5.05-53.27s-20-14.13-26.55-14-7.5,6.43-2.6,10.23,2.75,7.6-1.71,3.78c-3.17-2.71-13.09-10.49-17.45-9.52-4.65,1-.14,2.82,1.13,15s-8.09,34.85-27.82,49.4c-2.68,2-7.61,2-2.72-2.53,19-17.53,18.19-42.42,14.69-48.66s-10.58,3.86-16.21,7.71,0,15-15.62,27.63a27.73,27.73,0,0,1-23.35,5.78,34.7,34.7,0,0,0,13.84-4c19-10.47,13.73-20.49,14-25.38.47-9.28,10.34-3.16,8.5-14.25-.79-4.79-3.66-6.77-6.78-6.93a9.93,9.93,0,0,0-7.59,3.2c-3,3.32-5.14,5.4-7.2,5.3a4.53,4.53,0,0,1-3-1.78c-3.23-3.59,0-10.75,7.92-12,6-1,10.24-6.4,7.75-11.3-2.15-4.24-5-5.89-7.88-6-3.66-.19-7.36,2-9.72,4.47-1.44,1.48-2.62,2.13-3.53,2.09-1.74-.09-2.46-2.78-2.05-7.11.81-8.68,12.43-17.31,22.47-16.79a14.37,14.37,0,0,1,5.3,1.28,9.89,9.89,0,0,0,3.64.95c4,.21,6.46-2.6,4.71-4.81-1.57-2-3.95-2.67-6.49-2.8-3.48-.18-7.27.65-9.77.52a6.33,6.33,0,0,1-.91-.1c-3.95-.78-4.15-6.48-.89-8.47a4.83,4.83,0,0,1,2.82-.83c3,.16,5.46,3.48,12.07,3.82,8.54.45,16.25-10.92,31.57-12.44a45.79,45.79,0,0,1,6.94-.18c11.05.57,17.63,5.55,21.15,11.25,3.36,5.43,7,11.71,12.12,12a8,8,0,0,0,4.27-1.09c8.85-4.79.33-13.56-5.38-15.81-3.78-1.48-4.48-5.29-.57-5.08a8.19,8.19,0,0,1,1.54.24,25.12,25.12,0,0,1,18.71,19c4.61,20.15,15.53,24.06,23.58,24.48q1.31.06,2.49,0c7.41-.19,10.2-3.73,10-8.89-.13-3.68,1.5-6.57,3.56-6.46,1,.05,2.14.84,3.21,2.63,4.61,7.77,9,20.39,21.83,25.63s21.16,2.44,28.7,10.17c8.87,9.08,11.51,24.51,31.22,31.25-17.88-1.72-19.48-8.31-33.88-17.68-9.88-6.43-21.36-3.27-27.33-8.13C406.26,468.15,390.44,446.25,395.92,471.57Zm64.44,172.74H406.8c1.74,12.83,11.09,20.93,23.79,20.93,8.1,0,15.2-2.87,20.3-8.22l5.36,5.73c-6.23,7-15.45,11-26.41,11-19.31,0-32.64-13.58-32.64-33.14s13.46-33.13,32.52-33.13C450.89,607.32,461.36,622,460.36,644.31Zm73.24,0H480c1.74,12.83,11.09,20.93,23.79,20.93,8.1,0,15.2-2.87,20.31-8.22l5.35,5.73c-6.23,7-15.44,11-26.41,11-19.3,0-32.63-13.58-32.63-33.14S483.9,607.44,503,607.44C524.14,607.32,534.6,622,533.6,644.31Zm24.42,29h-9.71V580.91H558Zm40.73.37c-9.34,0-18.93-3.24-25.16-9.22l3.74-7.35a33.23,33.23,0,0,0,21.8,8.35c7.72,0,14-2.87,14.07-9.34.38-15.83-36.37-7.73-36.25-31,0-12.58,10.84-17.81,22.8-17.81,7.85,0,15.45,2.24,20.93,6L616.94,621a34.67,34.67,0,0,0-17.81-5.36c-7.35,0-13,2.62-13,8.72,0,14.57,36.63,7.1,36.63,30.64C622.8,668,611.33,673.71,598.75,673.71Z"/><path class="cls-1" d="M218.36,606.2H203v24.13h15.34c8,0,12.64-4.27,12.64-12.19C231,610.47,226.36,606.2,218.36,606.2Z"/><path class="cls-1" d="M429.72,615.79c-12.46,0-21.43,8.09-22.92,20.55h44.84C451,623.76,442.55,615.79,429.72,615.79Z"/><path class="cls-1" d="M380.88,615.66c0-13.2-9-19.93-24.8-19.93l-4.49-.13-12.4,19.87,21.17-9.27L339,636.34l17.07-.12C371.9,636.22,380.88,629.24,380.88,615.66Z"/><path class="cls-1" d="M503,615.79c-12.46,0-21.43,8.09-22.92,20.55h44.84C524.26,623.76,515.79,615.79,503,615.79Z"/><path class="cls-1" d="M389,433.71c1.66-.17,3.28-.41,4.92-.62a3.32,3.32,0,0,0-2.25-1.33A3,3,0,0,0,389,433.71Z"/><path class="cls-1" d="M497.8,90.1v0c-13.7,1-11.83-5.72-7.37-12-4.19.76-23.34,14.63-23.34,14.63,6.53-9.77,19.55-20,19.55-20-.49.08-1,.14-1.42.19-10.6,1-11.94-7.39-11-15.24-8.14,3.55-28.19,28.11-28.19,28.11,2.19-9.7,21.24-34.95,21.24-34.95a26.41,26.41,0,0,1-8.18,2.53c-8.08.8-8.71-6.49-7.34-13.94-12.54,8.68-30.06,37.68-30.06,37.68,6.72-20,21.36-41.74,21.36-41.74a17.24,17.24,0,0,1-6.5,2.26c-4.57.45-7.27-2.28-8.85-5.74-13.22,9.7-31,49.63-31,49.63,5-22.29,19.95-50,19.95-50-4,4.18-7.22,5.93-9.85,6.19-3.08.3-5.33-1.41-6.92-3.62-11.89,12.86-27,51-27,51C377,62.88,389,36.84,389,36.84c-4.55,5.4-8.2,7.57-11.11,7.85s-5-1.23-6.53-3.27C357.62,57.34,344.81,90,344.81,90,347.48,75.49,359,44.19,359,44.19c-3,3.21-5.14,4.57-6.71,4.73-2.06.2-3.08-1.67-3.54-4.17,0,0-20.55,34.1-23.84,49.68,0,0,6-30.17,16.88-52.19A14,14,0,0,1,339,39.77a3.4,3.4,0,0,1-1.24-1.63,21.68,21.68,0,0,1-3-7.53C322,54.09,306.69,96.24,306.69,96.24,313.31,60.48,334.05,18,334.05,18c-6.2-1,3.27-18,3.27-18-55.44,60.6-67.78,162.94-70,187.49a7.42,7.42,0,0,0-.14,1.6h0c-.15,1.74-.23,2.93-.27,3.47-2.39,12.26-19.94,22.64-25,41.55-6.94,26-12.9,35.82-26.29,52.15-11.73,14.32-114,125.28-137.22,155.64-1.45,1.9-.94,3.24.41,3.11a4.36,4.36,0,0,0,2.36-1.29c6.76-6.28,122.93-130.49,149.08-153.1,11.24-9.71,24.15-24,49.58-26.48a121.73,121.73,0,0,1,23.87.57S259.56,270.2,237.22,303c-2.32,3.41.88,4.73,4,1.94,13.86-12.36,25.34-8.8,38.46-9.7,9.09-.63,16.45-.2,28.26-4.68,2.9-1.06,5.08-1.9,6.68-2.54,7.51-4.33,15.19-10.3,18.31-17.72,8.36-19.87-7.84-41.58-7.84-41.58a62.54,62.54,0,0,0,22.35,2.06,41,41,0,0,0,16.32-5c-4.89,6.45-13.46,8.64-20.18,9.31a52.45,52.45,0,0,1-9.78.07s12.41,17.65,3.51,36.93a32.34,32.34,0,0,1-6.79,9.38c2.74,2.83,37.77,37.75,89.94,36.75,0,0-51.87-12.42-67.58-48.53,6.45-3.88,11.81-7.83,15.2-11.68,6.7,6.31,30.32,26.09,65.73,28.87,0,0-35.63-10-53.19-30.91a112.43,112.43,0,0,0,60.68,11.45q2.88-.28,5.83-.74s-42.06-1.74-63-21.24a52.3,52.3,0,0,1,14-3.22,81.21,81.21,0,0,1,40,6.72c21.8,9.94,30,33.92,21.78,46.56-6.06,9.37-19.14,16.6-17.51,18.37s7,2.47,9.87,4.35c-.2,2.92-4.95,8.72-18.28,11-.62.11-1.29.2-2,.27-9.21.91-24.27-1.3-41.36.4a95.26,95.26,0,0,0-28.24,7c-17.75,7.61-29.43,17.09-34.08,21.9l.28,0a15.7,15.7,0,0,0-2.41,2.88c-1,2-.7,4.24,2.46,2s13.27-9.71,37.11-16.6,62.57-2.49,78.39,5.62,44.78,34.91,53.73,54.43c7.57,16.51,10.13,32.57,10.95,35.88s2.79,3.76,2.84-.61.91-36.42-21.91-69.52c-19.25-27.91-25.35-40.6-18.2-46.63,0,0,13.08,6.45,13.48,4,.12-4.17-1.68-8.11-2.43-12.64h0a21.26,21.26,0,0,1,2.32-14.43c10.24-19.55,33.77-42.33,30-80.2-1.32-13.28-4.78-30.09-12.81-46.25,0,0,8.31-28.35,8.8-42.92S497.8,90.1,497.8,90.1Zm-185,63.61A171.68,171.68,0,0,1,339,135.41a139.25,139.25,0,0,1,54.49-16.86c20-2,38.56.28,51.88,5,1.31.46,2.59,1,3.85,1.49,10.44,5,24.63,14.91,37.66,34.06-4.44-5.61-20.18-23.88-42.8-31.92-12.88-4.58-30.83-6.77-50.19-4.85a135.37,135.37,0,0,0-53,16.41A170.16,170.16,0,0,0,292,180.58,112,112,0,0,1,312.8,153.71ZM286.87,233.9c-2.16,2.87-6.4,4.11-8.24,3.16a1.39,1.39,0,0,1-.34-.24,7,7,0,0,1-.22-1.16c.88-2.36,4-10.26,6.82-11.66C288.05,226.49,288.9,231.2,286.87,233.9ZM448.1,345.52c3.27-7.89,8.49-16.57,13.51-25.81h0c9.79-18,17.88-38,4.26-58C456.38,247.75,448,245.93,448,245.93a39.7,39.7,0,0,1,19.85,11.43C497.12,289.55,463.86,321.48,448.1,345.52Zm45.61-118.29c-18.39,1.82-66.66,4-113.89-16.43l-.1,0a3.48,3.48,0,0,0-1.74-.25c-4.07.41-8.56,6.81-8.56,6.81,5.11-13.38,11.71-18.62,17.56-19.21a11.39,11.39,0,0,1,5.55.86s35.76,21.63,108.94,27.27C501.47,226.26,498.68,226.73,493.71,227.23Zm-127-47.52c2.33-1.28,4.72-2.53,7.09-3.71l2.47,5c-4.31,2.22-6.77,3.81-6.77,3.81Zm19.9-9.43c2.5-1,5-1.93,7.53-2.77l1.78,5.26c-2.58.84-5,1.72-7.28,2.61Zm21.1-6.57c2.67-.59,5.35-1.07,8-1.45l.82,5.72c-.29.05-.6.11-.9.15-2.26.32-4.49.71-6.65,1.16Zm22.08,3.37.06-5.78,1,0c2.34.06,4.74.22,7.1.47l-.61,5.75c-2.21-.24-4.45-.38-6.65-.44Zm20.74,2.64,1.33-5c2.76.74,5.33,1.54,7.74,2.39l-1.68,4.62C455.52,171,453.06,170.33,450.5,169.72Zm20,7,2-3.77c2.42,1.33,4.7,2.74,6.88,4.23l-2,3.08C475.25,179,472.94,177.84,470.46,176.68Zm18.39,11,1.75-2a51.07,51.07,0,0,1,5.93,5.5l-1.65,1.6A63.39,63.39,0,0,0,488.85,187.71Zm20.67,18.81S491.57,149.14,416,151.8c-2.17.07-4.32.22-6.47.43-31,3.09-60.15,20-81.82,36.67-.44.31-.91.66-1.45,1.11l-.13.12c-2.42,1.89-4.75,3.77-7,5.63-10.79,8.48-24.45,18.36-28.84,21.53a.65.65,0,0,1-.29.11.61.61,0,0,1-.63-.78c5.77-18,19.52-31.23,24.39-35.51,0,0,0-.08.06-.12,22.6-18.48,55.57-39.09,93.3-42.84h0C489,130.05,509.51,206.48,509.52,206.52Z"/><path class="cls-1" d="M189.32,297.87a188.11,188.11,0,0,1-10-60.49c0-73.37,42-137.07,103.14-168.5,1.46-3.72,3-7.45,4.6-11.16C218.86,88.83,171.3,157.63,171.3,237.38a196.46,196.46,0,0,0,11.85,67.36Z"/><path class="cls-1" d="M518,108.51a106.4,106.4,0,0,1,4.51,18.68,188.73,188.73,0,0,1-19.78,243.66c1.51,2.39,2.94,4.77,4.24,7.14a196.8,196.8,0,0,0,11-269.48Z"/><path class="cls-1" d="M474.49,394.24a188.7,188.7,0,0,1-65.06,28,27.92,27.92,0,0,1,1.7,2.53c.89,1.5,1.73,3.09,2.59,4.72a196.67,196.67,0,0,0,65.82-29C478,398.41,476.29,396.32,474.49,394.24Z"/><path class="cls-1" d="M205,332.19l-5.86,6a198.86,198.86,0,0,0,47.37,54.09,23.73,23.73,0,0,1,4.13-.21,26.77,26.77,0,0,1,10.95,3.22l1.52-.91A191,191,0,0,1,205,332.19Z"/></svg>