<svg id="Layer_1" data-name="Layer 1" xmlns="http://www.w3.org/2000/svg" viewBox="0 0 864 352"><defs><style>.cls-1{fill:#fff;}</style></defs><title>logotype-white</title><path class="cls-1" d="M260.55,20.17l.1-.11-.42-.07A3.3,3.3,0,0,1,260.55,20.17Z"/><path class="cls-1" d="M321.75,47.81l0,.32A9.93,9.93,0,0,1,330.41,54c.08.19.16.38.23.58a9.9,9.9,0,0,1,3.5,7.73,9.88,9.88,0,0,1,4.1,3.68,8.6,8.6,0,0,1,.47.84c.05.09.09.17.13.26.58,1.26,1.89,4.14,3.4,7.89a155,155,0,0,1-2.56,219.31,104.4,104.4,0,0,1,4.48,10.61A165.71,165.71,0,0,0,321.51,44.16,9.72,9.72,0,0,1,321.75,47.81Z"/><path class="cls-1" d="M214.14,20.73a9.84,9.84,0,0,1,1.3,3.19,7.19,7.19,0,0,0,.84,2.34l.08.11a.27.27,0,0,0,.07.08.87.87,0,0,0,.17.16,3.27,3.27,0,0,1,.36.25,9.74,9.74,0,0,1,1.21.14,10.88,10.88,0,0,1,1.63.45,9.94,9.94,0,0,1,7.21-.62,9.91,9.91,0,0,1,11.37-1.29c.31-.33.66-.72,1.05-1.18A9.92,9.92,0,0,1,249,21a9.86,9.86,0,0,1,4.36-2.08,167.12,167.12,0,0,0-21.93-1.45c-5.55,0-11,.28-16.44.81A9.69,9.69,0,0,1,214.14,20.73Z"/><path class="cls-1" d="M78.73,246.44l7.54-8.36A155.13,155.13,0,0,1,171.52,40.3c2.27-4.83,4.72-9.62,7.38-14.31C113.06,48,65.48,110.23,65.48,183.38A164.82,164.82,0,0,0,78.19,247Z"/><path class="cls-1" d="M320.8,316.73a39.58,39.58,0,0,0-2.69-4.79A155.12,155.12,0,0,1,99.23,264.52l-7.73,8a165.69,165.69,0,0,0,231.37,49.19C322.25,320.06,321.56,318.4,320.8,316.73Z"/><path class="cls-1" d="M715.84,179.59c-9.79,0-16.83,6.36-18,16.14h35.21C732.56,185.85,725.91,179.59,715.84,179.59Z"/><path class="cls-1" d="M620,179.49c0-10.37-7-15.65-19.47-15.65l-3.53-.1-9.74,15.6,16.63-7.28-16.77,23.66,13.41-.09C612.93,195.63,620,190.15,620,179.49Z"/><path class="cls-1" d="M658.32,179.59c-9.78,0-16.82,6.36-18,16.14h35.22C675.05,185.85,668.4,179.59,658.32,179.59Z"/><path class="cls-1" d="M834.37,96.47H359.59A155.86,155.86,0,0,1,348.36,285h486A24.45,24.45,0,0,0,859,260.73v-140A24.44,24.44,0,0,0,834.37,96.47Zm-385.68,129H427.63V156.27h21.06Zm52.18,0-9.42-18.65H480.31v18.65H459.25V156.27h33.11c19,0,30,8.89,30,24.58,0,10.26-4.25,17.76-12,22l14.38,22.6Zm25.76-52.8V156.27h57.14L599.93,131h7.31l-16.13,25.29h0l-10.5,16.38H568.35v28.23l8.56-5.59-46.75,64.32,17-29.21V172.65Zm92.65,52.13L605.1,203c-1.47.09-3,.19-4.6.19H581.83l-40,56.46,51.08-78.29-16.14,7.07L612.6,131h4.82l-15.83,25.36c16.44.36,25.91,8.7,25.91,22.95,0,11.35-5.48,19-15.36,22.21l16,23.28ZM682.39,202H640.32c1.37,10.07,8.71,16.43,18.69,16.43A21.49,21.49,0,0,0,675,212l4.21,4.5c-4.89,5.48-12.13,8.61-20.74,8.61-15.16,0-25.63-10.66-25.63-26s10.57-26,25.53-26C675,172.94,683.17,184.48,682.39,202Zm57.51,0H697.84c1.37,10.07,8.7,16.43,18.68,16.43A21.49,21.49,0,0,0,732.46,212l4.21,4.5c-4.89,5.48-12.13,8.61-20.74,8.61-15.16,0-25.63-10.66-25.63-26s10.57-26,25.54-26C732.46,172.94,740.68,184.48,739.9,202Zm19.17,22.79h-7.63V152.2h7.63Zm32,.29c-7.33,0-14.86-2.54-19.75-7.24l2.93-5.77a26.08,26.08,0,0,0,17.12,6.55c6.06,0,11-2.25,11-7.33.3-12.42-28.56-6.06-28.46-24.36,0-9.88,8.51-14,17.9-14a29.81,29.81,0,0,1,16.43,4.69l-2.93,6.06a27.27,27.27,0,0,0-14-4.2c-5.77,0-10.17,2-10.17,6.85,0,11.44,28.75,5.57,28.75,24.06C809.93,220.57,800.93,225.07,791.05,225.07Z"/><path class="cls-1" d="M492.36,172.06H480.31V191h12.05c6.28,0,9.92-3.36,9.92-9.57C502.28,175.42,498.64,172.06,492.36,172.06Z"/><path class="cls-1" d="M329.83,71.29v0c-10.42.75-9-4.35-5.61-9.11-3.19.58-17.76,11.14-17.76,11.14,5-7.44,14.88-15.25,14.88-15.25l-1.09.15c-8.06.8-9.08-5.63-8.34-11.6C305.71,49.3,290.44,68,290.44,68c1.67-7.38,16.17-26.6,16.17-26.6a20.23,20.23,0,0,1-6.22,1.93c-6.15.61-6.63-4.94-5.59-10.61-9.55,6.6-22.88,28.67-22.88,28.67,5.12-15.25,16.25-31.77,16.25-31.77a13.14,13.14,0,0,1-4.94,1.73c-3.48.34-5.53-1.74-6.73-4.37-10.07,7.38-23.59,37.77-23.59,37.77,3.84-17,15.18-38.08,15.18-38.08-3,3.18-5.49,4.51-7.5,4.71a5.73,5.73,0,0,1-5.26-2.75c-9.05,9.78-20.57,38.84-20.57,38.84C237.87,50.57,247,30.76,247,30.76c-3.46,4.11-6.24,5.76-8.45,6a5.49,5.49,0,0,1-5-2.49c-10.46,12.11-20.22,37-20.22,37,2-11.07,10.81-34.88,10.81-34.88-2.27,2.44-3.92,3.47-5.11,3.59-1.57.16-2.35-1.27-2.7-3.17,0,0-15.63,25.95-18.14,37.81,0,0,4.55-23,12.84-39.72A10.73,10.73,0,0,1,209,33a2.65,2.65,0,0,1-.94-1.24A16.67,16.67,0,0,1,205.73,26C196,43.89,184.38,76,184.38,76c5-27.21,20.83-59.57,20.83-59.57-4.72-.75,2.48-13.67,2.48-13.67-42.19,46.13-51.58,124-53.27,142.69a6.29,6.29,0,0,0-.1,1.22h0c-.11,1.33-.18,2.23-.2,2.64-1.82,9.33-15.18,17.23-19,31.62-5.28,19.81-9.83,27.26-20,39.69C106.17,231.48,28.37,315.93,10.66,339c-1.1,1.45-.71,2.47.32,2.37a3.35,3.35,0,0,0,1.79-1c5.14-4.78,93.56-99.31,113.46-116.52,8.56-7.39,18.38-18.23,37.73-20.15a92.46,92.46,0,0,1,18.17.43s-33.61,4.18-50.62,29.17c-1.76,2.6.67,3.61,3.06,1.48,10.55-9.4,19.28-6.7,29.27-7.38,6.92-.48,12.52-.15,21.51-3.57,2.21-.8,3.87-1.44,5.09-1.93,5.71-3.29,11.55-7.83,13.93-13.48,6.36-15.13-6-31.65-6-31.65a47.73,47.73,0,0,0,17,1.57,31.25,31.25,0,0,0,12.42-3.77c-3.72,4.9-10.24,6.57-15.36,7.08a39.8,39.8,0,0,1-7.44.05s9.44,13.43,2.67,28.11a24.56,24.56,0,0,1-5.17,7.14c2.09,2.15,28.75,28.73,68.45,28,0,0-39.48-9.46-51.43-36.93,4.91-3,9-6,11.57-8.9a84.91,84.91,0,0,0,50,22s-27.11-7.63-40.48-23.52a85.54,85.54,0,0,0,46.18,8.72q2.19-.23,4.44-.57s-32-1.32-48-16.16a40,40,0,0,1,10.64-2.46,61.94,61.94,0,0,1,30.41,5.12c16.6,7.56,22.8,25.82,16.58,35.44-4.61,7.13-14.57,12.63-13.33,14s5.33,1.88,7.52,3.31c-.15,2.22-3.77,6.63-13.91,8.38-.48.08-1,.15-1.52.2-7,.7-18.47-1-31.47.31a72,72,0,0,0-21.5,5.33c-13.51,5.78-22.4,13-25.93,16.66l.21,0a12.23,12.23,0,0,0-1.84,2.19c-.78,1.51-.53,3.22,1.88,1.51s10.09-7.4,28.24-12.64,47.62-1.9,59.66,4.28,34.08,26.57,40.89,41.42c5.76,12.57,7.71,24.79,8.33,27.31s2.13,2.86,2.17-.46.69-27.72-16.68-52.91C309,265.29,304.36,255.63,309.8,251c0,0,9.95,4.91,10.26,3,.09-3.17-1.28-6.17-1.85-9.61h0a16.22,16.22,0,0,1,1.76-11c7.8-14.87,25.71-32.21,22.85-61a103,103,0,0,0-9.75-35.2s6.32-21.58,6.7-32.67S329.83,71.29,329.83,71.29ZM189,119.71A130.76,130.76,0,0,1,209,105.77a106.15,106.15,0,0,1,41.47-12.83c15.22-1.51,29.34.22,39.48,3.82,1,.36,2,.74,2.93,1.14,7.95,3.83,18.75,11.34,28.67,25.92-3.38-4.27-15.37-18.18-32.58-24.29-9.8-3.49-23.46-5.15-38.19-3.69a103,103,0,0,0-40.34,12.49,129.21,129.21,0,0,0-37.22,31.82A85.33,85.33,0,0,1,189,119.71Zm-19.73,61c-1.65,2.18-4.87,3.12-6.27,2.4a1.32,1.32,0,0,1-.26-.18,5.29,5.29,0,0,1-.17-.88c.67-1.8,3.06-7.82,5.19-8.88C170.19,175.1,170.85,178.68,169.3,180.74ZM292,265.68c2.48-6,6.46-12.61,10.27-19.64h0c7.46-13.7,13.61-29,3.25-44.17-7.22-10.6-13.6-12-13.6-12A30.18,30.18,0,0,1,307,198.58C329.31,223.08,304,247.38,292,265.68Zm34.71-90c-14,1.39-50.73,3-86.68-12.5H240a2.6,2.6,0,0,0-1.32-.19c-3.1.31-6.51,5.18-6.51,5.18C236,158,241,154,245.49,153.51a8.8,8.8,0,0,1,4.22.65s27.22,16.46,82.91,20.76C332.62,174.92,330.5,175.28,326.72,175.65ZM230,139.49c1.77-1,3.59-1.92,5.4-2.82l1.87,3.78c-3.27,1.68-5.15,2.89-5.15,2.89Zm15.14-7.18c1.91-.76,3.84-1.47,5.74-2.11l1.35,4c-2,.64-3.81,1.31-5.54,2Zm16.06-5c2-.45,4.07-.82,6.06-1.11l.63,4.36-.69.11c-1.72.24-3.42.54-5.06.88Zm16.8,2.56.06-4.4.77,0c1.79,0,3.61.16,5.41.35l-.46,4.38c-1.68-.18-3.39-.29-5.07-.34Zm15.79,2,1-3.78c2.1.57,4,1.18,5.88,1.82l-1.28,3.52Q296.75,132.58,293.83,131.89ZM309,137.18l1.55-2.87c1.84,1,3.57,2.1,5.23,3.22l-1.51,2.35Q311.86,138.51,309,137.18Zm14,8.4,1.33-1.55a39.23,39.23,0,0,1,4.51,4.19l-1.25,1.22A48.33,48.33,0,0,0,323,145.58Zm15.73,14.32s-13.66-43.68-71.18-41.65c-1.64.06-3.29.17-4.92.33-23.63,2.35-45.78,15.21-62.27,27.91-.34.23-.69.5-1.1.84l-.1.09c-1.85,1.44-3.61,2.87-5.3,4.29-8.21,6.45-18.6,14-21.95,16.38a.37.37,0,0,1-.22.08.46.46,0,0,1-.48-.59c4.39-13.66,14.85-23.76,18.56-27,0,0,0-.05.05-.08,17.2-14.07,42.29-29.76,71-32.61h0C323.15,101.7,338.74,159.87,338.75,159.9Z"/></svg>