<svg id="Layer_1" data-name="Layer 1" xmlns="http://www.w3.org/2000/svg" viewBox="0 0 750 500"><defs><style>.cls-1{fill:#fff;}.cls-2{fill:#faac18;}.cls-3{fill:#0b476b;}.cls-4{fill:#3d8dbc;}</style></defs><title>logotype--colored</title><path class="cls-1" d="M241.23,316.57a12,12,0,0,0,2.73.32,12.14,12.14,0,0,0,6.73-2.06l1.48-1c1.55-1,3.46-2.22,5.3-3.63a9.8,9.8,0,0,0-5.13-17.55c-16.51-1.4-33.1-10.13-39.45-13.81a9.66,9.66,0,0,0-12.09,14.75C215.57,310.28,240.17,316.32,241.23,316.57Z"/><path class="cls-1" d="M102.1,293.73c8.57-10.46,13.14-17.4,18.05-35.79,1.78-6.69,6-11.85,9.78-16.41,3-3.61,5.77-7,6.87-10.61l.3-1,.21-3a3.84,3.84,0,0,1,.06-.55l.06-.51c1.21-13.27,5.54-47.75,19.59-81.35l9.06-21.66-21.29,9.89A140.23,140.23,0,0,0,71.93,307.49l5.17,14.3,10.16-11.3C96.11,300.65,100.41,295.79,102.1,293.73Z"/><path class="cls-1" d="M256.77,337.23h0c-11-5.65-37.53-8.64-54-3.89-16,4.61-23,9.65-25.5,11.42l-.19.13a1,1,0,0,1,.07-.15,5.21,5.21,0,0,1,.59-.76l.67-.91c3.7-3.83,11.88-9.95,22.78-14.63a59.12,59.12,0,0,1,8.08-2.77l27.27-7.19-26.34-10.11a92.19,92.19,0,0,1-27.46-16.62L177.41,287l-5.88,4.1c-1.12.78-2.33,1.55-3.46,2.21-1.08.43-2.54,1-4.63,1.76-6.38,2.42-10.68,2.64-15.65,2.89-1,.05-2,.1-3.11.18-1.92.13-3.73.12-5.65.11-6.91,0-13.43-.08-21.08,6.73a4.62,4.62,0,0,1-1.51.85l-5.52-11.32-9,8.79c-4.48,4.37-10.27,10.18-17.22,17.29l-4.91,5,3.6,6A140.92,140.92,0,0,0,203.78,400a139.36,139.36,0,0,0,79.66-24.86l8.16-5.65-6.33-7.64C277,351.93,264.77,341.33,256.77,337.23Z"/><path class="cls-1" d="M141.37,260.1l3.92-5.37,7.57,5,6.89-8.71-15.51-11.37-5.26,8c-.44.66-.88,1.39-1.29,2.16l7.26,4.76-4.51,4.83Z"/><path class="cls-1" d="M720,173.29H314l-22.44-30,6.18,30h-.6l2,10.73a27.27,27.27,0,0,1,.54,5.57c-.17,5.3-2,15-5,26.1l-.81,3.07,1.26,2.9a96,96,0,0,1,7.15,28.54c1.86,19.49-6.83,33.22-13.86,44.31-2.14,3.38-4.16,6.58-5.73,9.67a15.74,15.74,0,0,0-1.61,10.26c.18,1.08.46,2.23.77,3.45a21,21,0,0,1,.82,4.4l-14.16.39,7.19,13.08.07.11c2.23,4.17,5.63,9.7,10.14,16.46.64,1,1.23,1.92,1.81,2.88l2.66,4.37h.42l4.34,7.18,7.11-7.18H720c16.54,0,30-13.78,30-30.72V204C750,187.07,736.55,173.29,720,173.29Z"/><ellipse class="cls-1" cx="203.82" cy="259.45" rx="131.01" ry="131.49"/><path class="cls-2" d="M252,303c-2.2,1.68-4.76,3.21-6.35,4.28a2.86,2.86,0,0,1-2.27.43c-5.55-1.32-24.6-7.58-35.71-20.12a.55.55,0,0,1,.69-.85c6.72,3.89,24.84,13.44,43.26,15A.7.7,0,0,1,252,303Z"/><path class="cls-2" d="M308.75,181.42a37.55,37.55,0,0,1,.91,8.47c-.29,8.41-3.75,22-5.46,28.13a102,102,0,0,1,8.14,31.31c2.25,22.6-8.14,38.43-15.73,50-2.1,3.21-4.09,6.24-5.52,9a6.54,6.54,0,0,0-.77,4.69c.14.83.37,1.7.62,2.63a25.43,25.43,0,0,1,1.14,7.55,7.6,7.6,0,0,1-.1,1.06,8.47,8.47,0,0,1-4.48,6.15,8.57,8.57,0,0,1-3.79,1c1.92,3.49,5.09,8.57,10.16,15.92,1.09,1.59,2.1,3.18,3.05,4.76a131,131,0,0,0,11.83-170.63Z"/><path class="cls-2" d="M95.06,288c8.07-9.85,11.8-15.53,16.29-32.37,2.3-8.6,7.43-14.84,11.55-19.85,2.28-2.76,4.63-5.62,5.19-7.47,0-.38.07-.87.12-1.46a12.81,12.81,0,0,1,.15-1.77c1.26-13.81,5.77-49.37,20.26-84A131.16,131.16,0,0,0,80.49,304.4C87.73,296.36,93.25,290.17,95.06,288Z"/><path class="cls-2" d="M252.62,345.33c-9.29-4.77-33.42-7.25-47.29-3.24-14.45,4.17-20.56,8.53-22.57,10l-.18.13c-4.78,3.4-9.21,2.24-11.76,0-3.19-2.78-3.89-7.46-1.72-11.64a12.27,12.27,0,0,1,1.81-2.57,8.44,8.44,0,0,1,1-1.26c4.5-4.65,13.62-11.47,25.74-16.66a68.08,68.08,0,0,1,9.34-3.21,101.42,101.42,0,0,1-30.24-18.31q-2,1.38-4.26,2.69a6.53,6.53,0,0,1-1,.5c-1.14.46-2.7,1.06-4.77,1.82A53.79,53.79,0,0,1,148.24,307c-1,0-1.93.1-2.94.17-2.25.15-4.32.14-6.31.13-6.2,0-9.94-.06-15,4.43-4.2,3.74-9.93,4.08-13.65.82a8.91,8.91,0,0,1-2.1-2.78c-4.72,4.6-10.59,10.51-17.08,17.13A131,131,0,0,0,278.25,367.7C270.41,358.23,259.15,348.68,252.62,345.33Z"/><path class="cls-2" d="M146.74,252.75l-.17-.14c-.29.44-.58.93-.85,1.43Z"/><path class="cls-3" d="M720,182.39H308.08a35.7,35.7,0,0,1,.69,7.5c-.27,8.46-3.64,22-5.26,28.14a104.76,104.76,0,0,1,7.86,31.3c2.17,22.6-7.87,38.43-15.19,50-2,3.21-4,6.24-5.34,9a6.78,6.78,0,0,0-.75,4.69c.14.82.36,1.7.6,2.63a26.52,26.52,0,0,1,1.11,7.55,8.9,8.9,0,0,1-.1,1,8.49,8.49,0,0,1-4.32,6.16,8.13,8.13,0,0,1-3.67,1c1.86,3.49,4.91,8.57,9.81,15.92.71,1.06,1.36,2.12,2,3.18H720c11.54,0,20.89-9.67,20.89-21.61V204C740.9,192.07,731.55,182.39,720,182.39Z"/><path class="cls-2" d="M356.32,297.4V235.72H375.1V297.4Z"/><path class="cls-2" d="M413.22,280.77h-9.93V297.4H384.51V235.72H414c17,0,26.73,7.92,26.73,21.91,0,9.15-3.79,15.83-10.66,19.62l12.83,20.15H421.62Zm.81-14.08c5.6,0,8.85-3,8.85-8.53,0-5.37-3.25-8.37-8.85-8.37H403.29v16.9Z"/><path class="cls-2" d="M481.79,250.32V277l-18.87,26.48V250.32H444.6v-14.6h57.49l-9.37,14.6Z"/><path class="cls-4" d="M498.12,270.9l12.34-.09c11.08,0,17.36-4.89,17.36-14.39,0-9.25-6.28-14-17.36-14l-7.31-.21,1.62-1.75,3.16-4.75h2.53c15.26,0,24.07,7.5,24.07,20.49,0,10.12-4.88,16.92-13.69,19.8l14.3,20.76H527.2l-12.64-19.45c-1.31.09-2.7.17-4.1.17H493.25Z"/><path class="cls-4" d="M583.47,276.48H546c1.22,9,7.76,14.65,16.65,14.65a19.2,19.2,0,0,0,14.22-5.76l3.75,4c-4.36,4.88-10.81,7.67-18.49,7.67-13.52,0-22.85-9.5-22.85-23.2s9.42-23.2,22.76-23.2C576.84,250.58,584.17,260.87,583.47,276.48Zm-6.11-5.58c-.43-8.81-6.36-14.39-15.35-14.39-8.72,0-15,5.66-16,14.39Z"/><path class="cls-4" d="M634.75,276.48h-37.5c1.22,9,7.76,14.65,16.65,14.65a19.2,19.2,0,0,0,14.22-5.76l3.75,4c-4.36,4.88-10.82,7.67-18.49,7.67-13.52,0-22.85-9.5-22.85-23.2s9.42-23.2,22.76-23.2C628.12,250.58,635.45,260.87,634.75,276.48Zm-6.11-5.58c-.43-8.81-6.36-14.39-15.35-14.39-8.72,0-15,5.66-16,14.39Z"/><path class="cls-4" d="M645,296.8V232.09h6.8V296.8Z"/><path class="cls-4" d="M695.71,254.76l-2.61,5.41a24.27,24.27,0,0,0-12.48-3.75c-5.14,0-9.07,1.83-9.07,6.1,0,10.21,25.65,5,25.65,21.46,0,9.07-8,13.08-16.84,13.08-6.54,0-13.25-2.27-17.62-6.45l2.62-5.15a23.3,23.3,0,0,0,15.26,5.84c5.41,0,9.77-2,9.86-6.54.26-11.07-25.47-5.4-25.38-21.71,0-8.81,7.59-12.47,16-12.47A26.52,26.52,0,0,1,695.71,254.76Z"/><polygon class="cls-2" points="469.94 289.78 447.74 327.86 489.43 270.5 464.8 286.59 467.79 291.18 469.94 289.78"/><polygon class="cls-2" points="509.94 213.17 487.15 248.86 489.43 250.32 502.09 235.72 516.46 213.17 509.94 213.17"/><polygon class="cls-4" points="525.54 213.17 521.24 213.17 489.29 264.35 503.69 258.05 458.14 327.86 513.45 249.79 498.63 256.28 525.54 213.17"/><path class="cls-1" d="M282.93,330.89a8,8,0,0,0,4.36-.94,7.9,7.9,0,0,0,4.23-5.81,6.64,6.64,0,0,0,.1-1,25.07,25.07,0,0,0-1.13-7.42,26.86,26.86,0,0,1-.63-2.67,7,7,0,0,1,.82-5c1.44-2.73,3.43-5.77,5.55-9,7.54-11.5,17.88-27.26,15.65-49.69a101.38,101.38,0,0,0-8.17-31.32c1.68-6.07,5.2-19.74,5.48-28.19.38-11.13-7.9-29.54-9.56-33.12l-.09-.2c-.07-.13-.14-.26-.22-.39a7.55,7.55,0,0,0-4.06-3.39,7.52,7.52,0,0,0-1.11-5,7.74,7.74,0,0,0-1.76-1.93c-.08-.24-.17-.48-.27-.71a7.59,7.59,0,0,0-7.95-4.48,14.73,14.73,0,0,1,.12-1.77,7.59,7.59,0,0,0-3-7,7.36,7.36,0,0,0-2.11-1.11,7.78,7.78,0,0,0-1.23-2.21,7.6,7.6,0,0,0-8.9-2.22,7.58,7.58,0,0,0-3.43-7.14,6.72,6.72,0,0,0-4.17-1.21l-.25-.3a7.59,7.59,0,0,0-9.26-1.52l-.37.19a7.62,7.62,0,0,0-4.47-3.25,7.51,7.51,0,0,0-5.41.62,7.57,7.57,0,0,0-9.49,1.22c-.43.45-.8.8-1.11,1.08a7.58,7.58,0,0,0-10.11.5,7.6,7.6,0,0,0-7.87,2.42,21.14,21.14,0,0,1-1.73,1.84,7.57,7.57,0,0,0-10,1,7.58,7.58,0,0,0-6.68.49,7.41,7.41,0,0,0-1.75-.54,8.3,8.3,0,0,0-1.3-.13,6.51,6.51,0,0,0-.6-.43,2.05,2.05,0,0,1-.38-.34l-.14-.15-.09-.16a7.19,7.19,0,0,1-.94-2.52,7.57,7.57,0,0,0-1.38-3l.31-.66a7.59,7.59,0,0,0-.09-6.84l-.09-.17a36.2,36.2,0,0,1,2.21-4.81,7.59,7.59,0,0,0-12.23-8.82c-38.52,42.12-47.55,110.89-49.43,131.41a14.11,14.11,0,0,0-.15,1.75c0,.62-.09,1.12-.12,1.51-.57,2-3,4.87-5.29,7.69-4.09,5-9.19,11.16-11.46,19.68-4.51,16.91-8.26,22.63-16.38,32.53-2.66,3.25-13.28,15-25.58,28.67-24.15,26.79-57.22,63.47-67.69,77.14a9.15,9.15,0,0,0-1.1,10.09,8.31,8.31,0,0,0,8.13,4.18,10.34,10.34,0,0,0,6-2.86c1.44-1.34,7.46-7.66,19.83-20.68C56.79,361.92,90.92,326,108.41,309a8.41,8.41,0,0,0,2.26,3.23c3.6,3.15,9,2.82,13-.82,5.17-4.61,9.2-4.61,15.29-4.54,2,0,4,0,6.28-.13,1-.07,2-.12,2.94-.17,5.23-.27,10.65-.54,18.3-3.45,2.07-.75,3.63-1.35,4.77-1.81a6.68,6.68,0,0,0,1-.47q2.43-1.39,4.52-2.88a100.63,100.63,0,0,0,31.76,19,66.45,66.45,0,0,0-10.7,3.55c-12.06,5.16-21.13,11.94-25.59,16.56a6.53,6.53,0,0,0-.93,1.18,12.16,12.16,0,0,0-1.8,2.53c-2.06,4-1.41,8.44,1.62,11.07,2.41,2.1,6.62,3.19,11.36-.18,2-1.44,8.18-5.84,22.71-10,14-4,38.27-1.53,47.63,3.27,9.16,4.71,27.6,21.52,33,33.35a97.93,97.93,0,0,1,6.55,21.14c.17.83.3,1.46.4,1.86,1.3,5.28,5.07,7.52,8.52,7.52a9.08,9.08,0,0,0,.91,0c3.39-.39,7.38-3.14,7.46-9.76a90.46,90.46,0,0,0-16.22-51.42A185.06,185.06,0,0,1,282.93,330.89ZM248.1,314.8l-.24,0a7.75,7.75,0,0,0,0-.84c.09.27.18.53.3.8Zm-.66-3.73a7.52,7.52,0,0,0,0,1.34,7.56,7.56,0,0,0-5.41-5c-.29-.07-26.09-6.51-37.61-23.11l.44-.33a83.72,83.72,0,0,0,43.86,17.11,7.59,7.59,0,0,0,5.72-13.16l.69-.06c1.44-.14,2.9-.33,4.38-.56a7.26,7.26,0,0,0,1.16-.27c.08.24.16.49.23.73.88,3,.76,5.82-.32,7.48-1.59,2.47-4.71,5.07-7,7C250.31,305,247.7,307.17,247.44,311.07ZM146.82,252.64,145.76,254c.27-.5.55-1,.84-1.41Z"/><path class="cls-3" d="M292.75,160v0c-9.29.66-8-3.88-5-8.12-2.84.51-15.84,9.92-15.84,9.92,4.44-6.63,13.27-13.59,13.27-13.59-.33.05-.65.1-1,.13-7.2.71-8.11-5-7.45-10.34-5.52,2.4-19.13,19.07-19.13,19.07,1.49-6.58,14.42-23.71,14.42-23.71A18.08,18.08,0,0,1,266.5,135c-5.48.55-5.91-4.4-5-9.46-8.51,5.89-20.39,25.57-20.39,25.57,4.56-13.6,14.49-28.33,14.49-28.33a11.6,11.6,0,0,1-4.41,1.54c-3.1.31-4.93-1.55-6-3.9-9,6.59-21,33.68-21,33.68,3.42-15.12,13.54-33.95,13.54-33.95-2.7,2.84-4.9,4-6.69,4.2a5.09,5.09,0,0,1-4.69-2.46c-8.07,8.73-18.35,34.64-18.35,34.64,2.78-15.06,10.94-32.73,10.94-32.73-3.08,3.67-5.56,5.14-7.53,5.33a4.87,4.87,0,0,1-4.43-2.21c-9.33,10.79-18,33-18,33,1.81-9.87,9.63-31.11,9.63-31.11-2,2.18-3.49,3.11-4.55,3.21-1.4.14-2.09-1.13-2.4-2.83,0,0-14,23.14-16.18,33.71,0,0,4.06-20.47,11.45-35.41a9.63,9.63,0,0,1-1.91-1.68,2.35,2.35,0,0,1-.84-1.1,15.08,15.08,0,0,1-2-5.11c-8.66,15.93-19,44.53-19,44.53,4.49-24.26,18.56-53.12,18.56-53.12-4.2-.66,2.22-12.18,2.22-12.18-37.62,41.12-46,110.57-47.5,127.22a5.62,5.62,0,0,0-.09,1.09h0c-.1,1.18-.16,2-.18,2.35-1.62,8.32-13.53,15.37-17,28.2-4.71,17.66-8.76,24.3-17.84,35.39-8,9.72-77.33,85-93.12,105.61-1,1.29-.63,2.2.28,2.11a3,3,0,0,0,1.6-.87c4.59-4.26,83.42-88.55,101.17-103.89,7.62-6.59,16.38-16.26,33.64-18a81.43,81.43,0,0,1,16.19.39s-30,3.72-45.12,26c-1.58,2.32.59,3.22,2.72,1.32,9.41-8.38,17.2-6,26.1-6.58,6.17-.43,11.16-.14,19.18-3.18,2-.71,3.45-1.28,4.53-1.72,5.09-2.94,10.31-7,12.43-12,5.67-13.49-5.32-28.22-5.32-28.22a42.44,42.44,0,0,0,15.16,1.39,27.73,27.73,0,0,0,11.08-3.36c-3.32,4.38-9.14,5.86-13.7,6.32a34.75,34.75,0,0,1-6.63,0s8.42,12,2.38,25.07a22.08,22.08,0,0,1-4.61,6.36c1.86,1.92,25.63,25.62,61,24.94,0,0-35.2-8.43-45.86-32.93a44.86,44.86,0,0,0,10.31-7.93,75.72,75.72,0,0,0,44.61,19.59s-24.17-6.8-36.09-21a76.29,76.29,0,0,0,41.17,7.77c1.31-.13,2.62-.3,4-.51,0,0-28.54-1.17-42.78-14.41a36.05,36.05,0,0,1,9.49-2.19,55.16,55.16,0,0,1,27.11,4.57c14.8,6.74,20.33,23,14.78,31.59-4.11,6.36-13,11.27-11.88,12.47s4.75,1.68,6.7,2.95c-.13,2-3.36,5.92-12.4,7.47q-.65.12-1.35.18c-6.26.62-16.47-.87-28.07.28a64,64,0,0,0-19.17,4.75c-12,5.16-20,11.59-23.12,14.86l.19,0a10.35,10.35,0,0,0-1.63,1.95c-.7,1.35-.48,2.88,1.67,1.35s9-6.6,25.18-11.27,42.46-1.69,53.19,3.82,30.39,23.68,36.46,36.93c5.14,11.21,6.88,22.1,7.43,24.35s1.9,2.55,1.93-.41.62-24.72-14.87-47.18c-13.06-18.94-17.2-27.55-12.35-31.65,0,0,8.87,4.38,9.15,2.71.08-2.83-1.14-5.5-1.65-8.57h0a14.49,14.49,0,0,1,1.57-9.8c7-13.26,22.92-28.72,20.37-54.42a91.6,91.6,0,0,0-8.69-31.39s5.64-19.23,6-29.12S292.75,160,292.75,160ZM167.21,203.11A117.18,117.18,0,0,1,185,190.69a94.53,94.53,0,0,1,37-11.44c13.58-1.35,26.17.19,35.21,3.41.89.31,1.75.66,2.61,1,7.08,3.42,16.72,10.12,25.56,23.12-3-3.81-13.7-16.21-29.05-21.67-8.74-3.1-20.92-4.59-34.05-3.29a91.7,91.7,0,0,0-36,11.14,115.31,115.31,0,0,0-33.2,28.38A76.19,76.19,0,0,1,167.21,203.11Zm-17.6,54.42c-1.46,2-4.34,2.79-5.59,2.14a.89.89,0,0,1-.22-.16,5.24,5.24,0,0,1-.16-.79c.6-1.6,2.73-7,4.63-7.91C150.42,252.5,151,255.69,149.61,257.53ZM259,333.27c2.21-5.35,5.76-11.24,9.16-17.51h0c6.65-12.22,12.13-25.82,2.89-39.39-6.43-9.45-12.12-10.68-12.12-10.68a26.86,26.86,0,0,1,13.47,7.75C292.29,295.29,269.72,317,259,333.27ZM290,253c-12.48,1.24-45.24,2.68-77.29-11.15h-.07a2.38,2.38,0,0,0-1.18-.17c-2.76.27-5.8,4.62-5.8,4.62,3.46-9.08,7.94-12.64,11.91-13a7.71,7.71,0,0,1,3.77.58s24.26,14.67,73.92,18.5C295.24,252.34,293.35,252.66,290,253Zm-86.2-32.25c1.58-.87,3.2-1.71,4.81-2.52l1.67,3.37c-2.92,1.51-4.59,2.59-4.59,2.59Zm13.5-6.4c1.7-.67,3.42-1.31,5.11-1.88l1.2,3.57c-1.74.57-3.39,1.17-4.94,1.78Zm14.32-4.45c1.81-.4,3.63-.73,5.4-1l.56,3.89-.61.1c-1.54.22-3,.48-4.52.78Zm15,2.29,0-3.93.7,0c1.59,0,3.22.14,4.82.31l-.41,3.9c-1.5-.15-3-.25-4.52-.29ZM260.65,214l.91-3.37c1.87.5,3.61,1,5.25,1.62l-1.14,3.13Q263.26,214.59,260.65,214Zm13.55,4.72,1.38-2.56c1.64.91,3.18,1.86,4.66,2.87l-1.34,2.09C277.45,220.29,275.88,219.48,274.2,218.7Zm12.48,7.48,1.19-1.37a34.88,34.88,0,0,1,4,3.73l-1.12,1.08A45,45,0,0,0,286.68,226.18Zm14,12.77S288.52,200,237.24,201.81c-1.47.05-2.93.15-4.39.3C211.78,204.2,192,215.67,177.33,227a12.09,12.09,0,0,0-1,.76l-.09.07c-1.65,1.29-3.22,2.57-4.73,3.83-7.31,5.75-16.58,12.46-19.57,14.6a.39.39,0,0,1-.19.08.41.41,0,0,1-.43-.53c3.91-12.18,13.24-21.19,16.55-24.1,0,0,0,0,0-.07,15.34-12.55,37.71-26.54,63.31-29.08h0C286.79,187.06,300.7,238.92,300.7,239Z"/></svg>