<svg id="Layer_1" data-name="Layer 1" xmlns="http://www.w3.org/2000/svg" viewBox="0 0 1150 750"><defs><style>.cls-1{fill:#231f20;}.cls-2{fill:#fff;}.cls-3{fill:#faac18;}.cls-4{fill:#0b476b;}.cls-5{fill:#3d8dbc;}</style></defs><title>logotype--colored--bg-black</title><rect class="cls-1" x="-5" y="-5" width="1166" height="755"/><path class="cls-2" d="M409,329.66a15.16,15.16,0,0,0,3.47.41,15.4,15.4,0,0,0,8.54-2.61c.54-.37,1.19-.78,1.89-1.23,1.95-1.26,4.38-2.82,6.71-4.6a12.43,12.43,0,0,0-6.5-22.28c-21-1.77-42-12.85-50.05-17.52a12.26,12.26,0,0,0-15.34,18.72C376.44,321.69,407.66,329.34,409,329.66Z"/><path class="cls-2" d="M232.49,300.68c10.86-13.26,16.67-22.07,22.89-45.4,2.26-8.49,7.65-15,12.41-20.83,3.77-4.57,7.33-8.9,8.72-13.45l.38-1.25.26-3.81c0-.22,0-.45.07-.7l.08-.65c1.54-16.83,7-60.58,24.87-103.21l11.49-27.49-27,12.55A177.94,177.94,0,0,0,194.2,318.15l6.56,18.14L213.66,322C224.89,309.46,230.34,303.31,232.49,300.68Z"/><path class="cls-2" d="M428.72,355.88h0c-14-7.17-47.62-11-68.47-4.94-20.26,5.85-29.2,12.24-32.34,14.49l-.25.16.09-.18a6.58,6.58,0,0,1,.75-1l.85-1.15c4.69-4.86,15.08-12.63,28.9-18.56a72.78,72.78,0,0,1,10.25-3.51l34.6-9.14-33.41-12.81a117.07,117.07,0,0,1-34.85-21.1l-6.81-6-7.46,5.21c-1.42,1-3,2-4.39,2.8-1.37.55-3.23,1.27-5.87,2.23-8.1,3.07-13.56,3.35-19.86,3.67-1.29.07-2.59.13-3.95.22-2.43.17-4.72.16-7.17.14-8.76,0-17-.09-26.74,8.55a5.54,5.54,0,0,1-1.92,1.07l-7-14.35-11.44,11.15c-5.68,5.54-13,12.92-21.85,21.93l-6.22,6.36,4.55,7.64a178.81,178.81,0,0,0,152.77,86.82A176.79,176.79,0,0,0,462.55,404l10.35-7.17-8-9.7C454.41,374.53,438.87,361.08,428.72,355.88Z"/><path class="cls-2" d="M282.3,258l5-6.81,9.6,6.3,8.74-11L286,232l-6.68,10.1c-.56.85-1.11,1.77-1.63,2.75l9.2,6-5.71,6.13Z"/><path class="cls-2" d="M1016.46,147.88H501.37l-28.48-38,7.85,38H480l2.48,13.62a34.85,34.85,0,0,1,.69,7.06c-.22,6.72-2.57,19.1-6.29,33.12l-1,3.88,1.61,3.69a121.43,121.43,0,0,1,9.06,36.21c2.37,24.73-8.67,42.15-17.58,56.21-2.71,4.3-5.28,8.35-7.27,12.28a20,20,0,0,0-2,13c.22,1.36.58,2.82,1,4.37a26.32,26.32,0,0,1,1.05,5.58l-18,.5L452.77,354l.09.14c2.83,5.29,7.15,12.31,12.87,20.89.81,1.22,1.55,2.44,2.29,3.65l3.38,5.54h.54l5.5,9.11,9-9.11h530c21,0,38-17.48,38-39V186.86C1054.5,165.37,1037.43,147.88,1016.46,147.88Z"/><ellipse class="cls-2" cx="361.53" cy="257.19" rx="166.22" ry="166.83"/><path class="cls-3" d="M422.6,312.44c-2.79,2.14-6,4.08-8.06,5.44a3.63,3.63,0,0,1-2.88.54c-7-1.68-31.21-9.62-45.31-25.53a.71.71,0,0,1,.89-1.08c8.52,4.95,31.51,17.07,54.88,19.05A.89.89,0,0,1,422.6,312.44Z"/><path class="cls-3" d="M494.66,158.19a47.66,47.66,0,0,1,1.16,10.75c-.36,10.66-4.76,27.85-6.92,35.69a129.66,129.66,0,0,1,10.33,39.73c2.84,28.67-10.34,48.76-20,63.43-2.67,4.07-5.2,7.92-7,11.37a8.3,8.3,0,0,0-1,5.95c.18,1.05.48,2.16.79,3.34a32.29,32.29,0,0,1,1.45,9.57,10.12,10.12,0,0,1-.13,1.35,10.75,10.75,0,0,1-5.68,7.8,11,11,0,0,1-4.82,1.27c2.45,4.43,6.46,10.87,12.89,20.2,1.39,2,2.67,4,3.88,6a166.26,166.26,0,0,0,15-216.49Z"/><path class="cls-3" d="M223.55,293.36c10.24-12.49,15-19.7,20.67-41.06,2.91-10.92,9.42-18.83,14.65-25.18,2.89-3.51,5.87-7.13,6.59-9.49,0-.48.08-1.1.14-1.84a16.88,16.88,0,0,1,.2-2.25c1.6-17.52,7.32-62.64,25.71-106.62a166.36,166.36,0,0,0-86.44,207.31C214.24,304,221.25,296.17,223.55,293.36Z"/><path class="cls-3" d="M423.45,366.15c-11.79-6-42.4-9.19-60-4.11-18.32,5.29-26.08,10.82-28.63,12.64l-.23.16c-6.07,4.31-11.68,2.85-14.92,0-4.05-3.53-4.94-9.46-2.19-14.76a16.33,16.33,0,0,1,2.3-3.26,9.64,9.64,0,0,1,1.26-1.6c5.7-5.9,17.28-14.55,32.66-21.14a84,84,0,0,1,11.85-4.07,128.39,128.39,0,0,1-38.37-23.24q-2.52,1.76-5.4,3.42a9.33,9.33,0,0,1-1.31.64c-1.45.58-3.43,1.34-6.06,2.3-9.8,3.72-16.71,4.07-23.39,4.41-1.22.06-2.45.12-3.73.21-2.85.19-5.48.18-8,.16-7.86,0-12.61-.07-19,5.63-5.33,4.74-12.6,5.17-17.31,1a11.46,11.46,0,0,1-2.68-3.53c-6,5.83-13.44,13.34-21.66,21.74A166.23,166.23,0,0,0,456,394.53C446,382.52,431.74,370.4,423.45,366.15Z"/><path class="cls-3" d="M289.12,248.7l-.22-.19c-.37.56-.73,1.18-1.08,1.83Z"/><path class="cls-4" d="M1016.46,159.43H493.82a46.16,46.16,0,0,1,.88,9.51c-.35,10.73-4.62,27.95-6.68,35.7a133.21,133.21,0,0,1,10,39.72c2.75,28.67-10,48.76-19.28,63.43-2.58,4.07-5,7.92-6.76,11.37a8.52,8.52,0,0,0-.95,5.95c.17,1.05.45,2.16.76,3.34a33.44,33.44,0,0,1,1.4,9.58,9.82,9.82,0,0,1-.13,1.33,10.73,10.73,0,0,1-5.48,7.81,10.21,10.21,0,0,1-4.66,1.27c2.36,4.43,6.24,10.87,12.45,20.2.9,1.35,1.73,2.7,2.55,4h538.57c14.63,0,26.49-12.28,26.49-27.42V186.86C1043,171.71,1031.09,159.43,1016.46,159.43Z"/><path class="cls-3" d="M555,305.34V227.08h23.82v78.26Z"/><path class="cls-3" d="M627.21,284.24h-12.6v21.1H590.79V227.08h37.46c21.53,0,33.9,10,33.9,27.8,0,11.61-4.81,20.09-13.52,24.89l16.27,25.57h-27Zm1-17.86c7.1,0,11.22-3.8,11.22-10.83,0-6.81-4.12-10.61-11.22-10.61H614.61v21.44Z"/><path class="cls-3" d="M714.21,245.62v33.87l-23.94,33.6V245.62H667V227.08H740l-11.88,18.54Z"/><path class="cls-5" d="M734.92,271.72l15.66-.11c14.06,0,22-6.2,22-18.26,0-11.73-8-17.71-22-17.71l-9.27-.27,2.05-2.22,4-6h3.21c19.37,0,30.54,9.52,30.54,26,0,12.83-6.19,21.46-17.37,25.11l18.15,26.34H771.83l-16.05-24.67c-1.65.11-3.43.21-5.2.21H728.75Z"/><path class="cls-5" d="M843.21,278.8H795.63c1.55,11.39,9.85,18.59,21.14,18.59a24.32,24.32,0,0,0,18-7.31l4.76,5.1c-5.53,6.19-13.72,9.73-23.46,9.73-17.15,0-29-12.06-29-29.43S799.07,246,816,246C834.8,245.93,844.1,259,843.21,278.8Zm-7.74-7.08c-.55-11.18-8.08-18.26-19.48-18.26-11.06,0-19,7.19-20.36,18.26Z"/><path class="cls-5" d="M908.28,278.8H860.69c1.55,11.39,9.85,18.59,21.14,18.59a24.32,24.32,0,0,0,18-7.31l4.76,5.1c-5.53,6.19-13.72,9.73-23.46,9.73-17.15,0-29-12.06-29-29.43s12-29.44,28.88-29.44C899.86,245.93,909.16,259,908.28,278.8Zm-7.75-7.08c-.55-11.18-8.08-18.26-19.48-18.26-11.06,0-19,7.19-20.36,18.26Z"/><path class="cls-5" d="M921.34,304.58v-82.1H930v82.1Z"/><path class="cls-5" d="M985.62,251.25l-3.32,6.85a30.83,30.83,0,0,0-15.82-4.75c-6.53,0-11.51,2.32-11.51,7.74,0,13,32.54,6.31,32.54,27.22,0,11.51-10.19,16.6-21.36,16.6-8.3,0-16.82-2.87-22.36-8.19l3.32-6.53a29.56,29.56,0,0,0,19.37,7.42c6.86,0,12.39-2.55,12.5-8.3.34-14.05-32.31-6.86-32.2-27.55,0-11.18,9.63-15.83,20.25-15.83A33.69,33.69,0,0,1,985.62,251.25Z"/><polygon class="cls-3" points="699.18 295.67 671.01 343.98 723.9 271.22 692.65 291.63 696.45 297.45 699.18 295.67"/><polygon class="cls-3" points="749.93 198.47 721.01 243.76 723.9 245.62 739.96 227.09 758.2 198.47 749.93 198.47"/><polygon class="cls-5" points="769.72 198.47 764.26 198.47 723.73 263.41 742 255.42 684.21 343.98 754.38 244.94 735.57 253.17 769.72 198.47"/><path class="cls-2" d="M461.9,347.84a10.33,10.33,0,0,0,5.54-1.19,10,10,0,0,0,5.37-7.38,9,9,0,0,0,.12-1.26,31.74,31.74,0,0,0-1.43-9.41c-.29-1.07-.59-2.18-.8-3.39a8.85,8.85,0,0,1,1-6.32c1.82-3.47,4.35-7.33,7-11.42,9.57-14.6,22.68-34.59,19.86-63.05a128.8,128.8,0,0,0-10.36-39.74c2.12-7.7,6.59-25.05,7-35.76.47-14.13-10-37.49-12.13-42l-.12-.25-.27-.5a9.68,9.68,0,0,0-5.15-4.29,9.62,9.62,0,0,0-3.65-8.83c-.1-.31-.21-.61-.34-.91a9.64,9.64,0,0,0-10.09-5.68,19.33,19.33,0,0,1,.15-2.24,9.63,9.63,0,0,0-3.79-8.89,9.81,9.81,0,0,0-2.68-1.4,9.5,9.5,0,0,0-1.56-2.81,9.64,9.64,0,0,0-11.29-2.82,9.59,9.59,0,0,0-4.35-9,8.5,8.5,0,0,0-5.29-1.54l-.32-.38a9.65,9.65,0,0,0-11.75-1.93l-.46.24a9.62,9.62,0,0,0-12.55-3.34,9.61,9.61,0,0,0-12,1.56c-.54.57-1,1-1.41,1.36a9.61,9.61,0,0,0-12.82.64,9.64,9.64,0,0,0-10,3.07,25.69,25.69,0,0,1-2.19,2.33,9.62,9.62,0,0,0-12.68,1.27,9.64,9.64,0,0,0-8.47.63,9.29,9.29,0,0,0-3.87-.85,8.12,8.12,0,0,0-.75-.56,2.22,2.22,0,0,1-.49-.42c-.06-.07-.11-.14-.17-.2l-.13-.19a9.78,9.78,0,0,1-1.19-3.2,9.5,9.5,0,0,0-1.75-3.81c.25-.53.38-.81.4-.84a9.63,9.63,0,0,0-.12-8.67,1.55,1.55,0,0,0-.12-.22,48.78,48.78,0,0,1,2.81-6.11A9.62,9.62,0,0,0,329.1,46.88c-48.88,53.43-60.34,140.68-62.71,166.72a16.46,16.46,0,0,0-.2,2.22c-.06.79-.11,1.43-.15,1.91-.73,2.49-3.77,6.18-6.71,9.76-5.2,6.31-11.67,14.17-14.54,25-5.73,21.46-10.49,28.71-20.78,41.28-3.38,4.12-16.86,19.06-32.46,36.37-30.64,34-72.59,80.53-85.88,97.87-3,4-3.58,8.88-1.4,12.8a10.55,10.55,0,0,0,10.31,5.31,13.22,13.22,0,0,0,7.67-3.64c1.82-1.7,9.45-9.71,25.15-26.22,27.59-29,70.9-74.58,93.09-96.15a10.77,10.77,0,0,0,2.87,4.1c4.56,4,11.35,3.56,16.52-1.05,6.56-5.84,11.68-5.85,19.4-5.76,2.53,0,5.14,0,8-.17L291,317c6.64-.34,13.51-.68,23.23-4.37,2.62-1,4.6-1.72,6.05-2.3a9.2,9.2,0,0,0,1.22-.6q3.09-1.77,5.74-3.66a127.54,127.54,0,0,0,40.29,24.1,84.78,84.78,0,0,0-13.58,4.5c-15.3,6.55-26.8,15.15-32.46,21a8.37,8.37,0,0,0-1.18,1.5,15.81,15.81,0,0,0-2.29,3.22c-2.61,5.05-1.79,10.7,2.06,14,3.07,2.66,8.4,4.05,14.42-.23,2.57-1.83,10.38-7.41,28.81-12.73,17.71-5.12,48.55-1.94,60.43,4.15,11.62,6,35,27.3,41.9,42.31a124.47,124.47,0,0,1,8.32,26.82c.21,1.05.38,1.85.51,2.36,1.64,6.71,6.43,9.55,10.81,9.55a10.92,10.92,0,0,0,1.15-.07c4.3-.5,9.36-4,9.46-12.38.14-10.44-1.57-37.69-20.57-65.24A237.92,237.92,0,0,1,461.9,347.84Zm-44.18-20.42-.31.05a7.6,7.6,0,0,0-.05-1.07c.11.34.24.68.38,1Zm-.84-4.74a9.68,9.68,0,0,0,0,1.7,9.64,9.64,0,0,0-6.87-6.32c-.36-.08-33.1-8.25-47.71-29.32l.55-.41c10.34,7.93,29.71,19.66,55.65,21.7a9.62,9.62,0,0,0,7.26-16.68l.87-.09c1.84-.18,3.69-.41,5.57-.7a10,10,0,0,0,1.46-.35c.1.31.2.62.29.93,1.12,3.83,1,7.38-.4,9.49-2,3.13-6,6.43-8.87,8.84C420.52,315,417.21,317.74,416.88,322.68ZM289.22,248.56l-1.35,1.71c.35-.64.7-1.24,1.07-1.8Z"/><path class="cls-4" d="M474.37,131l0,0c-11.78.84-10.18-4.93-6.34-10.31-3.6.66-20.09,12.6-20.09,12.6,5.62-8.42,16.83-17.25,16.83-17.25-.42.07-.83.12-1.22.16-9.13.91-10.28-6.36-9.45-13.12-7,3.06-24.27,24.2-24.27,24.2,1.88-8.35,18.29-30.08,18.29-30.08a22.79,22.79,0,0,1-7,2.17c-7,.69-7.5-5.58-6.32-12-10.8,7.47-25.88,32.44-25.88,32.44,5.79-17.25,18.39-35.94,18.39-35.94a14.89,14.89,0,0,1-5.6,2c-3.94.39-6.25-2-7.62-4.94-11.38,8.35-26.68,42.73-26.68,42.73,4.35-19.19,17.18-43.08,17.18-43.08-3.42,3.6-6.22,5.1-8.49,5.32-2.65.26-4.58-1.21-6-3.11-10.24,11.07-23.28,44-23.28,44,3.53-19.11,13.89-41.53,13.89-41.53-3.91,4.65-7.06,6.52-9.56,6.77A6.19,6.19,0,0,1,365.52,89c-11.84,13.7-22.87,41.85-22.87,41.85,2.3-12.52,12.22-39.46,12.22-39.46-2.56,2.76-4.43,3.93-5.78,4.06-1.77.18-2.65-1.43-3-3.59,0,0-17.69,29.37-20.52,42.78,0,0,5.15-26,14.53-44.93a12.19,12.19,0,0,1-2.43-2.14,2.92,2.92,0,0,1-1.07-1.39A19,19,0,0,1,334,79.74c-11,20.21-24.16,56.49-24.16,56.49,5.7-30.78,23.56-67.39,23.56-67.39-5.34-.84,2.81-15.46,2.81-15.46-47.73,52.18-58.35,140.28-60.26,161.42a6.54,6.54,0,0,0-.12,1.38h0c-.13,1.5-.2,2.52-.23,3-2.06,10.56-17.16,19.5-21.5,35.78-6,22.4-11.11,30.83-22.64,44.9-10.1,12.33-98.11,107.86-118.14,134-1.25,1.64-.81,2.8.35,2.68a3.76,3.76,0,0,0,2-1.11c5.82-5.41,105.84-112.35,128.36-131.81,9.68-8.36,20.79-20.63,42.68-22.8a105.37,105.37,0,0,1,20.55.49s-38,4.73-57.26,33c-2,2.94.76,4.08,3.46,1.67,11.93-10.64,21.82-7.58,33.11-8.35,7.83-.54,14.16-.17,24.33-4,2.5-.91,4.38-1.63,5.76-2.19,6.46-3.72,13.07-8.86,15.76-15.25,7.19-17.11-6.75-35.8-6.75-35.8a53.73,53.73,0,0,0,19.24,1.77A35.14,35.14,0,0,0,359,247.83c-4.2,5.55-11.58,7.44-17.37,8a44.18,44.18,0,0,1-8.42.07s10.68,15.19,3,31.79a27.75,27.75,0,0,1-5.85,8.08c2.37,2.43,32.52,32.5,77.44,31.64,0,0-44.66-10.69-58.19-41.78,5.55-3.34,10.17-6.75,13.09-10.06,5.77,5.43,26.11,22.46,56.59,24.86,0,0-30.67-8.63-45.79-26.61a96.79,96.79,0,0,0,52.24,9.85c1.65-.16,3.33-.37,5-.64,0,0-36.21-1.49-54.28-18.28a45.64,45.64,0,0,1,12-2.78,70.08,70.08,0,0,1,34.4,5.79c18.78,8.56,25.8,29.21,18.76,40.09-5.22,8.07-16.48,14.29-15.08,15.82s6,2.12,8.5,3.74c-.17,2.52-4.26,7.51-15.73,9.48-.55.09-1.12.17-1.72.23-7.93.79-20.89-1.11-35.61.35a81.57,81.57,0,0,0-24.32,6c-15.28,6.54-25.33,14.71-29.33,18.85l.24,0a13.93,13.93,0,0,0-2.08,2.48c-.88,1.71-.6,3.65,2.12,1.71s11.42-8.37,31.95-14.3,53.87-2.14,67.49,4.85,38.55,30.05,46.26,46.85c6.52,14.22,8.72,28.05,9.42,30.9s2.41,3.23,2.45-.53.78-31.35-18.87-59.85c-16.57-24-21.82-34.95-15.66-40.15,0,0,11.26,5.55,11.6,3.43.11-3.58-1.44-7-2.09-10.87h0a18.35,18.35,0,0,1,2-12.43C472,297.59,492.3,278,489.06,245.37a116.06,116.06,0,0,0-11-39.82s7.16-24.41,7.58-37S474.37,131,474.37,131ZM315.09,185.72A147.37,147.37,0,0,1,337.66,170a119.73,119.73,0,0,1,46.91-14.52c17.22-1.71,33.2.25,44.67,4.32,1.12.4,2.22.84,3.31,1.29,9,4.33,21.21,12.83,32.42,29.33-3.82-4.84-17.37-20.57-36.84-27.49-11.09-3.94-26.55-5.83-43.21-4.17a116.23,116.23,0,0,0-45.63,14.13,146.24,146.24,0,0,0-42.11,36A96.05,96.05,0,0,1,315.09,185.72Zm-22.33,69c-1.86,2.47-5.51,3.54-7.09,2.71a1.49,1.49,0,0,1-.29-.2,7.76,7.76,0,0,1-.19-1c.76-2,3.46-8.84,5.87-10C293.78,248.38,294.52,252.43,292.76,254.76Zm138.82,96.09c2.81-6.79,7.31-14.26,11.63-22.22h0c8.43-15.5,15.39-32.75,3.67-50-8.17-12-15.38-13.55-15.38-13.55A34.15,34.15,0,0,1,448.59,275C473.78,302.67,445.15,330.15,431.58,350.85ZM470.85,249c-15.84,1.57-57.39,3.4-98.06-14.15h-.08a3.1,3.1,0,0,0-1.5-.21c-3.51.35-7.37,5.86-7.37,5.86,4.4-11.52,10.08-16,15.12-16.54a9.75,9.75,0,0,1,4.78.74s30.78,18.62,93.79,23.48C477.53,248.18,475.13,248.59,470.85,249ZM361.48,208.1c2-1.11,4.06-2.18,6.11-3.2l2.12,4.28c-3.71,1.91-5.83,3.28-5.83,3.28ZM378.61,200c2.16-.86,4.34-1.66,6.49-2.39l1.53,4.53c-2.22.72-4.32,1.48-6.27,2.25Zm18.17-5.65c2.3-.51,4.61-.93,6.85-1.25l.71,4.93c-.26,0-.52.08-.77.12q-2.94.42-5.73,1Zm19,2.9.06-5,.88,0c2,0,4.09.19,6.12.4l-.52,5c-1.91-.2-3.83-.33-5.73-.38Zm17.86,2.27,1.15-4.27c2.38.64,4.59,1.32,6.66,2.05l-1.45,4Q437,200.29,433.64,199.5Zm17.19,6,1.75-3.25c2.08,1.15,4,2.37,5.92,3.64l-1.71,2.66C455,207.52,453,206.49,450.83,205.49ZM466.66,215l1.51-1.74a44.34,44.34,0,0,1,5.1,4.73l-1.41,1.38A54.54,54.54,0,0,0,466.66,215Zm17.8,16.2s-15.46-49.4-80.52-47.11c-1.86.06-3.72.19-5.57.37-26.73,2.66-51.79,17.21-70.44,31.57-.38.27-.79.57-1.25,1l-.12.1q-3.12,2.44-6,4.85c-9.28,7.3-21,15.81-24.83,18.53a.5.5,0,0,1-.24.1.53.53,0,0,1-.55-.67c5-15.45,16.81-26.89,21-30.58,0,0,0-.06.06-.09,19.45-15.92,47.84-33.67,80.32-36.89h0C466.81,165.34,484.45,231.15,484.46,231.18Z"/></svg>