<svg id="Layer_1" data-name="Layer 1" xmlns="http://www.w3.org/2000/svg" viewBox="0 0 750 350"><defs><style>.cls-1{fill:#0d4d71;fill-rule:evenodd;}</style></defs><title>fish--shark</title><path class="cls-1" d="M540,215.72c4.69,1.51,8,2.58,11.26,3.65.14.46.29.93.42,1.39-4.52,2.76-9,5.59-13.6,8.23-.67.4-1.87,0-2.79-.21a3.5,3.5,0,0,1-1.7-.87c-10.16-10.55-22.25-9.53-35.19-6.73-10.15,2.2-20.64,2.85-31,4.21a15.31,15.31,0,0,0-2.33.8c1.41.82,2.26,1.4,3.19,1.83,5.9,2.7,6.13,4.06,1.24,8.1a18,18,0,0,1-3.59,2.43c-8.71,4.18-15.75,10.32-21.88,17.75-5.24,6.36-6.75,5.94-12-.53a129.84,129.84,0,0,0-12.52-13.28,7.3,7.3,0,0,0-6-1.45c-23.85,7.39-48.48,9.22-73.17,10.59-14.1.79-28.26,1.74-42.35,1.35-21.42-.59-42.82-2.27-64.24-3.49,2,1.25,4.21,3.13,6.78,4.17,9.81,4,12.46,11.5,11.54,21.27-1.1,11.64-2.6,23.3-2.61,35,0,9.53,2.08,19.06,2.93,28.62.3,3.44-.34,7-.55,10.43l-1.92.69c-4.24-3.05-8.71-5.82-12.68-9.18C216.46,322.93,205,299.64,197,274.33c-2.83-9-4.86-18.26-7.11-27.44-.69-2.83-1.91-4.63-5-4.81-5.45-.33-10.87-1.05-16.32-1.15-13.86-.28-26.94-4.13-39.7-9-14.17-5.36-29.07-6.46-43.79-8.74a85.2,85.2,0,0,1-13.94-3.6c-2.3-.77-4.25-2.56-6.35-3.89.07-.5.14-1,.22-1.5l18.09-2.88c0-.38.07-.75.11-1.13-5.93-.38-12.32-2.37-17.69-.82-14.45,4.15-25.77-1.5-36.79-9.23a112.92,112.92,0,0,1-13.5-10.83c-3.54-3.4-7.33-7.45-5.89-12.94s6.88-6.79,11.74-7.88c4.21-.94,8.58-1.14,12.79-2,10.16-2.19,20.53-3.81,30.34-7.07,39.1-13,79.16-21.77,119.65-29,14.51-2.58,28.88-5.95,43.3-9,9-1.91,14.62-8,19.57-15.28,12.62-18.41,24.92-37.07,38.32-54.9,12.76-17,27.37-32.43,45.48-44A79.92,79.92,0,0,1,342.88.88c1.69-.69,4.57-.74,5.76.27s1.29,3.82.86,5.59c-2.2,8.84-5.9,17.47-6.94,26.42-2.85,24.61-.57,48.78,10.68,71.33,1.85,3.7,5.75,6.33,8.48,9.63,4.25,5.12,3.61,7-2.81,7.92-3.79.56-7.66.61-11.48,1a31.77,31.77,0,0,0-6.34,1.2c43.68,4.81,85.37,18.26,127.85,28.09,16.41,3.79,32.88,7.3,49.32,11a11,11,0,0,0,9.49-1.91c5-3.62,10.38-6.76,15.58-10.09.43,3.69.23,6.94,1.28,9.73s3.3,5,5.23,7.8l-6.55,2.49c16.09,4.08,30.87,8.92,46.69,7.38,11.4-1.11,20-7.25,25.9-16.56,8.09-12.71,15.32-26,23.16-38.86,21.78-35.82,46.23-69.59,77-98.4,6.19-5.81,13-11,19.62-16.28,1.08-.86,2.88-.8,4.35-1.17.36,1.64,1.34,3.45,1,4.91q-3.42,13.77-7.39,27.4a15.36,15.36,0,0,1-9.19,9.94c-6.22,2.63-9.49,6.64-8.24,13.87a16.58,16.58,0,0,1-.81,9c-6.76,15.63-9.53,32.23-12.53,48.8-2.89,15.92-9.11,30.48-19.35,43-8.29,10.15-8.54,20.46-2.62,31.72,7.66,14.6,19,26.17,30.25,37.87,4.55,4.75,9.7,9,14.07,13.86,1.82,2,3.58,5.54,3.1,7.92-.76,3.72-4.85,3.51-8.1,3.31-15.61-.95-30.14-6.12-44.39-12a214,214,0,0,1-52.33-30.33c-10.43-8.3-22.81-11.24-35.85-9.36C572.09,209.55,556.76,212.72,540,215.72Z"/></svg>