<svg id="Layer_1" data-name="Layer 1" xmlns="http://www.w3.org/2000/svg" viewBox="0 0 750 350"><defs><style>.cls-1{fill:#0d4d71;}</style></defs><title>fish--trout</title><g id="layer1"><path id="path5383" class="cls-1" d="M370.1,39.78c-2.59,0-5.08,2.3-7.49,3.52a58.21,58.21,0,0,0-6.76,4.21c-3.14,2.15-6.16,4.49-9.14,6.85-3.68,2.91-7.3,5.92-10.8,9-5.66,5.06-11,10.46-16.47,15.7-5.92,5.67-11.68,11.51-17.73,17-3.15,2.87-8,4.76-9.67,8.37a1.62,1.62,0,0,0,.59,1.11l-5.14-.17-18.49,2-29.91.44-22.47,1.19-16.37,1.4L182.68,113l-17.09,2.48L153,117.69l-15,3.56-10.88,2.51-11.36,2.8-7.73,1.71c-3.93.67-5.95.61-9.33,1.37L90,132l-8.62,3.08L74,137.75l-5.26.67-8.28,2.51-9.29,3.18-9.36,3.34-10,4.18-7.95,4.19-7.27,4.09-6,3.85L5.27,168.6l-3.18,3.85L.76,176.72l.37,3.22,2.6,2.84,5,2.84,9.83,4.32-3.18,1.12-3.89.25-3.52-1-3.59-.87-1.79.41-2.1,1.76L-.2,194.4l1.44,3.28,5.92,5.21,12.77,7.33,13.49,4.5,26.21,6.66L74.1,225.1l11.46,3,7.52.72h.1l-.19.07,10.65,1.91,10.17,3.11L144.74,241l7.73,1.76,2.29,2.85,11.71,16.49,11.71,14.34,7.66,7.87,3.32,2,2.55.45,3.16-2.53,2.41-4.31.45-6.8.23-11.15-.21-8.93,1.39.31L221.77,257l29.57,3.54,26.19,2.19,34.38.43,14.65-1.36.28,0,3.08,7,3.34,4.78,3,3,2.86,4.3,3.35,3.94,2.15,1.68H348l2-2.17,1.2-3,2.7-3.16,2.56,2.7,22.29,21L389,309.07l3,1.15,3-1.14,1.91-2.32,1.44-3,.11-8.43-2.16-6.22-1.59-6.07v-7.94l-2.62-.18L392,264.46l-.59-3.38-1.34-2.53-3.21-2.46-1.21-.52,4-.44,20.55-2.86,23.18-2.86,30.22-2.75,13.53.24,6.37,1.51,6.08,3.37,7.09,3.39,8.28,5.23,11.16,6.43,8.78,4.55,9.8,5.24,11.15,4.9,9.3,4.23,9.28,4.05a25.89,25.89,0,0,0,5.08,1,10.84,10.84,0,0,0,3.55-.67,9.31,9.31,0,0,0,2.52-1.36,2.41,2.41,0,0,0,1.27-2.23c3.94-2.77,1.63-2.19,1.78-3.93.09-.66,1-.92,1.31-1.53.7-1.43.52-3.14.94-4.68.84-3.14,2.19-6.1,3.16-9.2.84-2.68,1.66-5.39,2.27-8.13a60.56,60.56,0,0,0,1.44-8.23,70.85,70.85,0,0,0,.24-8.37c-.15-3.59.31-6.77-.64-9.21s2.17-3.64.07-6.19c-1.34-1.64-2.34-2.11-2.92-1.67s-2.44.17-3.45,0c-1.69-.25-2.45-.31-4.12-.65s-4.84-1.26-4.84-1.26l-4.45-2.33c-1.78.49-3.38,1-4.86,1.42l14.5-5.15,16.22-2.36,19.26-.67,15.88,1.34,5.13,1.57-.87,0,11,3.11,1.8.53,16.59,5,12.91,4.55,14.1,4.77L710.77,241l21.75,2.38,17.68.49L748,239.36l-1.84-6-.86-5.33-1.6-6.93L742.25,215l-2.8-6.68-8.19-2.78,4.56-2.89,1.11-1.84-5.67-16.22-.08-6.09,2-4.39-2.28-2.71,4.31-2.95,1.1-3.71,1.6-6,3.39-7.34-.68-4.23L736.41,145l3.55-2.2,1.52-4.23-.16-8.78.84-7.26L740.64,116l.5-3v-5.41L737.43,105l-6.25.34-16.06,3.21-18.93,6.08-17.73,8.61-14.19,7.94-14.21,9.54h-.21l-8,4.51-9.06,2.35-8.46,2-11.13,1.56-8.45.15-13.35-.56-7.3-.58-6.75-.59-.64-.14c1.47-.73,2.14-1.66,3.85-2.27s4.59-.81,6.28-1.33,3.65-1.08,5.49-1.55l2.76-1.67v-2.75l-2-3.69-4.77-2.4L581,132.33l-6.21.47c-2.23.6-4.47,1.25-6.69,1.92q-3.78,1.14-7.53,2.38-4.8,1.59-9.55,3.34l-6.93,1.32.31.19-2.29-.53-16.72-2.68-25.59-3-25.68-4.13-17.83-2.82-30.75-4.51-15.94-2.86-8.88-2c6-.09,11.77-2.63,17.6-4.15,4.31-1.13,9-1.39,12.85-3.71.56-.35,1.33-.78,1.34-1.44,0-.86-1.35-1.16-1.68-2s.22-2.09-.25-3c-1.62-3-5.31-4.32-8-6.41-2.36-1.82-5-3.27-7.18-5.33a42.94,42.94,0,0,1-4.65-5.66c-1.26-1.69-1.6-4.41-3.54-5.23-2.91-1.22-7.93,4.52-9.3,1.68-1-2.06,4.57-2.35,5.16-4.56.22-.84-.39-1.71-.85-2.44-1.54-2.47-4.14-4.08-6.16-6.17-2.29-2.36-5.13-4.33-6.77-7.18-.54-.95-.51-2.13-.92-3.14a10,10,0,0,0-1.42-2.7c-1.49-1.82-3.91-2.67-5.48-4.42-1-1.11-1-3.25-2.4-3.76-2.06-.75-4.55,3.34-6.27,2-.76-.61-.08-2,.24-2.93.5-1.4,2.58-2.21,2.52-3.7a6.31,6.31,0,0,0-4.34-5.32,4.76,4.76,0,0,0-1.12-.13Z"/></g></svg>