<svg id="Layer_1" data-name="Layer 1" xmlns="http://www.w3.org/2000/svg" viewBox="0 0 750 350"><defs><style>.cls-1{fill:none;}.cls-2{fill:#0d4d71;fill-rule:evenodd;}</style></defs><title>fish--bass</title><path class="cls-1" d="M11,199.9h0"/><path class="cls-2" d="M277.16,59.93c4-8.73,6.17-17,11.09-22.85,3.58-4.3,10.8-5.6,16.47-8.09,1-.45,2.83.32,3.46-.3,9.47-9.2,20.3-1,30.4-2.14,4.27-.46,10.11,2.38,13.3,5.63C357.6,38,364.51,36.82,370.46,36c5-.7,9,.76,12.4,2.44,4.69,2.28,8.67,6.43,12.28,10.41,4.63,5.1,7.78,5.36,14.1,2,19.52-10.47,39.15-20.76,59-30.47,4.31-2.11,9.93-2.09,14.94-2.09,10.2,0,20.4.76,30.6,1.05,10.59.3,16.75,7.21,21.07,15.38,5.37,10.13,9.44,20.94,14.46,32.36L510,87.88c8.85,1.93,16.8,3.9,24.85,5.35,10.35,1.86,20.9,2.73,31.14,5,24.5,5.51,45.9.09,65.1-16,22.1-18.58,45.69-35.06,71.43-48.34,11.54-6,28-4.13,36,5.87,3.24,4,4.78,10.39,4.91,15.75.17,7.26-1.3,14.67-2.86,21.85-3.81,17.48-8.23,34.83-12,52.33-.6,2.78.51,6.21,1.63,9,4.56,11.43,10,22.53,14,34.15,3.72,10.85,8.13,22,4.23,33.88-1.21,3.69-3.21,7.13-4.84,10.69-.92,2-1.82,4-3.37,7.38-22.59,4.57-44.16-2.65-64.46-14.37-15.65-9-30.43-19.58-46-28.75-4.82-2.85-10.92-3.77-16.57-4.89-16.16-3.2-31.9.56-47.57,3.81-12.9,2.67-25.65,6.11-38.45,9.27a19.78,19.78,0,0,0-3.49,1.72c7,2.58,13.7,4.78,20.17,7.51,5.23,2.2,8,5.8,8.13,12.28.6,23.15-11.83,37.84-31.18,46.77-8.32,3.85-17.93.24-25.53-5.65-11.46-8.9-22.68-18.13-34.34-26.75-1.55-1.14-6.46-.54-7.53.93-5.38,7.36-9.95,15.33-14.95,23a33.72,33.72,0,0,1-5.26,6.29c-12.88,11.9-27.57,19.06-45.68,17.33-20.89-2-41.81-3.78-62.7-5.85-7.18-.71-14.31-2-21.46-3-.23.52-.46,1.05-.69,1.56,2.49,1.42,5,2.91,7.5,4.25,10.88,5.73,11,8.42,9,20.29-2.77,16-11.72,27.54-22.91,38.12-4.57,4.33-5.41,4.21-9.09-.62-14.9-19.56-29.73-39.18-45-58.44-4-5-9.29-6.77-16.89-6.31-18.11,1.08-36.37-.62-54.57-.59-15.05,0-29.76-1.66-43.65-7.39-10.4-4.3-20.31-9.79-30.47-14.67a15.18,15.18,0,0,0-5.46-1.82c-10.26-.55-20.53-.8-30.79-1.29q-22.76-1.1-45.5-2.41C6.9,234.62,4.19,227.7.21,222.56c-.61-.77.22-4,1.18-4.45C12.57,212.58,19.5,202.41,28,194c4.78-4.72,9.63-9.53,13.41-15,1.74-2.52,1.49-6.79,1.28-10.21-.47-7.82-1.63-15.6-2.22-23.41-1.29-17-4.65-33.51-12.06-49C24.28,87.67,26,84.91,35.75,85s19.44.58,29.14.25C68.46,85.11,72,83.12,75.51,82,91.11,77,106.42,70.47,122.4,67.58c17.36-3.14,35.35-2.84,53.06-4.08,13.16-.93,26.3-1.93,39.46-2.85,4.4-.31,8.82-.67,13.23-.69C244.77,59.88,261.38,59.93,277.16,59.93Z"/></svg>