<svg id="Layer_1" data-name="Layer 1" xmlns="http://www.w3.org/2000/svg" viewBox="0 0 750 350"><defs><style>.cls-1{fill:#004976;}</style></defs><title>fish--striped-bass</title><path class="cls-1" d="M47.45,166.16c-11.39-15-21.57-28.45-33.12-43.68,38.56-13.88,79.2-22.33,118.85-34.06,40.73-12,82.36-8.68,124.09-8.11,1-3.54,1.1-7.34,3-9.67,13-16,23.09-34.61,41.6-49.5-.33,6.52-.51,10.19-.76,15.16l25-27.44c-.72,11.48-1.25,20-1.88,30.13l9.38-4.81c2.45,6.5,4.95,13.11,7.69,20.4l11-4.38c.92,7.25,1.77,14,2.71,21.42l10.2-1.6c.49,6.43.94,12.49,1.47,19.48,9.41-2.15,14.88.12,19.21,8.38,3.5,6.68,15.09,6.65,22.54.26,16.26-14,32.11-28.43,47.59-43.25,9.24-8.85,10.07-9.6,18.8-.21,8.16,8.78,15.61,18.21,23.5,27.25a42.87,42.87,0,0,0,6,5.12c11.26,8.88,22.61,17.63,33.74,26.67,1.57,1.28,2.06,3.92,3.35,6.54l-10.44,3.68c24,5.74,47.66,8.54,70-3.91a21,21,0,0,0,9-11.18C621.47,70.59,645.44,40,670,9.7c5.17-6.4,10.28-5.23,11.81,2.79,1.94,10.18,3.9,20.68,3.44,30.93-1,23,5.75,44,12.36,65.45,5.37,17.39,15.92,32.55,21.07,49.42,4.9,16,20.25,22.54,26,36.62,2.18,5.36,3.61,11,5.39,16.55-5.68,1.26-11.86,4.64-17,3.43-22.1-5.26-43.92-11.71-65.76-18a181.43,181.43,0,0,1-24.63-8.63c-34.08-15.51-59.07,5.74-86.16,18.64.17.82.35,1.64.52,2.46l19-2.51c-3,11-3.68,20.3-11.06,29.15-8.35,10-13,23.14-19.14,35-3.61,6.94-7,14-10.59,20.94-4,7.72-10.49,9.09-16.61,4-8.92-7.43-16.75-16.17-25-24.36-9.51-9.42-18.8-19.08-28.69-28.09-2.16-2-6.73-2.94-9.66-2.22-21.06,5.21-41.94,11.14-63,16.52-33.48,8.56-67.56,10.15-101.91,8.15-1.86-.11-3.73,0-8,0,5.79,7.76,9.39,14.93,15,19.67,11.46,9.6,8.45,19.48-2.69,29.71-10.14,9.3-21.72,17-32.83,25.27-8.06,6-12.21,5.36-16.76-3.51a41.59,41.59,0,0,1-4.63-17.13c-.56-19.1-.19-38.24-.24-57.36a36.87,36.87,0,0,0-.47-4.78c-16.78-5.15-32.83-9.7-48.62-15-18.89-6.38-36.57-16.56-57.59-15.79-5.72.21-11.84-2.43-17.31-4.82C86.36,209,54.68,204.25,22.54,201.29c-4.93-.45-10.26-1.31-14.45-3.68-3.61-2-8-6.43-8.09-9.91S4.05,179,7.56,177.6c9.25-3.74,19.16-5.84,28.81-8.56C39.15,168.25,42,167.58,47.45,166.16Z"/></svg>