<svg id="Layer_1" data-name="Layer 1" xmlns="http://www.w3.org/2000/svg" viewBox="0 0 750 350"><defs><style>.cls-1{fill:#004976;fill-rule:evenodd;}</style></defs><title>fish--flounder</title><path class="cls-1" d="M178.39,286.69c-2.83,10.87-2.94,20.83-7.91,26.58-2.71,3.12-18,1.53-20.11-2.18-6.08-10.83-8.36-23.78-12.14-35.9l6-3.41c-37-20.67-74.23-41.1-111.07-62.13-10.95-6.25-23.12-12.88-17-31.38l41.69,1.85c-11-13.54-18-22.12-26.66-32.81,23.72-12.08,45.42-23.67,67.61-34.22,14-6.64,25.8-12.94,23.08-32.13-.62-4.37,6.64-12.39,12-14.65,43.71-18.48,84.37-44.77,132.62-51.76C322.3,6.47,377.2-5.28,434.84,4,501.09,14.7,547,51.68,583.89,103.86c6.92,9.81,11.59,21.2,19.56,36.07,36.35-.92,64-35.17,103-49.74,20.11,23.87,30.16,52.45,28.93,84.56-1.16,30-12.18,56.85-28.84,81.8-6.79,10.16-12.42,10.14-21.47,3.54-17.49-12.77-35-25.74-53.6-36.72-13.17-7.77-28.2-12.38-39.72-17.27-3.31,11.39-3.71,20.05-7.9,26.1-40.12,58-94.58,94.71-164,108.79-48,9.73-96.39,12.89-143.73-.74-27.5-7.91-57.29-13.82-75.58-41.12C196.08,292.48,185.06,290.24,178.39,286.69Z"/></svg>