<svg id="Layer_1" data-name="Layer 1" xmlns="http://www.w3.org/2000/svg" viewBox="0 0 750 350"><defs><style>.cls-1{fill:#004976;}</style></defs><title>fish--swordfish</title><path class="cls-1" d="M114.51,195.63c24-3.08,48.18-4.84,72.69-4-2.22-.5-4.43-1-6.65-1.49-2.46-.51-4.93-1-7.42-1.4-30.82-5.05-61.9-3.67-92.93-3.92-23.77-.19-47.55-1.07-71.32-1.82-3-.09-5.92-1.23-8.88-1.89l.05-1.54c4.62-.44,9.24-1.26,13.86-1.24,28.22.15,56.44.84,84.66.64,15.88-.12,31.76-1.43,47.63-2.47,20.41-1.35,38.37-9.21,54.86-21,10.15-7.25,20.61-14.62,32.88-17.19,10.54-2.21,17-8.66,23.3-16.17,8.17-9.8,15.6-20.32,24.59-29.3C296.5,78.22,314.24,68.52,335,65.14a87.43,87.43,0,0,1,8.74-.56l.91,1.33c-2,2.4-4.08,4.76-6,7.22-4.18,5.28-8.66,10.37-12.35,16-4.22,6.44-3.25,13,.84,19.46,7.68,12.18,18.57,19.88,32,24.42,17.06,5.76,34.84,7.06,52.58,8.23,48.43,3.18,96.58,8.45,144.33,17.38,16.39,3.06,33,4.92,49.54,7.18a24.49,24.49,0,0,0,19.13-4.86c6.23-4.81,6.31-4.42,12.32.62,2,1.69,4.79,2.49,7.43,3.8l-11.91,3.94c8.48,3.15,16.9,6,25.58,3.95a21.22,21.22,0,0,0,10.53-6.42c13.7-16.07,26.6-32.82,40.47-48.73C719.27,106.45,730.38,95.6,745.36,90a9,9,0,0,1,4.64-.65c-3.28,4.22-6.8,8.29-9.75,12.73-2.32,3.48-3.82,7.5-5.89,11.16-3.11,5.54-6.68,10.83-9.56,16.48-4.56,9-9.09,18-12.95,27.31-6,14.38-5.66,29.5-3.75,44.63.34,2.74,1.61,5.37,2.5,8q2.43,7.35,4.91,14.68a24.94,24.94,0,0,0,1.32,3.5q8.56,16.37,17.2,32.68c4.3,8.1,8.67,16.17,13.34,24.87-6.89-1.45-12.18-4.89-17.25-8.68-17.34-12.94-29.63-30.39-42.16-47.59a206.61,206.61,0,0,1-11.8-17.68c-6.77-11.64-16.76-15.53-29.59-13.23-6.19,1.11-12.33,2.46-18.49,3.71l-.56,1.44,13,6.7c.05-.27.09.11-.06.21-9.7,6.79-9.9,7-18.63-1-4.49-4.1-9.41-4.11-14.56-3.28-15.07,2.41-30.12,5-45.14,7.68-6.82,1.21-13.56,2.86-20.36,4.16-4.28.81-7,3-8.28,7.3a26.3,26.3,0,0,1-3.85,8.55c-8.3,10.81-8.24,22.34-3.7,34.44.43,1.12.81,2.26,1.47,4.14A54.6,54.6,0,0,1,505,257.74c-7.63-8-14.73-16.41-21.85-24.83-2.56-3-5.39-3.74-9.17-3.37-14.09,1.38-28.21,3.42-42.33,3.54-28,.25-56.05-.9-84.07-.91-17.28,0-34.56,1.07-51.84,1.58-5.31.15-10.63,0-15.95,0l-.41,1.14c2.36,1.9,5,3.54,7,5.76a25.33,25.33,0,0,1,3.76,6.69c1.37,3.07,1.92,6.64,3.77,9.34,5.4,7.88,11.28,15.44,17,23.12-.28.53-.57,1.05-.86,1.58-4.09-1.43-8.68-2.1-12.19-4.42-15.67-10.37-30.93-21.28-39.43-39-2.76-5.73-7-9.72-13.81-9.87-17.62-.39-34.1-5.66-50.25-12-16.7-6.59-33.14-14-51.11-16.42-7.47-1-15.06-1.09-22.6-1.54-2-.12-3.94,0-5.91,0C114.66,197.29,114.59,196.46,114.51,195.63Z"/></svg>