<svg id="Layer_1" data-name="Layer 1" xmlns="http://www.w3.org/2000/svg" viewBox="0 0 750 350"><defs><style>.cls-1{fill:#0d4d71;}</style></defs><title>fish--tuna</title><path class="cls-1" d="M232.68,10.53c-8.21,16.16-20.81,58.06-20.81,69,0,4.93-.14,5.07-6.44,6-57,8.08-110.1,30.13-172.28,71.35C3.16,176.78-1.08,181.3,4.81,186.5c1.23,1.24,10,6.3,19.44,11.23s17.67,9.73,18.35,10.41c1,1-2.87,1.37-11,1.51a172.57,172.57,0,0,0-21.78,1.64C1.93,212.66.29,213.48,0,215.67Q-.6,221,26.31,235c41.22,21.5,99,37.8,160.22,45.06,10.55,1.37,20.27,2.87,21.5,3.56,3.43,1.78,9.45,11.09,16.85,25.88,7.94,16,16.71,28.49,23.83,34.1,2.87,2.33,5.61,4.25,6,4.25,1.1,0,3.29-6.44,9.86-28.9,6.71-23.28,7.12-26.57,4.11-30.95-1.92-2.88-1.92-2.88,5.89-3.7,48.89-5.2,60.67-7.26,96.13-17.25,11-3,24.79-6.85,30.95-8.49l11-3,15.06,11.23c16.71,12.6,33.42,21.78,48.62,26.71,12.05,4,20.4,5.61,20.4,4.11,0-.55-5.06-3.7-11.36-6.85A133.85,133.85,0,0,1,467,279.08c-7.67-6.44-15.48-15.61-15.48-18.22,0-2.05,6-8.49,11.64-12.59,4-2.88,4-3,1.65-5.62-2.47-2.74-2.47-2.87.13-4.24,1.78-1,6.71-1.1,13.42-.55l10.55.82-.82-3.42c-.82-3-.28-3.56,4.52-5.07,4-1.23,6.16-1.23,8.21-.14,1.51.82,4.93,1.1,7.67.55,3.84-.68,4.66-1.37,4.38-3.83s.69-3.15,5.76-4.52a47.14,47.14,0,0,1,14.92-.83l8.63.83L540,218.69l-2.33-3.43,13.15-1c12.05-.82,12.87-1.09,11.64-3.42-1.51-2.88-.28-3.29,14.79-4.93,7.67-.69,8.63-1.1,8.08-3.42s.14-2.61,9.45-2.61c9.72,0,10.13-.13,8.76-2.6-.68-1.5-1-3-.41-3.28s6-1.1,12-1.65c12.6-1.23,13.7-1.64,11.51-4.24-1.78-2.19-2.2-2.19,11.36-2.47,10.55-.27,10.68-.27,15.34,4.52,2.47,2.74,7.26,10.13,10.55,16.57,15.33,29.72,48.06,62.17,75.86,74.77,4.25,1.92,8,3.29,8.36,3s-3.84-6.17-9.32-12.88C682,201,683,136.38,741.57,73.66c11.92-12.74,11.37-14.52-2.74-8.49-28.75,12.32-58.47,39.3-76.69,69.84-3.56,6-8.07,12.74-10.27,15.2-3.56,4-4.52,4.39-16.16,5.21-10,.68-12.05.54-10.54-.82a6.62,6.62,0,0,0,1.64-3.43c0-2.19-9.58-3.83-11.36-2s-8.08,1.91-13,.68c-3-.82-3-1-.83-3.56,1.79-1.78,1.92-3,1-4-1.5-1.51-6-1.23-16.84,1l-4.79,1,2.6-3c1.5-1.5,2.19-3.28,1.64-3.83-1.09-1.1-8.49-1-16.57.27-7.12,1-10.27-.82-7.8-4.79a14.19,14.19,0,0,0,1.64-3.56c0-.82-8.22-.14-17.8,1.51-6,1-9.45-1-7-4,1-1.1,1.37-2.74.82-3.57-1.09-1.78-9.31-1.78-13.55.14-2.61,1.23-4.93,1.23-9.59-.14-5.34-1.5-6-2-4.93-4.24,1.92-3.56,1.78-3.7-3.56-4.79-3-.55-5.48-.28-6.44.68-1.91,1.92-7.8,1.92-12.6.14-3-1.1-3.28-1.78-2.05-4.11s1-2.74-2.19-3.56a15.24,15.24,0,0,0-8.08.68c-5.21,1.78-8.9,1.92-11.64.14-1.65-1-1.65-1.64-.28-3a5.93,5.93,0,0,0,1.65-2.74c0-1.51-10.14-1.37-14.38.27a13.81,13.81,0,0,1-7,.55l-3.42-.82,2.74-3c4.24-4.52,3.56-7.81-2.74-13.84-8.35-8.21-11.23-13.69-10.27-18.89,2-11.37,24.38-38.49,44.37-54,6.44-5.07,11-9.45,10.13-9.72-2.32-.69-23.28,9.45-34.78,16.84-19.17,12.46-45.19,36.84-62.72,58.61-3.43,4.25-6.57,7.67-7,7.81s-4.24-2.19-8.21-4.93c-10-6.71-19.86-11-36.16-15.61-14.24-4-24-7.95-24-9.86,0-.55-.82-.69-1.92-.28s-6.44-1.64-12.05-4.52-12.05-6-14.38-7S279,42,279,41.2s-1.23-1-2.87-.54-3.7-.28-5.48-2.19a10,10,0,0,0-6-2.88c-2.19,0-4.11-1.51-6-4.52a17.6,17.6,0,0,0-6.17-6.16c-2.19-1-4-3.43-5.06-7-1-3.28-2.6-5.61-4.11-6s-3.42-2.74-4.52-5.21l-1.92-4.52Z"/></svg>