<svg id="Layer_1" data-name="Layer 1" xmlns="http://www.w3.org/2000/svg" viewBox="0 0 750 350"><defs><style>.cls-1{fill:none;}.cls-2{fill:#0d4d71;fill-rule:evenodd;}</style></defs><title>fish--bonefish</title><path class="cls-1" d="M11,199.9h0"/><path class="cls-2" d="M236.38,273.41c2.7,10.95-4.73,15.64-11.22,20.31-9.87,7.1-20.26,13.49-30.44,20.18-1,.65-2,1.22-3.05,1.84-9.28-4.74-9.46-6.1-8.71-16.91.72-10.25.16-20.58.16-31.09-18.52-3.65-36.47-7.33-54.48-10.69-6.93-1.3-14-2.6-21-2.68-22.92-.25-45.85.07-68.78.18-3.59,0-7.23.53-10.73,0-1.69-.25-4.09-2.16-4.37-3.65s1.66-3.41,2.78-5c1-1.4,3.08-2.72,3-4a5.8,5.8,0,0,0-3.13-4.24,47.68,47.68,0,0,0-12-2.51C5.91,234.66,1,230.93,0,223.09a4,4,0,0,1,1.32-3C13,211,24,200.86,36.67,193.45c19.71-11.54,40.58-21.07,60.85-31.66,19.36-10.11,40.1-16.16,61.2-21.2,13.07-3.13,26.1-6.49,39.25-9.21a162,162,0,0,1,22.2-2.71c16-1,32-1.65,48-2.47,15.21-.78,30.4-1.71,45.61-2.32,5.44-.22,7-4.77,9.09-8,7.19-10.89,13.18-22.59,20.62-33.3,9-13,18.94-25.28,28.67-37.73,3.62-4.63,7.79-8.82,12.7-14.32C385,66.84,399,94.63,428.24,115.6L409,135.19c5.2,1.14,9.17,2.25,13.21,2.85,17,2.52,34.11,4.87,51.17,7.33,13.37,1.93,26.71,4,40.09,5.85,4.66.64,9.4.83,14.1,1.07,10.49.54,21,1.37,31.5,1.36,24.5,0,45.88-8.73,64.39-24.53,12-10.26,24.13-20.44,35.49-31.39C672.23,84.9,684.54,71,697.78,58.08,704.32,51.69,712,46.42,720,41.58c-4.84,8-9.87,15.85-14.51,24-7.58,13.2-15.3,26.34-22.23,39.88-5.36,10.47-9.89,21.39-14.24,32.32-2.12,5.32-2.89,10.79,1.67,16.09,3.63,4.21,5.62,9.81,9.06,14.22,2.06,2.65,5.64,4.06,8.33,6.26q25,20.44,49.79,41,5.85,4.85,11.38,10.06c.65.61.91,2.86.57,3.08-1.38.84-3.28,2-4.62,1.6-12.62-3.31-25.11-7.08-37.72-10.39-11.67-3.06-23.57-5.34-35.16-8.67-16.07-4.61-31.85-10.24-48-14.69-5.22-1.44-11-2.23-16.53,1.36-3.85,2.49-8.71,3.41-13.09,5.1-1.61.62-3.15,1.42-5.48,2.49,5.7,2.58,4.52,5,1.37,8.2-7.64,7.71-11,16.67-8.21,27.77,1.28,5.08,1.16,10.55,1.31,15.86,0,1.54-1.19,3.12-1.84,4.69-1.54-.75-3.37-1.17-4.56-2.29-9.35-8.73-18.52-17.65-27.93-26.33a5.24,5.24,0,0,0-4.5-.56c-18.38,7-36.55,14.66-55.08,21.23-13.56,4.81-27.58,8.29-41.39,12.38-1.23.36-2.4.93-4.25,1.66,3.75,2.92,7.14,5.16,10,7.94,1.35,1.32,2.67,3.95,2.27,5.57-2.41,9.66-5.52,19-11.77,27.14s-18.57,13-28.47,10.11a6.72,6.72,0,0,1-3.8-3.16c-5.54-11.68-11.07-23.38-16.13-35.27-1.64-3.85-3.58-5.72-7.82-5.68-13.12.14-26.24-.08-39.36.08-23.27.29-46.54,1-69.81,1-10.23,0-20.47-1.5-30.71-2.17C244.85,273.21,241.08,273.41,236.38,273.41Z"/></svg>