<svg id="Layer_1" data-name="Layer 1" xmlns="http://www.w3.org/2000/svg" viewBox="0 0 750 350"><defs><style>.cls-1{fill:#004976;}</style></defs><title>fish--tarpon</title><path class="cls-1" d="M394.36,30.93c-15.6,11.55-35.57,31.52-51.17,51.17l-15.29,19L284.84,103c-77.39,3.43-153.53,16.23-205,33.7-15.6,5.62-34.33,10.3-41.5,10.61-7.49.31-14.36,1.25-15.29,2.5-1.25,1.24-5.62,2.18-9.68,2.18-4.68,0-8.42,2.81-10.92,7.8-4.36,10,2.81,30,16.54,45.25,5.31,5.93,8.43,8.73,7.49,6.24-1.25-2.5.94-.94,5,3.74,15.6,17.48,83,42.75,115.46,43.06,5.92,0,12.79,1.87,15,3.75,3.44,3.43,4.06,3.12,2.19-.63-1.25-2.49.31-1.25,4,3.12,6.25,7.8,6.25,7.8,63.66,7.8l57.41.32,20.6,20.28c11.54,11.23,21.53,20,22.46,19s1.57,0,1.57,1.87c0,4.06,6.55,3.75,9.67-.62,2.49-3.43-.31-26.52-3.75-33.7-2.49-4.68.63-5.3,34.95-6.24l37.76-.94L433.05,294c11.24,11.85,19.66,19.65,18.1,17.16-1.25-2.5,0-1.87,2.81,1.56s6.55,5.93,8.11,5.62c1.56-.63,2.81.62,2.81,2.49,0,1.56,1.56,2.19,3.12,1.25,1.87-.94,3.12-.62,3.12.62,0,1.56,2.81,2.81,6.55,3.12,5.93.63,6.24-.62,4.06-21.21l-2.18-21.85L493.9,269c13.1-12.17,43.37-29.33,78-43.37,13.42-5.3,14.35-8.74,4.68-13.73-5.93-3.12-3.75-3.43,12.48-2.81,10.92.31,20.59,1.56,21.53,3.12.62,1.25,2.81,1.56,4.37.63,1.56-1.25,2.81-.31,2.81,1.87s.93,2.81,2.18,1.87c.94-1.25,3.75.31,6.24,3.43,3.12,3.44,3.75,3.75,2.5.63-1.25-2.5,2.49.31,7.8,6.24s9,8.74,7.8,6.24,2.5.31,7.8,6.24,8.74,8.74,7.49,6.24c-1.56-2.5,2.81.63,9.36,7.18S681.43,264,682.37,263.4c.62-.94,4.68,1.87,9,6.24,4.05,4.05,9.05,6.55,10.61,5.61,1.87-.93,3.12-.31,3.12,1.56s7.8,7.18,17.16,11.24c13.42,6.24,18.41,7.17,21.84,4.37,8.74-7.18-8.11-39.32-44.62-84.57-10.61-13.41-19.35-26.83-19.35-30.26s7.18-15,15.92-25.9c23.09-28.4,52.73-74.27,52.73-81.13,0-15.29-32.14-1.25-95.17,42.12l-31.2,21.22-46.81-1.56c-49.61-2.18-64.28-4.37-57.1-8.73,7.49-4.69-1.56-8.74-38.07-15.61-54-10.29-58.66-11.85-65.84-19.34-5.93-6.24-6.55-9.36-4.68-35.89C411.83,21,410.27,18.76,394.36,30.93Z"/></svg>