<svg id="Layer_1" data-name="Layer 1" xmlns="http://www.w3.org/2000/svg" viewBox="0 0 750 350"><defs><style>.cls-1{fill:#004976;}</style></defs><title>fish--redfish</title><path class="cls-1" d="M268.66,248.87c31.84,16.89,26.83,48.9,33.34,75.64.91,3.78-.23,9.23-4.23,10.88-4.5,1.86-9-.85-12.78-4-19.83-16.26-38.76-33.87-50.56-56.63s-28.12-29.32-53.26-29.23c-49.78.18-99.45-4.91-148.11-16.77-1.51-.37-3-.85-4.47-1.36-6.3-2.2-14.88-3.39-15.31-11.06-.36-6.24,8.24-6.43,12.84-9.34,1.27-.8,2.55-1.57,5.33-3.28-7.14-4.21-13.73-7.54-19.7-11.75-15.62-11-15.39-20.25-.17-31.32,36.9-26.85,77-46.68,121.65-57.1,21.19-5,42.19-10.87,63.53-15,13.19-2.55,23.29-7,27.91-20.71,2.12-6.3,6.16-12,9.38-17.88,3.57-6.56,4.28-15.49,15.37-15.23,3.93.09,6.15-5,8.31-8.61,4.92-8.2,5-8.11,14-6.63A7.59,7.59,0,0,0,278.64,17c3.73-3.7,6.81-5.19,3.88,2.39a3.55,3.55,0,0,0,3.69,5c7.53-2.69,7.41.25,5.65,6.11-.85,2.81-1.16,7.19,2.1,8.4,4,1.49,3.28-6.18,8.22-5,1.48,5.25-6.78,10.56-1,16.08.47.44,3.84-2.16,9.25-5.33-12.59,17.43,3.24,23,8.46,33,11.85,22.67,25.83,10.1,37.36,1.72C394,52,433.3,63.85,470.34,76.78a377.07,377.07,0,0,1,102.49,55.13c2.38,1.79,4.66,3.71,7.7,6.14-6.31,5.67-14.63,3.32-22.22,8.42,29.66,6.77,55.75,4.1,79.63-12.33A533,533,0,0,1,714.77,90,119.91,119.91,0,0,1,749.9,79.38c-30.32,61-20.61,122.06-8,184.41C728.2,265.52,714,255.4,699,249.44a185.75,185.75,0,0,1-41.84-23.88c-37.62-28-78.82-24-120.67-13.46-9.55,2.4-18.84,5.81-28.29,8.76.19.89.12,2.55.65,2.78,17.91,7.59,24.85,20,19.73,39.59-2.72,10.42,4.94,19.88,6,30.27,1.15,11.5-2.78,14.47-12.88,9.24-24.53-12.7-48.64-26.21-66.07-48.38-8.54-10.87-16.69-16.25-32.28-14.43a1146.86,1146.86,0,0,1-146.16,7.78C274.35,247.68,271.5,248.47,268.66,248.87Z"/></svg>