<svg id="Layer_1" data-name="Layer 1" xmlns="http://www.w3.org/2000/svg" viewBox="0 0 750 350"><defs><style>.cls-1{fill:#0d4d71;fill-rule:evenodd;}</style></defs><title>fish--pike</title><path class="cls-1" d="M592.53,147.44c18.23-13.55,20.23-22.4,9.64-40.84-6.69-11.66-8.33-26.13-21.73-34.24-8.12-4.92-15-5.9-23.15-2.16A96.19,96.19,0,0,0,523,96.9c-13,15.7-28.57,22.94-49.57,21.28-24.72-2-49.67-1.86-74.46-1.94-72.52-.24-145.13-.2-217,12.42-24.53,4.32-47.66,13.75-71.89,19.27-28.72,6.54-55.83,19.54-85.69,21.72a28.64,28.64,0,0,0-8,1.85C8.93,174.4.6,178.43,0,186.66-.5,194,8.41,196,14.19,199.15c40.07,21.76,84.69,25.75,128.54,32.39,12.24,1.86,22.24,3.69,27.7,17.25,5.84,14.49,16,26.07,31.92,31.38,11.54,3.84,14.57,2.41,15.11-9.32.37-8.23,2.25-16.4.33-24.74-1.53-6.61,1.1-9.41,8.3-8.49,45.09,5.79,90.41,6.24,135.76,5.2,5.61-.13,8.56,1.68,11.48,6.05a87.48,87.48,0,0,0,32.3,28.87c15.59,8.25,26.69,1.4,26.14-16.24-.15-4.7-.39-9.66-1.93-14-3.14-8.83-1.11-12,8.59-11.23,21.31,1.59,42.54-.95,63.79-2.17,8.14-.48,14.34,2.1,19.79,8.23,12.06,13.58,24.63,26.58,41.23,35,12.21,6.2,17.62,5.27,26.87-4.77,8.63-9.37,16.84-18.06,16-32.66-.61-10.87-2-20.28-12.56-27.42,21.09-5.86,40.46-5.54,59,4.29,18.81,10,37.32,20.5,56.2,30.31,9.1,4.73,18.77,8.46,29.28,8.59,10,.11,12.42-3.31,6.56-10.94-12.12-15.77-16.57-34.76-23.75-52.6-3.64-9.06-2.7-18.88.4-27.87,6.54-18.91,12.93-38,24.47-54.68,2.7-3.91,6.12-8.32,3-13-3.42-5.13-8.71-1.86-13-.69-15.34,4.17-29.64,10.52-42.16,20.68-9.18,7.45-19.39,13.71-28.17,21.58C643.68,157.71,619.42,154.54,592.53,147.44Z"/></svg>