<svg id="Layer_1" data-name="Layer 1" xmlns="http://www.w3.org/2000/svg" viewBox="0 0 750 350"><defs><style>.cls-1{fill:none;}.cls-2{fill:#004976;fill-rule:evenodd;}</style></defs><title>fish--bluegill</title><path class="cls-1" d="M11,199.9h0"/><path class="cls-2" d="M453,212.41c3.67-1.7,7.21-4.41,11-4.95,20.06-2.78,40.18-5.05,60.3-7.4a9,9,0,0,1,4.38.61c18.37,7.8,38.35,11.45,55.26,23.16,10.31,7.14,21.88,12.57,33.14,18.24,18.09,9.09,25.63,3.57,33.55-16.8,3.82-9.8.86-19.82-4.41-28.49-5.35-8.82-11.83-16.95-17.81-25.38,6.14-10.85,13.2-21.93,18.79-33.71a74.74,74.74,0,0,0,6.6-23.38c1.24-11.17-5.83-18-17.11-17.23a51.88,51.88,0,0,0-17.87,4.38c-10.52,4.89-21.32,9.83-30.6,16.65-30.39,22.33-64.62,23.91-100,20.27A129.7,129.7,0,0,1,467,134c15.11.22,25.89-6.88,33.5-19,14.23-22.71,6.76-52.31-16.83-66.49C466,37.85,446.25,33.17,426.23,29.3c-2.72-.53-5.16-2.46-8.62-4.18-3.52,4.09-8.09,9.41-12.68,14.73l-2.28-.5c-.33-5.9-.64-11.81-1-18.55L387,34.79c-.47-8.67-.82-15.22-1.26-23.37L371,27.25l-2.35.15Q366.78,16.77,365,6.19L350.58,22.31,348,21.65C347.57,14.82,347.1,8,346.57.11c-6.1,7.25-11.72,13.93-19,22.59-1.31-8.52-2.29-14.89-3.5-22.7L308.66,26.57l-2.23.4c-2-6-4-11.94-6.52-19.31l-15,28-7.5-16.75c-2.34,8.59-4.48,16.45-7.31,26.81l-7.35-14.42c-1.15,6.74-2.18,12.76-3.39,19.89l-4-5.68c-.46.8-1,1.32-1,1.86-.21,7.15,2.2,16.15-1.24,20.94s-12.75,5-19.41,7.42c-25.62,9.38-47,24.91-66.28,44.07C157.1,130,145,138.39,133.63,147.56c-6.72,5.44-13.88,10.45-19.9,16.57-1.45,1.46.84,6.6,1.4,10l-10.34-1c3.53,5.19,5.3,9.74,8.61,12.34,15.52,12.19,31.46,23.86,47.29,35.66,1.77,1.32,4.16,1.92,5.69,3.42C192,249.76,224.23,260,258.5,265.43c5.33.85,7.58,3.15,9.11,7.94,4.21,13.21,8.56,26.37,13.5,39.31,1.07,2.79,4.91,4.49,7.39,6.8a43,43,0,0,1,4.39,4.56c7.05,8.79,14,17.64,20.89,26.28,1.4-6.75,2.53-12.18,3.65-17.6,3.06-14.78,6.23-29.53,9.12-44.35,2.27-11.61-6.29-17.34-15.28-25,16.83,1,32.15,2.82,46.69-6.35,2.84,11.61,5.43,22.18,8,32.75l1.19.06,3.26-11.46c6.5,8.78,12.42,16.79,19.07,25.79,2.44-5.76,4.41-10.43,6.8-16.1l19.39,14.91c-.46-6.7-.88-12.59-1.44-20.62,6.22,5,10.66,8.74,15.35,12.16,1.86,1.36,4.51,3.09,6.43,2.72,17.56-3.39,35-7.32,48.68-20.18,7.66-7.19,12.85-15.67,13.39-26.49,1-19.9-11.9-34.38-31.83-35.53-4.13-.24-8.28,0-12.41,0C453.57,214.11,453.29,213.26,453,212.41Z"/></svg>