<svg id="Layer_1" data-name="Layer 1" xmlns="http://www.w3.org/2000/svg" viewBox="0 0 205.25 167.63"><defs><style>.cls-1{fill:#004876;}.cls-2{fill:none;stroke:#fff;stroke-miterlimit:10;stroke-width:2.53px;}.cls-3,.cls-5{fill:#fff;}.cls-4{fill:#f5a800;}.cls-5{fill-rule:evenodd;}</style></defs><title>IRT -Limited Warranty</title><path class="cls-1" d="M62.27,290.69c11.38-6.74,48.44-22.11,79.4-22.32s79.6,17.46,79.6,21.9c0,.11,2,45.12-8.42,79.6-13.48,44.65-60.44,66.34-70.76,66.13S84.6,413.89,69.65,369.45,62.27,290.69,62.27,290.69Z" transform="translate(-38.51 -268.37)"/><path class="cls-2" d="M68.4,295.48c10.49-6.21,44.66-20.39,73.21-20.58S215,291,215,295.09c0,.1,1.83,41.61-7.77,73.41-12.43,41.16-55.73,61.16-65.25,61S89,409.08,75.2,368.11,68.4,295.48,68.4,295.48Z" transform="translate(-38.51 -268.37)"/><path class="cls-3" d="M52.1,370.89a3.25,3.25,0,0,1-1.91-.47c-.84-.56-2.09-1.4-4.24-15.62l-7.44-4,6.19-6.73c-2.81-14.23-2.42-15.4-2.21-16,.53-1.57,1-2,11.13-3.34,6.11-.83,14.16-1.74,22.65-2.57,13-1.25,37.92-3.35,59.7-3.35l3.48,0c21.93.25,48.51,2.47,62.41,3.77,12.85,1.2,34.68,3.43,36.59,4.86,1,.75,2.83,2.12-.11,16.47l5.41,6.63-7,4.12c-.43,15.21-2.84,15.7-4.31,16a4.4,4.4,0,0,1-.8.07c-1.16,0-3.86-.29-9.38-.89-15.29-1.64-47.1-5.07-81.83-5.17H139c-32.63,0-61.35,3.39-76.77,5.22C56.84,370.51,53.56,370.89,52.1,370.89Z" transform="translate(-38.51 -268.37)"/><path class="cls-4" d="M42.41,350.15l4.91-5.34s-3-14.74-2.52-16,57.14-8,94.62-7.58,95.89,6.88,97.57,8.14-1.26,15.16-1.26,15.16l4.35,5.34-5.75,3.37s-.28,14.6-2.39,15-44.08-5.9-91.54-6c-47.19-.14-87.6,7-88.87,6.18s-3.36-15.16-3.36-15.16Z" transform="translate(-38.51 -268.37)"/><path class="cls-3" d="M81.17,355.2l-7-15.75-3.54,16.87-2.26.24L59.88,337.9l2.38-.25,7.09,16.21,3.46-17.31,2.21-.26,7.1,16.21,3.46-17.34,2.29-.24-4.43,20Z" transform="translate(-38.51 -268.37)"/><path class="cls-3" d="M92.72,349.19l-1.79,5.07-2.36.18,7.25-20.06,2.3-.18L108.25,353l-2.41.18-2.53-4.74Zm4.37-12.37L93.5,347l8.71-.65Z" transform="translate(-38.51 -268.37)"/><path class="cls-3" d="M119.59,346.28c-.41.05-.85.09-1.3.11l-5.16.21.25,6.14-2.22.09-.8-19.44,7.38-.3c4.86-.2,7.77,2.07,7.94,6.21.13,3.22-1.34,5.45-4.1,6.48l4.82,6.43-2.52.1Zm-1.39-2c3.53-.14,5.47-1.78,5.34-4.81s-2.18-4.36-5.71-4.21l-5.16.21.37,9Z" transform="translate(-38.51 -268.37)"/><path class="cls-3" d="M139.75,345.9c-.42,0-.86.06-1.31.06h-5.17v6.14h-2.22l0-19.46h7.39c4.87,0,7.68,2.37,7.69,6.52,0,3.22-1.55,5.39-4.36,6.31l4.57,6.61h-2.53Zm-1.31-2.08c3.53,0,5.53-1.56,5.53-4.6s-2-4.44-5.54-4.43h-5.17v9Z" transform="translate(-38.51 -268.37)"/><path class="cls-3" d="M152.84,347.33l-2.33,4.85-2.37-.08,9.37-19.16,2.31.08,8.05,19.73-2.41-.08-2-5Zm5.67-11.83-4.66,9.73,8.73.28Z" transform="translate(-38.51 -268.37)"/><path class="cls-3" d="M184.65,353.79,174,337.47l-1,15.59-2.22-.14L172,333.51l2.31.14L185,350l1-15.62,2.19.14-1.22,19.42Z" transform="translate(-38.51 -268.37)"/><path class="cls-3" d="M200.09,337.67l-1.48,17.25-2.22-.19,1.49-17.25-6.32-.55.19-2.13,14.87,1.28-.19,2.13Z" transform="translate(-38.51 -268.37)"/><path class="cls-3" d="M215,356.5l-2.19-.23.68-6.55-6.17-13.58,2.29.24,5.24,10.74,7.23-9.45,2.27.23-8.67,12Z" transform="translate(-38.51 -268.37)"/><path class="cls-3" d="M114.15,312.19v.35h-5.89V300.18h.35v12Z" transform="translate(-38.51 -268.37)"/><path class="cls-3" d="M116.94,312.54V300.18h.36v12.36Z" transform="translate(-38.51 -268.37)"/><path class="cls-3" d="M133.11,312.54l0-12-5.43,10.66h0l-5.45-10.66v12h-.36V300.18h.62l5.22,10.24,5.18-10.24h.62v12.36Z" transform="translate(-38.51 -268.37)"/><path class="cls-3" d="M138,312.54V300.18h.36v12.36Z" transform="translate(-38.51 -268.37)"/><path class="cls-3" d="M145.44,300.54v12h-.36v-12h-4.24v-.36h8.84v.36Z" transform="translate(-38.51 -268.37)"/><path class="cls-3" d="M152.53,300.54V306h6.56v.35h-6.56v5.84h7.62v.35h-8V300.18h7.73v.36Z" transform="translate(-38.51 -268.37)"/><path class="cls-3" d="M168.43,300.18a6.18,6.18,0,1,1,0,12.36h-4.86V300.18Zm-4.51,12h4.51a5.83,5.83,0,1,0,0-11.65h-4.51Z" transform="translate(-38.51 -268.37)"/><path class="cls-5" d="M145.7,402.72l-3.23.28-.49,0h-.25c-.73,0-1.48.17-2.21.14s-1.24.07-1.86.09l-.3,0-.89.06c-.92.05-1.84.14-2.76.2a27.58,27.58,0,0,1-2.85.23c-.82,0-1.62.08-2.42.12-1.21.06-2.41.18-3.61.27-.89.06-1.78.13-2.66.21a7.83,7.83,0,0,0-2.14.38c-.15.06-.33,0-.49.08s-.14,0-.14-.13-.05-.3-.06-.43c0-.8-.24-1.57-.3-2.36a5,5,0,0,0-.06-.87,16.38,16.38,0,0,1-.27-2.79,13.73,13.73,0,0,1-.08-1.7,20.85,20.85,0,0,0-.18-2.08c0-.33,0-.65-.07-1-.08-.76-.09-1.53-.15-2.3-.12-1.5-.26-3-.29-4.5,0-.88-.14-1.77-.19-2.66s-.14-1.59-.19-2.39a.84.84,0,0,0-.15-.56,1,1,0,0,1,.37-1.39c1.11-.56,2.18-1.18,3.29-1.72a15.08,15.08,0,0,1,2.38-1.1c.22-.06.41-.21.64-.26s.24,0,.25.19c0,.7.09,1.39.13,2.09,0,.21.09.22.29.26.51.09,1-.1,1.53,0a2.29,2.29,0,0,0,.5-.05l3-.07c.6,0,1.2,0,1.8-.07a18,18,0,0,0,2.07-.25,6.86,6.86,0,0,1,1-.07c.63-.05,1.27-.07,1.9-.1a22.11,22.11,0,0,0,3.62-.37,21.2,21.2,0,0,1,2.12-.3c.91-.1,1.82-.15,2.73-.21s1.78-.13,2.66-.22c.58-.05,1.14,0,1.71-.05,1-.09,2-.22,3-.26a5.75,5.75,0,0,1,1.44,0,2.6,2.6,0,0,0,.87-.05,16.18,16.18,0,0,1,2.08-.16,11.68,11.68,0,0,1,1.87,0,.84.84,0,0,1,.55.52.87.87,0,0,0,1.13.36,3,3,0,0,1,.65-.13,1,1,0,0,1,.17,0c.44-.08.46,0,.53.46a6.31,6.31,0,0,0,.78,2.23,1.57,1.57,0,0,1,.1.28,2.71,2.71,0,0,0,1.48,1.74,2.85,2.85,0,0,0,.91.29,3.38,3.38,0,0,1,.63.23c.13,0,.06.15,0,.23a11.24,11.24,0,0,0-.93,1.46,12.18,12.18,0,0,1-1.6,2.09,2.25,2.25,0,0,0-.66,1.08.73.73,0,0,0,.07.62.53.53,0,0,1,0,.64c-.11.23-.24.45-.37.67a2,2,0,0,0,.44,2.39,7.89,7.89,0,0,1,2,2.7,2.47,2.47,0,0,0,.56.85c.52.5.34.84-.18,1.37s-1.08.56-1.53,1-.61.77-1,1.1a2.26,2.26,0,0,1-.69.5c-.57.24-.71.8-.92,1.28a.86.86,0,0,1-.64.57c-1.07.07-2.14.09-3.2.22s-2.39.26-3.6.34c-.86.06-1.73.11-2.59.21a9.67,9.67,0,0,0-2.07.24,4.12,4.12,0,0,1-.94.07C147.09,402.63,146.4,402.69,145.7,402.72Zm-14.48-18.26.33,4.62,1.17-.08-.09-1.3.84-.06a1.63,1.63,0,0,0,1.73-1.84c-.07-1-.79-1.56-2-1.48Zm1.24.84.78-.05a.7.7,0,0,1,.86.67c0,.48-.24.76-.76.8l-.78,0Zm4.74,3.38-.32-4.62-1.18.09.33,4.61Zm5.18-.37-.33-4.61-1.09.07.2,2.85-2.33-2.69-1,.07.32,4.61,1.1-.08-.2-2.84,2.33,2.69Zm4.27-4-.06-.92-3.61.25.32,4.62L147,388l-.07-.93-2.51.18-.06-.93,2.2-.16-.07-.92-2.2.16-.07-.92Zm-21,10.79.08,1.19a1.92,1.92,0,0,1-.8.28,1.37,1.37,0,0,1-.2-2.74,1.93,1.93,0,0,1,1.26.41l.61-.84a3,3,0,0,0-1.94-.55,2.41,2.41,0,0,0-2.38,2.52,2.37,2.37,0,0,0,2.64,2.19,3.63,3.63,0,0,0,1.87-.74l-.13-1.8Zm4.78,2,1.33-.1-1.08-1.45a1.54,1.54,0,0,0,.73-1.54c-.07-1-.81-1.56-2-1.48l-2.06.15.33,4.61,1.17-.08-.09-1.3.89-.06h0ZM128.64,395l-.1-1.47.89-.06c.51,0,.82.18.85.66s-.24.77-.75.81Zm5.62-2.84a2.36,2.36,0,0,0-2.33,2.51,2.51,2.51,0,1,0,2.33-2.51Zm.08,1a1.3,1.3,0,0,1,1.37,1.27,1.32,1.32,0,0,1-1.18,1.47,1.35,1.35,0,0,1-1.4-1.29A1.33,1.33,0,0,1,134.34,393.14Zm5.83,3.27,1.49-4.74-1.21.09-.94,3.48-1.42-3.32-1.25.09L139,396.5Zm5.62-4.1-.07-.93-3.61.26.33,4.61,3.68-.26-.06-.92-2.51.18-.07-.93,2.2-.16-.06-.92-2.2.16-.07-.92Zm1.36,2.56a.53.53,0,0,0-.51.58.5.5,0,0,0,.25.42l-.25.72.54,0,.43-.73a.77.77,0,0,0,.12-.44A.53.53,0,0,0,147.15,394.87Zm2.52-3.76.33,4.61,1.17-.08-.09-1.3.83-.06c1.19-.09,1.82-.76,1.74-1.84s-.79-1.56-2-1.48Zm1.24.83.78-.05a.7.7,0,0,1,.86.67c0,.48-.25.76-.76.8l-.78.05Zm6.23,2.42.39.82,1.25-.08-2.27-4.48-1.21.09-1.66,4.75,1.21-.09.27-.87Zm-.41-.87-1.33.1.55-1.76Z" transform="translate(-38.51 -268.37)"/><polygon class="cls-5" points="102.81 10.42 104.18 13.21 107.25 13.65 105.03 15.82 105.56 18.88 102.81 17.43 100.06 18.88 100.59 15.82 98.37 13.65 101.44 13.21 102.81 10.42"/><polygon class="cls-5" points="91.58 14.35 92.95 17.14 96.02 17.58 93.8 19.75 94.33 22.81 91.58 21.36 88.83 22.81 89.36 19.75 87.14 17.58 90.21 17.14 91.58 14.35"/><polygon class="cls-5" points="114.04 14.35 115.42 17.14 118.49 17.58 116.26 19.75 116.79 22.81 114.04 21.36 111.3 22.81 111.82 19.75 109.6 17.58 112.67 17.14 114.04 14.35"/></svg>