<svg id="Layer_1" data-name="Layer 1" xmlns="http://www.w3.org/2000/svg" viewBox="0 0 750 750"><defs><style>.cls-1{fill:#004876;}.cls-2{fill:#fff;}.cls-3{fill:#f5a800;}.cls-4{fill:#002554;}</style></defs><title>icon--customer-service</title><path class="cls-1" d="M331.51,242.26a76.63,76.63,0,1,1,76.62-76.62A76.71,76.71,0,0,1,331.51,242.26Z"/><path class="cls-2" d="M331.5,98.5a67.14,67.14,0,1,1-67.13,67.14A67.14,67.14,0,0,1,331.5,98.5m0-19a86.12,86.12,0,1,0,86.12,86.12A86.21,86.21,0,0,0,331.5,79.52Z"/><path class="cls-1" d="M505.1,264.58a23.17,23.17,0,0,0-31.84,10.62l-25.8,55a6.49,6.49,0,0,1-11.86.1L400.78,253.5a79.69,79.69,0,0,0-18.6-24,81.33,81.33,0,0,1-108.63-6.48,117.53,117.53,0,0,0-38.13,31.68s-32.83,36.11-60.53,67.21A57.86,57.86,0,0,0,175,399l39.3,44a22.52,22.52,0,0,0,35.15-2l.26-.37a22.48,22.48,0,0,0-1.23-27.6l-34.75-40.78a17,17,0,0,1,3.61-25.3L256.79,321a2.49,2.49,0,0,1,4.43,1.66L246.34,716.3a13.42,13.42,0,0,0,13.41,13.93H314a11.21,11.21,0,0,0,8.41-18.63L307,694.06a23.06,23.06,0,0,1-1.22-11.92l28.86-179a1.24,1.24,0,0,1,2.45.07l23.46,216a12.32,12.32,0,0,0,12.25,11H421a13.37,13.37,0,0,0,11.12-20.78L408,673.23a33.66,33.66,0,0,1-5.64-17.48l-10.92-304.7,14.69,22.56c18.94,29.11,62.51,26,77.13-5.5l32.24-73.79A23.17,23.17,0,0,0,505.1,264.58Z"/><polygon class="cls-3" points="102.74 478.38 136.52 452.69 127.55 494.17 162.42 518.36 120.2 522.65 107.96 563.29 90.84 524.46 48.41 525.38 80.05 497.09 66.06 457.03 102.74 478.38"/><polygon class="cls-3" points="62.02 329.76 99.95 310.71 83.52 349.84 113.36 380.01 71.07 376.49 51.59 414.19 41.88 372.88 0 366.01 36.29 344 29.88 302.05 62.02 329.76"/><polygon class="cls-3" points="100.05 187.59 142.47 188.79 109.46 215.46 121.43 256.18 85.86 233.02 50.84 256.99 61.87 216.01 28.25 190.11 70.63 187.93 84.88 147.96 100.05 187.59"/><polygon class="cls-3" points="647.26 478.38 613.48 452.69 622.45 494.17 587.58 518.36 629.8 522.65 642.04 563.29 659.16 524.46 701.59 525.38 669.95 497.09 683.94 457.03 647.26 478.38"/><polygon class="cls-3" points="687.98 329.76 650.05 310.71 666.48 349.84 636.64 380.01 678.93 376.49 698.41 414.19 708.12 372.88 750 366.01 713.71 344 720.12 302.05 687.98 329.76"/><polygon class="cls-3" points="650.3 187.59 607.88 188.79 640.88 215.46 628.91 256.18 664.48 233.02 699.5 256.99 688.48 216.01 722.09 190.11 679.71 187.93 665.46 147.96 650.3 187.59"/><path class="cls-2" d="M255.36,401.63v51.69a35.4,35.4,0,0,0,4.39-5L260,448a35.07,35.07,0,0,0-1.92-43.12Z"/><rect class="cls-2" x="445.93" y="82.87" width="121.51" height="165.54" transform="translate(-2.4 7.52) rotate(-0.85)"/><path class="cls-4" d="M440.93,255.71,438.3,77.54l134.14-2,2.63,178.17ZM451.13,90l2.26,152.88,108.84-1.62L560,88.39Z"/><rect class="cls-1" x="465.56" y="138.76" width="49.54" height="12.65"/><rect class="cls-1" x="465.56" y="174.62" width="49.54" height="12.65"/><rect class="cls-1" x="465.56" y="210.48" width="49.54" height="12.65"/><circle class="cls-2" cx="550.91" cy="78.63" r="47.81"/><path class="cls-3" d="M552,21.42a57.21,57.21,0,1,0,57.21,57.21A57.22,57.22,0,0,0,552,21.42Zm0,101.41a44.2,44.2,0,1,1,44.2-44.2A44.19,44.19,0,0,1,552,122.83Z"/><path class="cls-3" d="M547.24,103.42a5.39,5.39,0,0,1-4.71-2.79c-8.18-14.95-13.63-17.36-13.69-17.39a2,2,0,0,0,.38.12L531.86,73c1.74.44,7.22,2.68,14.8,13.81,7-14,22.06-41,41.56-59.25l3.93-3.66,7.31,7.84-3.92,3.66c-25.14,23.45-43.21,64.43-43.38,64.84a5.38,5.38,0,0,1-4.68,3.21Z"/></svg>