<svg id="Layer_1" data-name="Layer 1" xmlns="http://www.w3.org/2000/svg" xmlns:xlink="http://www.w3.org/1999/xlink" viewBox="0 0 500 300"><defs><style>.cls-1{fill:none;}.cls-2{fill:#004876;}.cls-3{clip-path:url(#clip-path);}.cls-4{fill:#fff;}</style><clipPath id="clip-path"><path class="cls-1" d="M218,282.16c.91-1.64.39-2.43-1.4-3.49-1.48-.88-2.34-2.78-3.51-4.2a16.74,16.74,0,0,0-2.78-2.8c-.61-1.44-1.27-2.87-1.81-4.33s-1-3.17-1.59-4.71a10.11,10.11,0,0,0-1.53-2.91c-1.82-2.14-3.72-4.21-5.72-6.18-.43-.42-1.37-.39-2.09-.44-2.17-.15-4.39.33-6.43-1.09-1-.71-4.68,1.52-5.3,2.71a62.7,62.7,0,0,1-3.83,6.41c-.25.37-1.59.41-2.1.09-1.71-1.07-3.27-2.39-4.91-3.58-1.26-.9-2.6-1.71-3.86-2.62-3.16-2.3-4.33-5.48-4.65-9.33a9,9,0,0,0-5-7.54,5.36,5.36,0,0,1-1.62-1.46c-1.46-1.8-2.85-3.66-4.3-5.47a2,2,0,0,0-1-.66,2.4,2.4,0,0,1-2-2.28,3.23,3.23,0,0,0-2.07-2.08c-4.18-.89-8.41-1.53-12.62-2.24-1-.17-2.09-.28-3.28-.44-.19,1-.41,1.95-.52,2.87-.26,2.18-1.44,2.8-3.55,2.44-4.62-.78-9.26-1.42-13.9-2.12-3.7-.56-7.55-.68-11.07-1.82-3.37-1.1-6.44-3.17-9.56-5-8.11-4.69-16.18-9.47-24.27-14.22-1.2-.7-1.31-1.35-.46-3.32-2.53-.36-5-.74-7.53-1-4.79-.58-9.59-1.08-14.38-1.7a1.87,1.87,0,0,1-1.24-1.16,8.6,8.6,0,0,1-.06-2.82,10.6,10.6,0,0,0-3.59-9.4,2.39,2.39,0,0,1-.67-1,2.34,2.34,0,0,0-2.73-1.82c-1.15.06-1.77-.17-1.36-1.65.14-.51-.73-1.76-1.35-1.93a6.85,6.85,0,0,1-5.24-5.16,2.45,2.45,0,0,0-2.1-2A64.72,64.72,0,0,1,23,169.87c-.62-.26-1.08-1.37-1.2-2.15a4.76,4.76,0,0,1,.43-2.53c1.39-3.07-.21-5.42-1.6-7.92a21.64,21.64,0,0,1-2-5.19c-.57-2.37-1.2-4.58-3-6.41-1.29-1.32-.59-3.19.92-4.29.76-.56,1-1.81,1.51-2.79-3.3-1-5.31-6-4.07-9.37.85-2.27.11-3.77-1.37-5.38a5.68,5.68,0,0,1-.84-2.65c-.23-1.19-.21-2.44-.54-3.59a9.47,9.47,0,0,0-1.41-2.87c-2.49-3.49-2-6.87-.47-10.68,1.06-2.62.07-5.57-1.34-8.09a5.15,5.15,0,0,1,.71-6.39c1-1.08,1.78-2.33,2.71-3.45,2.5-3,2.77-6.83,2.52-10.28-.19-2.51.18-4.9.09-7.33a9.32,9.32,0,0,1,2-6.08c6.13-8.48,9.45-18.23,12.63-28,.6-1.84,1.41-3.61,2.12-5.41l.55.16c-.46-1-1.44-2.13-1.23-3s1.62-1.32,2.38-1.87L31,20.56h3.18c-3-2.39-2.86-5.4-2.48-8.44.19-1.46.58-2.86-.59-4.17-.27-.3-.1-1.09,0-1.62a14.08,14.08,0,0,1,.92-3,2,2,0,0,1,1.47-.66,12,12,0,0,0,8,4.51,9.5,9.5,0,0,1,2.09.92c.23-1.66.44-3.11.68-4.82.78-.1,1.94-.29,3.11-.34.22,0,.73.62.67.78-.73,1.82.87,2.14,1.72,3,1.12-1.61.85-2.82-.48-4.09-.49-.46-.42-1.51-.61-2.29A6.45,6.45,0,0,1,51,.07C56.34,1.66,61.55,3.63,66.91,5q15.51,3.95,31.17,7.35,16,3.48,32.23,6.4c8.3,1.49,16.66,2.62,25,3.75,8.58,1.16,17.16,2.29,25.76,3.13,8,.79,16.08,1.39,24.13,1.69,17.1.64,34.2,1,51.3,1.51a9.56,9.56,0,0,1,1.42,0c2,.32,2.83-.56,2.92-2.48a8.82,8.82,0,0,1,.44-1.77c2.95-.06,3.22,1.95,3.57,3.9a16.61,16.61,0,0,0,.66,2.91c.18.48.83,1.16,1.21,1.12a10.4,10.4,0,0,1,6.39,1.59,1.22,1.22,0,0,0,1.1-.09c2.1-2,4.1-1,6.17.06,1.67.89,3.18,2.82,5.48.89l.79,1.4a32.48,32.48,0,0,0,2.74,1.81,3.56,3.56,0,0,0,3.77-.45c1-.63,2-2,3.1,0,.07.12.7-.12,1.07-.11,1.74,0,3.39-.28,5.18.72,1.22.68,3.24-.3,4.84-.07,2.4.34,4.16-.72,6-1.92a1.51,1.51,0,0,1,1.23.09c-1.82,1.95-2.51,4.95-6.36,4.66-4.6-.34-8.71,1.89-12.72,3.9-.86.44-1.21,1.83-1.87,2.73a27.09,27.09,0,0,1-2.1,2.55A20.65,20.65,0,0,1,289,52.55a23.45,23.45,0,0,1-2.63,1.53,1.88,1.88,0,0,0,2.53.88c2-.66,3.93-1.09,5.25-3,.53-.75,1.43-1.81,2.69-.68s.73,2,0,3a6.73,6.73,0,0,0-.52,1c3.65,1,4.89.55,7.2-2.51a2,2,0,0,1,1.68-.69c3.16.91,5.24-1.1,6.46-3.18,1.82-3.11,4.76-4.09,7.63-5.37.45-.2,1.2.29,1.82.47-.25.48-.41,1.31-.77,1.41-3.24.9-3.52,3.8-4.28,6.45L318,50.17c2.55.43,4.76,1.3,6,3.71.11.22.4.55.57.52a9.44,9.44,0,0,1,4.78.34c1.75.6,3-1.05,4.08-2.37a2.19,2.19,0,0,1,1.89-.66c1.43.58,2.34-.13,3.48-.75a38.71,38.71,0,0,1,4.6-1.79c-.14,1.54-.22,2.5-.33,3.71,2-.19,4.05.56,6-.89,1-.78,2.09-.65,2.08,1.08v3a23.1,23.1,0,0,1,3.65.06,2.75,2.75,0,0,1,1.87,1.15c.42.95-.11,1.65-1.3,1.66-1.52,0-3,.11-4.55.14-.8,0-1.59-.07-2.39-.08a39.2,39.2,0,0,1-5.09-.13c-1.54-.23-2.78-.25-4,1a3.44,3.44,0,0,1-2.42.63c-1.67-.09-2.91.22-3.32,2.07a.49.49,0,0,1-.72.34l-4.89.6q-3.49,6.9-7,13.86l.17.19q3.58-4.34,7.16-8.66l.65.24a14.79,14.79,0,0,1-.36,2.76,43.07,43.07,0,0,1-1.87,4.63c-.68,1.5-1.77,2.85-.73,4.68a1.92,1.92,0,0,1-.51,1.79c-1.25,1-.93,2.1-.73,3.42a9.42,9.42,0,0,1-.29,3.8,7.15,7.15,0,0,0-.26,4.32c.88,3,.91,6.27,1.42,9.41a13.48,13.48,0,0,0,1,2.59c.34.85.61,1.74,1,2.58.3.68.65,1.85,1,1.87,1,.07,2.09,1.4,3.07,0a1.47,1.47,0,0,1,.64-.48c4-1.74,4.93-5.36,5.79-9.1a7.07,7.07,0,0,0-.7-5.18c-.6-1.12-1-2.33-1.63-3.45-2.29-4.19-1.68-8.51-.71-12.88a16.92,16.92,0,0,0,.13-3.42c0-.25-.22-.61-.11-.75,1-1.43,2.13-2.8,3.19-4.21.44-.6.81-1.25,1.24-1.86s.76-1.07,1.15-1.61l.71.34L340.75,73c1.54-.13,2.07-.72,1.69-2a5.58,5.58,0,0,1-.19-1c-.23-2.91.1-3.33,3.47-4.15a6,6,0,0,1-1-.43c-.43-.32-1.14-.67-1.16-1,0-.57.27-1.51.68-1.68,1.16-.48,2.54-1.08,3.67-.84a45,45,0,0,1,6.55,2.27,41.48,41.48,0,0,1,4.18,1.76c1.64.85,2.22,1.91-.21,3,2.72,1.9,2.37,4.62,1.74,6.84-.53,1.89-.48,4.33-2.79,5.65-.6.33-.35,2.19-.41,3.35,0,0,1,.35,1.17.18a17.66,17.66,0,0,0,3-3.57c.77-1.45,1.95-2.91,3.22-2.49s2.52,2.06,3.13,3.44a32.1,32.1,0,0,1,2.19,7.25,28.5,28.5,0,0,1,.2,6.47c0,.33-1.33.6-2.16.7-1.3.78.59,3.42-2.19,3.49.27,1.68.72,3.2-1.34,4.14a1.35,1.35,0,0,0,.18,2.45,5.17,5.17,0,0,0,2.59.93c2.13-.22,3.79.36,4.61,1.75,2.27-.81,4.24-1.46,6.17-2.23a5.75,5.75,0,0,0,2-1.27,35.19,35.19,0,0,1,8.88-6.39c3.34-1.78,6-4.84,8.88-7.45A17.72,17.72,0,0,0,400,89c.7-1,.61-1.63-.74-2.18a3.26,3.26,0,0,1-1.56-2.33c-.11-.79.41-2.26,1-2.44A51,51,0,0,1,407.19,80c1.1-.15,2.35.75,3.37.76,1.56-.42,3.15-.77,4.68-1.27a5,5,0,0,0,1.84-1.12c1.19-1.15,2.29-2.4,3.28-3.45-.05-1.28-.11-2.63-.18-4.14-2.43-.82-2.57-2.43-.43-4.73A93.1,93.1,0,0,0,426.31,58c1.29-1.75,3-3,5-3,3.94.11,7.5-1.26,11.16-2.21s7.17-2.11,10.76-3.15c1.11-.32,1.85-.67,1.84-2.14,0-2.19,2.35-1.34,3.41-2.25.24-.21.78-.07.79-.07L462,36.82c-1.7-2-1.8-3.14-.49-5.68a3.53,3.53,0,0,0,.34-1.89c-.52-4.47,2.19-8,3.46-11.93.32-1,1.87-.75,2.32.28.21.48.34,1,.64,1.87a34.84,34.84,0,0,1,3.54-3.06,3.34,3.34,0,0,1,2.44-.35c2.89.77,4.45,2.69,5.07,5.7.71,3.45,1.88,6.81,2.83,10.21a2.16,2.16,0,0,0,2.26,1.85c2.08,0,2.47.48,2.09,2.53a10.05,10.05,0,0,0,0,1.65,4.28,4.28,0,0,1,1.64-.4,4.57,4.57,0,0,1,2.38.88,19.36,19.36,0,0,1,2.14,3.19l-9.86,10.26-.84-.6L480,55.45c-2.32-.46-3.42,1.26-4.72,3a4.32,4.32,0,0,1-4.08,2.11c-.59-.07-1.89.87-1.83,1.07.69,2.53-1.07,4.68-1,7.09,0,.92-.45,1.87-.38,2.78.1,1.2.92,2.47.7,3.56-.48,2.43-1,4.48,2.36,5.17.61.13.82,1.67,1.47,2.29a4.37,4.37,0,0,0,2.38,1.2c.45,0,1-.83,1.52-1.29-.48-.45-1-.89-1.45-1.35s-.62-.71-.93-1.07c.46-.3,1-.9,1.35-.82a2.92,2.92,0,0,1,1.75,1.13,28,28,0,0,1,1.64,3.38c-2.06,1.5-3.92,3-5.91,4.23-.7.44-1.78.2-2.61.5-3.76,1.34-7.13,3.82-8.51,7.28-1.51,3.77-4.6,5.11-7.34,7.09-1.63,1.18-3.73,1.71-5.42,2.45-.22,1.53-.91,3.15-.57,4.5,1.34,5.27-1.5,9.33-3.36,13.77-1.15,2.74-2.87,5.62-1.13,8.89a3.06,3.06,0,0,1-.18,2.14c-.8,2.24-1.71,4.43-2.56,6.66a9.86,9.86,0,0,0-.35,1.32c-.43,1.85-.31,4.13-1.38,5.44-1.74,2.13-.74,3.62.52,4.85,1.6,1.56,2,3.54,2.91,5.38a18.83,18.83,0,0,0,3.12,4.33c1.54,1.71,2.47,5.81,1.24,7.66a6.33,6.33,0,0,1-2.69,1.88c-1.87.82-2.73,2.42-3.51,4.08a5.13,5.13,0,0,1-3.95,3.11c-4.18,1-7.73,3.36-8.5,8.07-.44,2.63-1.91,3.44-4.19,3.36-1.58-.05-2.3.79-3.19,1.93-1.8,2.32-3.53,4.46-3.23,7.72.08.84-1.08,2.09-2,2.68-2.11,1.37-3.23,3.51-4.77,5.32a35.14,35.14,0,0,1-3.28,3.08,10.83,10.83,0,0,1-1.59,2.43c-1.16.94-2.89,1.38-2.42,3.45a.53.53,0,0,1-.13.37c-3,3.41-2.61,7.86-3.34,11.88s1.31,8,3,11.7c2.3,5.18,5,10.08,9.62,13.72a2.72,2.72,0,0,1,.6,2.36,5.56,5.56,0,0,0,1.46,5.45c.42.35,1,.55,1.27,1,2.73,4.76,5.56,9.48,6.22,15.08a45.91,45.91,0,0,1,.68,6.37c-.07,2.65-.13,5.46-1.08,7.85-.44,1.11-3,1.41-4.57,2a18,18,0,0,0-1.81.53c-1.93,1-3,.52-3.33-1.62-.53-3.27-2-4.36-5.48-5.05-1-.2-1.92-1.73-2.52-2.85a34.49,34.49,0,0,1-1.68-4.73c-2,2.12-3,1-3.63-.51-1.34-3.34-3-6.42-5.87-8.75-.37-.3-.17-1.3-.26-2.2-1.28-.76-2.63-4.07-2.33-6.19s.57-4.12.73-6.19c.19-2.49-2-4.64-4.34-5.37a8.91,8.91,0,0,1-4.66-3.64c-1.63-2.35-3.93-4.37-7.12-4.64-.79-.07-1.59,0-2.58,0,.18,1.51,0,2.66-1.85,2.37-.25,0-.59.26-.85.47-1.41,1.15-2.79,2.24-4.85,2-.6-.07-1.29.56-1.94.87-2.37-4.47-9.14-7.52-14.7-6.39-3.64.73-7.2,1.83-10.81,2.71a6.42,6.42,0,0,1-1.78-.13c1.71-1.87,1.45-3.07-.86-4.81-.27.37-.7.71-.76,1.11-.38,2.63-2.87,2.53-4.5,3.5a1.56,1.56,0,0,1-1.3-.15c-1.3-.79-2.65-.13-3.86-.25-3.18-.3-4.46,1.78-6.08,3.63-.35.41-.72.79-1.24,1.35l1.55,1.1,2.5-4c.63,1.54,1,2.52,1.52,3.7-.76.94-1.64,2-2.51,3.11-.32.4-.62.81-.92,1.22.53.35,1.07,1,1.61,1,1.63,0,3.19,0,4.22,1.59a6.82,6.82,0,0,0,1.17,1.17,8.75,8.75,0,0,1-2.36,1.76,1.68,1.68,0,0,1-2.35-1c-.17-.5-1.24-.65-1.85-1a23.94,23.94,0,0,0-2.6-1.73,4.92,4.92,0,0,0-1.93-.05c.41,1.05,1.09,1.92.88,2.4a3.71,3.71,0,0,1-4,2.18l.95-2.56c-1.27.57-2.28.7-2.73,1.28-1.73,2.17-3.73,1.7-5.76.77a34.65,34.65,0,0,1-3.62-2.13c-1.07-.64-1.74-2.48-3.49-1.1-.14.12-.69-.39-1.07-.44-1.14-.13-2.3-.1-3.42-.26a29.89,29.89,0,0,1-6-1.13c-6.49-2.44-14.35-.54-19.62,4-3.79,3.29-8.34,5.72-12.61,8.44-2.36,1.5-4.91,2.71-7.23,4.26-.75.49-1,1.69-1.54,2.53-1.3,2.1-2.68,4.16-3.95,6.28-2,3.41-1.84,6.84,0,10.27a14.93,14.93,0,0,1,1,2.63c.79,2.42-1,3.66-2.4,5s-2.33.09-3.48-.29c-1.75-.58-3.55-1-5.32-1.52-.13,0-.29,0-.4,0-3.28-1.6-6.57-3.2-9.82-4.86-.33-.17-.51-.75-.64-1.18a10.68,10.68,0,0,0-.44-1.95C219.5,287.3,217.81,285.19,218,282.16Z"/></clipPath></defs><title>made-in-usa</title><path class="cls-2" d="M218,282.16c.91-1.64.39-2.43-1.4-3.49-1.48-.88-2.34-2.78-3.51-4.2a16.74,16.74,0,0,0-2.78-2.8c-.61-1.44-1.27-2.87-1.81-4.33s-1-3.17-1.59-4.71a10.11,10.11,0,0,0-1.53-2.91c-1.82-2.14-3.72-4.21-5.72-6.18-.43-.42-1.37-.39-2.09-.44-2.17-.15-4.39.33-6.43-1.09-1-.71-4.68,1.52-5.3,2.71a62.7,62.7,0,0,1-3.83,6.41c-.25.37-1.59.41-2.1.09-1.71-1.07-3.27-2.39-4.91-3.58-1.26-.9-2.6-1.71-3.86-2.62-3.16-2.3-4.33-5.48-4.65-9.33a9,9,0,0,0-5-7.54,5.36,5.36,0,0,1-1.62-1.46c-1.46-1.8-2.85-3.66-4.3-5.47a2,2,0,0,0-1-.66,2.4,2.4,0,0,1-2-2.28,3.23,3.23,0,0,0-2.07-2.08c-4.18-.89-8.41-1.53-12.62-2.24-1-.17-2.09-.28-3.28-.44-.19,1-.41,1.95-.52,2.87-.26,2.18-1.44,2.8-3.55,2.44-4.62-.78-9.26-1.42-13.9-2.12-3.7-.56-7.55-.68-11.07-1.82-3.37-1.1-6.44-3.17-9.56-5-8.11-4.69-16.18-9.47-24.27-14.22-1.2-.7-1.31-1.35-.46-3.32-2.53-.36-5-.74-7.53-1-4.79-.58-9.59-1.08-14.38-1.7a1.87,1.87,0,0,1-1.24-1.16,8.6,8.6,0,0,1-.06-2.82,10.6,10.6,0,0,0-3.59-9.4,2.39,2.39,0,0,1-.67-1,2.34,2.34,0,0,0-2.73-1.82c-1.15.06-1.77-.17-1.36-1.65.14-.51-.73-1.76-1.35-1.93a6.85,6.85,0,0,1-5.24-5.16,2.45,2.45,0,0,0-2.1-2A64.72,64.72,0,0,1,23,169.87c-.62-.26-1.08-1.37-1.2-2.15a4.76,4.76,0,0,1,.43-2.53c1.39-3.07-.21-5.42-1.6-7.92a21.64,21.64,0,0,1-2-5.19c-.57-2.37-1.2-4.58-3-6.41-1.29-1.32-.59-3.19.92-4.29.76-.56,1-1.81,1.51-2.79-3.3-1-5.31-6-4.07-9.37.85-2.27.11-3.77-1.37-5.38a5.68,5.68,0,0,1-.84-2.65c-.23-1.19-.21-2.44-.54-3.59a9.47,9.47,0,0,0-1.41-2.87c-2.49-3.49-2-6.87-.47-10.68,1.06-2.62.07-5.57-1.34-8.09a5.15,5.15,0,0,1,.71-6.39c1-1.08,1.78-2.33,2.71-3.45,2.5-3,2.77-6.83,2.52-10.28-.19-2.51.18-4.9.09-7.33a9.32,9.32,0,0,1,2-6.08c6.13-8.48,9.45-18.23,12.63-28,.6-1.84,1.41-3.61,2.12-5.41l.55.16c-.46-1-1.44-2.13-1.23-3s1.62-1.32,2.38-1.87L31,20.56h3.18c-3-2.39-2.86-5.4-2.48-8.44.19-1.46.58-2.86-.59-4.17-.27-.3-.1-1.09,0-1.62a14.08,14.08,0,0,1,.92-3,2,2,0,0,1,1.47-.66,12,12,0,0,0,8,4.51,9.5,9.5,0,0,1,2.09.92c.23-1.66.44-3.11.68-4.82.78-.1,1.94-.29,3.11-.34.22,0,.73.62.67.78-.73,1.82.87,2.14,1.72,3,1.12-1.61.85-2.82-.48-4.09-.49-.46-.42-1.51-.61-2.29A6.45,6.45,0,0,1,51,.07C56.34,1.66,61.55,3.63,66.91,5q15.51,3.95,31.17,7.35,16,3.48,32.23,6.4c8.3,1.49,16.66,2.62,25,3.75,8.58,1.16,17.16,2.29,25.76,3.13,8,.79,16.08,1.39,24.13,1.69,17.1.64,34.2,1,51.3,1.51a9.56,9.56,0,0,1,1.42,0c2,.32,2.83-.56,2.92-2.48a8.82,8.82,0,0,1,.44-1.77c2.95-.06,3.22,1.95,3.57,3.9a16.61,16.61,0,0,0,.66,2.91c.18.48.83,1.16,1.21,1.12a10.4,10.4,0,0,1,6.39,1.59,1.22,1.22,0,0,0,1.1-.09c2.1-2,4.1-1,6.17.06,1.67.89,3.18,2.82,5.48.89l.79,1.4a32.48,32.48,0,0,0,2.74,1.81,3.56,3.56,0,0,0,3.77-.45c1-.63,2-2,3.1,0,.07.12.7-.12,1.07-.11,1.74,0,3.39-.28,5.18.72,1.22.68,3.24-.3,4.84-.07,2.4.34,4.16-.72,6-1.92a1.51,1.51,0,0,1,1.23.09c-1.82,1.95-2.51,4.95-6.36,4.66-4.6-.34-8.71,1.89-12.72,3.9-.86.44-1.21,1.83-1.87,2.73a27.09,27.09,0,0,1-2.1,2.55A20.65,20.65,0,0,1,289,52.55a23.45,23.45,0,0,1-2.63,1.53,1.88,1.88,0,0,0,2.53.88c2-.66,3.93-1.09,5.25-3,.53-.75,1.43-1.81,2.69-.68s.73,2,0,3a6.73,6.73,0,0,0-.52,1c3.65,1,4.89.55,7.2-2.51a2,2,0,0,1,1.68-.69c3.16.91,5.24-1.1,6.46-3.18,1.82-3.11,4.76-4.09,7.63-5.37.45-.2,1.2.29,1.82.47-.25.48-.41,1.31-.77,1.41-3.24.9-3.52,3.8-4.28,6.45L318,50.17c2.55.43,4.76,1.3,6,3.71.11.22.4.55.57.52a9.44,9.44,0,0,1,4.78.34c1.75.6,3-1.05,4.08-2.37a2.19,2.19,0,0,1,1.89-.66c1.43.58,2.34-.13,3.48-.75a38.71,38.71,0,0,1,4.6-1.79c-.14,1.54-.22,2.5-.33,3.71,2-.19,4.05.56,6-.89,1-.78,2.09-.65,2.08,1.08v3a23.1,23.1,0,0,1,3.65.06,2.75,2.75,0,0,1,1.87,1.15c.42.95-.11,1.65-1.3,1.66-1.52,0-3,.11-4.55.14-.8,0-1.59-.07-2.39-.08a39.2,39.2,0,0,1-5.09-.13c-1.54-.23-2.78-.25-4,1a3.44,3.44,0,0,1-2.42.63c-1.67-.09-2.91.22-3.32,2.07a.49.49,0,0,1-.72.34l-4.89.6q-3.49,6.9-7,13.86l.17.19q3.58-4.34,7.16-8.66l.65.24a14.79,14.79,0,0,1-.36,2.76,43.07,43.07,0,0,1-1.87,4.63c-.68,1.5-1.77,2.85-.73,4.68a1.92,1.92,0,0,1-.51,1.79c-1.25,1-.93,2.1-.73,3.42a9.42,9.42,0,0,1-.29,3.8,7.15,7.15,0,0,0-.26,4.32c.88,3,.91,6.27,1.42,9.41a13.48,13.48,0,0,0,1,2.59c.34.85.61,1.74,1,2.58.3.68.65,1.85,1,1.87,1,.07,2.09,1.4,3.07,0a1.47,1.47,0,0,1,.64-.48c4-1.74,4.93-5.36,5.79-9.1a7.07,7.07,0,0,0-.7-5.18c-.6-1.12-1-2.33-1.63-3.45-2.29-4.19-1.68-8.51-.71-12.88a16.92,16.92,0,0,0,.13-3.42c0-.25-.22-.61-.11-.75,1-1.43,2.13-2.8,3.19-4.21.44-.6.81-1.25,1.24-1.86s.76-1.07,1.15-1.61l.71.34L340.75,73c1.54-.13,2.07-.72,1.69-2a5.58,5.58,0,0,1-.19-1c-.23-2.91.1-3.33,3.47-4.15a6,6,0,0,1-1-.43c-.43-.32-1.14-.67-1.16-1,0-.57.27-1.51.68-1.68,1.16-.48,2.54-1.08,3.67-.84a45,45,0,0,1,6.55,2.27,41.48,41.48,0,0,1,4.18,1.76c1.64.85,2.22,1.91-.21,3,2.72,1.9,2.37,4.62,1.74,6.84-.53,1.89-.48,4.33-2.79,5.65-.6.33-.35,2.19-.41,3.35,0,0,1,.35,1.17.18a17.66,17.66,0,0,0,3-3.57c.77-1.45,1.95-2.91,3.22-2.49s2.52,2.06,3.13,3.44a32.1,32.1,0,0,1,2.19,7.25,28.5,28.5,0,0,1,.2,6.47c0,.33-1.33.6-2.16.7-1.3.78.59,3.42-2.19,3.49.27,1.68.72,3.2-1.34,4.14a1.35,1.35,0,0,0,.18,2.45,5.17,5.17,0,0,0,2.59.93c2.13-.22,3.79.36,4.61,1.75,2.27-.81,4.24-1.46,6.17-2.23a5.75,5.75,0,0,0,2-1.27,35.19,35.19,0,0,1,8.88-6.39c3.34-1.78,6-4.84,8.88-7.45A17.72,17.72,0,0,0,400,89c.7-1,.61-1.63-.74-2.18a3.26,3.26,0,0,1-1.56-2.33c-.11-.79.41-2.26,1-2.44A51,51,0,0,1,407.19,80c1.1-.15,2.35.75,3.37.76,1.56-.42,3.15-.77,4.68-1.27a5,5,0,0,0,1.84-1.12c1.19-1.15,2.29-2.4,3.28-3.45-.05-1.28-.11-2.63-.18-4.14-2.43-.82-2.57-2.43-.43-4.73A93.1,93.1,0,0,0,426.31,58c1.29-1.75,3-3,5-3,3.94.11,7.5-1.26,11.16-2.21s7.17-2.11,10.76-3.15c1.11-.32,1.85-.67,1.84-2.14,0-2.19,2.35-1.34,3.41-2.25.24-.21.78-.07.79-.07L462,36.82c-1.7-2-1.8-3.14-.49-5.68a3.53,3.53,0,0,0,.34-1.89c-.52-4.47,2.19-8,3.46-11.93.32-1,1.87-.75,2.32.28.21.48.34,1,.64,1.87a34.84,34.84,0,0,1,3.54-3.06,3.34,3.34,0,0,1,2.44-.35c2.89.77,4.45,2.69,5.07,5.7.71,3.45,1.88,6.81,2.83,10.21a2.16,2.16,0,0,0,2.26,1.85c2.08,0,2.47.48,2.09,2.53a10.05,10.05,0,0,0,0,1.65,4.28,4.28,0,0,1,1.64-.4,4.57,4.57,0,0,1,2.38.88,19.36,19.36,0,0,1,2.14,3.19l-9.86,10.26-.84-.6L480,55.45c-2.32-.46-3.42,1.26-4.72,3a4.32,4.32,0,0,1-4.08,2.11c-.59-.07-1.89.87-1.83,1.07.69,2.53-1.07,4.68-1,7.09,0,.92-.45,1.87-.38,2.78.1,1.2.92,2.47.7,3.56-.48,2.43-1,4.48,2.36,5.17.61.13.82,1.67,1.47,2.29a4.37,4.37,0,0,0,2.38,1.2c.45,0,1-.83,1.52-1.29-.48-.45-1-.89-1.45-1.35s-.62-.71-.93-1.07c.46-.3,1-.9,1.35-.82a2.92,2.92,0,0,1,1.75,1.13,28,28,0,0,1,1.64,3.38c-2.06,1.5-3.92,3-5.91,4.23-.7.44-1.78.2-2.61.5-3.76,1.34-7.13,3.82-8.51,7.28-1.51,3.77-4.6,5.11-7.34,7.09-1.63,1.18-3.73,1.71-5.42,2.45-.22,1.53-.91,3.15-.57,4.5,1.34,5.27-1.5,9.33-3.36,13.77-1.15,2.74-2.87,5.62-1.13,8.89a3.06,3.06,0,0,1-.18,2.14c-.8,2.24-1.71,4.43-2.56,6.66a9.86,9.86,0,0,0-.35,1.32c-.43,1.85-.31,4.13-1.38,5.44-1.74,2.13-.74,3.62.52,4.85,1.6,1.56,2,3.54,2.91,5.38a18.83,18.83,0,0,0,3.12,4.33c1.54,1.71,2.47,5.81,1.24,7.66a6.33,6.33,0,0,1-2.69,1.88c-1.87.82-2.73,2.42-3.51,4.08a5.13,5.13,0,0,1-3.95,3.11c-4.18,1-7.73,3.36-8.5,8.07-.44,2.63-1.91,3.44-4.19,3.36-1.58-.05-2.3.79-3.19,1.93-1.8,2.32-3.53,4.46-3.23,7.72.08.84-1.08,2.09-2,2.68-2.11,1.37-3.23,3.51-4.77,5.32a35.14,35.14,0,0,1-3.28,3.08,10.83,10.83,0,0,1-1.59,2.43c-1.16.94-2.89,1.38-2.42,3.45a.53.53,0,0,1-.13.37c-3,3.41-2.61,7.86-3.34,11.88s1.31,8,3,11.7c2.3,5.18,5,10.08,9.62,13.72a2.72,2.72,0,0,1,.6,2.36,5.56,5.56,0,0,0,1.46,5.45c.42.35,1,.55,1.27,1,2.73,4.76,5.56,9.48,6.22,15.08a45.91,45.91,0,0,1,.68,6.37c-.07,2.65-.13,5.46-1.08,7.85-.44,1.11-3,1.41-4.57,2a18,18,0,0,0-1.81.53c-1.93,1-3,.52-3.33-1.62-.53-3.27-2-4.36-5.48-5.05-1-.2-1.92-1.73-2.52-2.85a34.49,34.49,0,0,1-1.68-4.73c-2,2.12-3,1-3.63-.51-1.34-3.34-3-6.42-5.87-8.75-.37-.3-.17-1.3-.26-2.2-1.28-.76-2.63-4.07-2.33-6.19s.57-4.12.73-6.19c.19-2.49-2-4.64-4.34-5.37a8.91,8.91,0,0,1-4.66-3.64c-1.63-2.35-3.93-4.37-7.12-4.64-.79-.07-1.59,0-2.58,0,.18,1.51,0,2.66-1.85,2.37-.25,0-.59.26-.85.47-1.41,1.15-2.79,2.24-4.85,2-.6-.07-1.29.56-1.94.87-2.37-4.47-9.14-7.52-14.7-6.39-3.64.73-7.2,1.83-10.81,2.71a6.42,6.42,0,0,1-1.78-.13c1.71-1.87,1.45-3.07-.86-4.81-.27.37-.7.71-.76,1.11-.38,2.63-2.87,2.53-4.5,3.5a1.56,1.56,0,0,1-1.3-.15c-1.3-.79-2.65-.13-3.86-.25-3.18-.3-4.46,1.78-6.08,3.63-.35.41-.72.79-1.24,1.35l1.55,1.1,2.5-4c.63,1.54,1,2.52,1.52,3.7-.76.94-1.64,2-2.51,3.11-.32.4-.62.81-.92,1.22.53.35,1.07,1,1.61,1,1.63,0,3.19,0,4.22,1.59a6.82,6.82,0,0,0,1.17,1.17,8.75,8.75,0,0,1-2.36,1.76,1.68,1.68,0,0,1-2.35-1c-.17-.5-1.24-.65-1.85-1a23.94,23.94,0,0,0-2.6-1.73,4.92,4.92,0,0,0-1.93-.05c.41,1.05,1.09,1.92.88,2.4a3.71,3.71,0,0,1-4,2.18l.95-2.56c-1.27.57-2.28.7-2.73,1.28-1.73,2.17-3.73,1.7-5.76.77a34.65,34.65,0,0,1-3.62-2.13c-1.07-.64-1.74-2.48-3.49-1.1-.14.12-.69-.39-1.07-.44-1.14-.13-2.3-.1-3.42-.26a29.89,29.89,0,0,1-6-1.13c-6.49-2.44-14.35-.54-19.62,4-3.79,3.29-8.34,5.72-12.61,8.44-2.36,1.5-4.91,2.71-7.23,4.26-.75.49-1,1.69-1.54,2.53-1.3,2.1-2.68,4.16-3.95,6.28-2,3.41-1.84,6.84,0,10.27a14.93,14.93,0,0,1,1,2.63c.79,2.42-1,3.66-2.4,5s-2.33.09-3.48-.29c-1.75-.58-3.55-1-5.32-1.52-.13,0-.29,0-.4,0-3.28-1.6-6.57-3.2-9.82-4.86-.33-.17-.51-.75-.64-1.18a10.68,10.68,0,0,0-.44-1.95C219.5,287.3,217.81,285.19,218,282.16Z"/><g class="cls-3"><rect class="cls-4" x="41.45" y="120.01" width="313.1" height="20.23" transform="translate(-38.77 138.92) rotate(-35.44)"/><rect class="cls-4" x="72.92" y="145.21" width="319.02" height="20.23" transform="translate(-47 163.54) rotate(-35.44)"/><rect class="cls-4" x="96.74" y="173.74" width="330.86" height="20.23" transform="translate(-58.04 186.07) rotate(-35.44)"/><rect class="cls-4" x="118.33" y="177.39" width="417.1" height="20.23" transform="translate(-48.16 224.27) rotate(-35.44)"/><polygon class="cls-4" points="72.55 21.32 62.55 22.77 69.78 29.82 68.08 39.78 77.02 35.08 85.96 39.78 84.25 29.82 91.48 22.77 81.49 21.32 77.02 12.26 72.55 21.32"/><polygon class="cls-4" points="40.19 50.15 30.2 51.6 37.43 58.65 35.72 68.61 44.66 63.91 53.6 68.61 51.9 58.65 59.13 51.6 49.13 50.15 44.66 41.09 40.19 50.15"/><polygon class="cls-4" points="30.08 101.26 20.08 102.72 27.31 109.77 25.61 119.72 34.55 115.02 43.49 119.72 41.78 109.77 49.01 102.72 39.02 101.26 34.55 92.2 30.08 101.26"/><polygon class="cls-4" points="58.25 153.48 48.26 154.93 55.49 161.98 53.78 171.94 62.72 167.24 71.66 171.94 69.96 161.98 77.19 154.93 67.19 153.48 62.72 144.42 58.25 153.48"/><polygon class="cls-4" points="124.69 43.18 114.69 44.64 121.92 51.69 120.22 61.64 129.16 56.94 138.1 61.64 136.39 51.69 143.62 44.64 133.63 43.18 129.16 34.13 124.69 43.18"/><polygon class="cls-4" points="131.63 85.16 121.64 86.61 128.87 93.66 127.16 103.62 136.1 98.92 145.04 103.62 143.34 93.66 150.57 86.61 140.57 85.16 136.1 76.1 131.63 85.16"/><polygon class="cls-4" points="170.63 84.4 160.63 85.85 167.87 92.9 166.16 102.86 175.1 98.16 184.04 102.86 182.33 92.9 189.56 85.85 179.57 84.4 175.1 75.34 170.63 84.4"/><polygon class="cls-4" points="174.68 49.26 164.69 50.72 171.92 57.77 170.21 67.72 179.15 63.02 188.09 67.72 186.38 57.77 193.62 50.72 183.62 49.26 179.15 40.21 174.68 49.26"/><polygon class="cls-4" points="226.03 45.21 216.03 46.66 223.26 53.71 221.56 63.67 230.5 58.97 239.44 63.67 237.73 53.71 244.97 46.66 234.97 45.21 230.5 36.15 226.03 45.21"/><polygon class="cls-4" points="85.28 71.4 75.28 72.85 82.51 79.9 80.8 89.86 89.75 85.16 98.69 89.86 96.98 79.9 104.21 72.85 94.22 71.4 89.75 62.34 85.28 71.4"/><polygon class="cls-4" points="68.27 116.31 58.28 117.76 65.51 124.81 63.8 134.77 72.74 130.07 81.69 134.77 79.98 124.81 87.21 117.76 77.21 116.31 72.74 107.25 68.27 116.31"/><polygon class="cls-4" points="114.89 122.39 104.89 123.84 112.13 130.89 110.42 140.85 119.36 136.15 128.3 140.85 126.59 130.89 133.83 123.84 123.83 122.39 119.36 113.33 114.89 122.39"/><rect class="cls-4" x="266.63" y="191.46" width="223.24" height="20.23" transform="translate(-46.81 256.66) rotate(-35.44)"/><rect class="cls-4" x="345.45" y="226.74" width="109.9" height="20.23" transform="translate(-63.15 276.04) rotate(-35.44)"/></g></svg>