<svg id="Layer_1" data-name="Layer 1" xmlns="http://www.w3.org/2000/svg" viewBox="0 0 500 750"><defs><style>.cls-1{fill:#f5fafa;stroke:#f5fafa;}.cls-2{fill:#050505;stroke:#050505;}.cls-3{fill:#fff;stroke:#fff;}.cls-4{fill:#728281;}.cls-18,.cls-4{stroke:#728281;}.cls-5{fill:#020202;}.cls-16,.cls-5{stroke:#7c9696;}.cls-6{fill:#d8dbcb;stroke:#d8dbcb;}.cls-7{fill:#935151;stroke:#935151;}.cls-8{fill:#4d4b4b;stroke:#4d4b4b;}.cls-9{fill:#992928;stroke:#992928;}.cls-10{fill:#7b5d5c;stroke:#7b5d5c;}.cls-11,.cls-18{fill:none;stroke-width:2px;}.cls-11{stroke:#681516;}.cls-12{fill:#da9328;stroke:#da9328;}.cls-13{fill:#c5822a;stroke:#c5822a;}.cls-14{fill:#f0ab1f;stroke:#f0ab1f;}.cls-15{fill:#dc7326;stroke:#dc7326;}.cls-16{fill:#7c9696;}.cls-17{fill:#b1b8bf;stroke:#b1b8bf;}.cls-19{fill:#83a09f;stroke:#83a09f;}</style></defs><title>mascot</title><path class="cls-1" d="M344.21,105.83c-8.22.39-13.11,7.73-13.72,15.06,0,8.56,6.11,17.73,15.9,16.51,6.72-1.22,10.39-6.72,11.61-12.84,1.22-7.33-2.44-14.67-9.64-17.17C346.33,106.54,344.21,105.83,344.21,105.83Z"/><path class="cls-2" d="M344.83,119a9.13,9.13,0,0,1-1.5-1.16c-4.28,2.44-2.45,7.33-1.22,10.39,1.22,4.28,6.72,4.89,10.39,2.45,4.89-3.67,4.28-11.62,0-15.29-1.22-.61-2.45-1.83-4.57-1.09Z"/><path class="cls-3" d="M345.94,119.9c-.94.11-1.47,1.16-2.26,1.69,1.32.27,2.38,1.32,3.43,1.85.27-.79,1.59-2.64-.14-2.92Z"/><path class="cls-4" d="M319.06,130.77a10.35,10.35,0,0,1-1.71-10.67,10.6,10.6,0,0,1,2.15-3.23,12.59,12.59,0,0,1,8.32-4.29c10.27-2.16,20.82,7.93,27.76,1.58,7.68-6.4,2.19-18.64-9.27-21.73-10.66-2.58-22.2,2.42-29.08,8.57a53.83,53.83,0,0,0-8.55,9.36,28.19,28.19,0,0,0-2.68,4.8,21.22,21.22,0,0,0-1.77,10.17c0,9.23,14.63,14.37,25.34,11.41"/><path class="cls-5" d="M388.09,362.31a54.57,54.57,0,0,0,1.85-7.63,28.87,28.87,0,0,0,1.56-14c-.59-2.47-1.16-4.95-1.69-7.42s-1-4.94-1.47-7.4c-7.75-28.85,7.84-55.36,15.75-82a57.32,57.32,0,0,0,2-8.27c1.12-7.76-.12-15.11-6-21.25-6.24-7-18.71,3.9-28,7.76a22,22,0,0,1-7.55,1.65H339.68L317.4,195.39l-3.64-2.71c-11.15-8.75-21.29-25.91-30.65-25.13-19.49,2.34-10.92,33.53-15.75,52-.27,2.12-.52,4.22-.75,6.33s-.46,4.22-.65,6.37c-2.34,20.27,3.89,39.77,9.89,59.16q1.23,4.08,2.55,8.12c6.19,18.83,14.17,36.87,26.31,52.76,1.1,1.73,2.18,3.43,3.18,5.12l11.54,17.35,19.19-3.74c2.58-.51,5.26-1,7.94-1.53a25.63,25.63,0,0,1,5.55-1.29c9-1.05,19.9,2.85,28.38-2.79C384.29,364.07,388.09,362.31,388.09,362.31Z"/><path class="cls-6" d="M280.69,258.43c3-3.18,8.14-4.2,9.42-8.79a49.79,49.79,0,0,1,5.58,14.81c.18.83.34,1.67.49,2.52s.24,1.51.34,2.27.37,1.41.55,2.11a63.9,63.9,0,0,0,4.83,13.45c.77-2,1.54-4.07,2.83-5.35a33.71,33.71,0,0,0,6.52-7.6c.43-.65.86-1.29,1.3-1.93.87-1.28,1.75-2.53,2.69-3.72a23,23,0,0,1,3.19,10.42c.1.92.16,1.84.22,2.77,0,1.55.13,3.07.24,4.58.05.76.11,1.51.18,2.26,0,4.69,1.3,9,1.81,13.61,3.08-3.06,7.18-5.61,9.05-9.94.43-.71.86-1.42,1.25-2.15a12.09,12.09,0,0,0,1.75-7c4.36,3,5.13,8.66,6.56,13.24.2.73.39,1.46.58,2.17a55.06,55.06,0,0,1,1.18,6.79c.09.76.15,1.53.2,2.3.2,4.29-.31,8.62,2.25,12.44a8.45,8.45,0,0,1,1.8-3.31,27.81,27.81,0,0,0,5.74-8.8,20.92,20.92,0,0,0,1-3.75,17.17,17.17,0,0,0,.19-4q1,2.06,1.94,4.16c.31.7.61,1.41.9,2.12,1.11,3.25,2.38,6.63,3.3,10.07q.29,1,.51,2.07c.16.69.29,1.38.4,2.06-.9,4.49,2.95,7.8,3.72,12.13,2.31-4.33,5.38-7.9,6.9-12.54.27-.48.56-.94.87-1.4s.63-.9,1-1.34c.4-.62.82-1.22,1.26-1.81s.88-1.16,1.33-1.73c.91-1.14,1.85-2.24,2.79-3.34a9.51,9.51,0,0,1,1.07,1.73,12,12,0,0,1,.7,1.87c.2.76.36,1.53.52,2.32,1.14,5.29,2.07,10.83,4.34,15.89.33.72.68,1.44,1.07,2.14a11.28,11.28,0,0,0,.85-2,12.86,12.86,0,0,0,.52-2c.78-4.12.11-8.55,1.5-12.55a19.84,19.84,0,0,1,1.06-2.46,14.47,14.47,0,0,1,1.45-2.15,44.46,44.46,0,0,1,6.34,11q.42,1,.81,2a12.38,12.38,0,0,1,.67,11.11,16,16,0,0,1-1.28,2.41,31,31,0,0,1-6.28,7.13l-1.82,1.6L387,347.91c-2.85,2.28-5.12,5.43-7.67,8-.52.52-1,1-1.59,1.49-3.49,2.55-7.44,3-11.56,2.79-.82,0-1.66-.12-2.51-.2-4.25-.23-8.47-.41-12.69-.56l-2.54-.08c-4.1-.18-8.14-.06-12.17,0l-2.41,0a36.3,36.3,0,0,1-10.93-.88,20,20,0,0,1-2.12-.66c-4.41-1.52-7.9-4.63-11.11-8.29-.46-.52-.92-1-1.37-1.6q-5.38-8.4-11.35-16.42c-.57-.77-1.15-1.53-1.76-2.32-3.7-4.26-7-8.62-10.35-13-.56-.73-1.11-1.46-1.67-2.21-1.61-2.25-3.23-4.5-4.72-6.78-.75-1.14-1.47-2.29-2.14-3.45a40.56,40.56,0,0,1-5.66-22,31.78,31.78,0,0,1,.71-5.43,29.26,29.26,0,0,1,4.28-10.1l1.17-1.93L278,262.4a4.71,4.71,0,0,1,.9-1.65,16.1,16.1,0,0,0,1.12-1.49C280.42,258.72,280.69,258.43,280.69,258.43Z"/><path class="cls-6" d="M265.63,174.52c33.86-1.51,22.94,37.48,24.5,58.54,7.8-4.68,10.14-14,16.38-19.5-.78,5.46.78,10.14.9,15.55.22,2.08.46,4.14.75,6.19,1.46,6.33.68,12.57,3.8,18,3.9-5.46,9.36-9.36,12.48-14.82a78.38,78.38,0,0,0,.29,12.28c.19,2,.42,4,.66,6.08.61,6.6,1.39,13.62,1.39,19.85,10.14-4.67,14-15.59,21.06-23.39a27.54,27.54,0,0,0-1,5.52,43,43,0,0,0,0,5.68c.23,8.3,2.56,16.87,1.78,25.45a46.5,46.5,0,0,1,4.4-5.19c7.3-8.85,19-14.3,19.78-26.78.78,13.26-2.34,25.73-4.68,38.21,9.36-13.26,11.7-29.63,18.72-43.67-2.34,10.92,7,23.39-.78,33.53,4.67-7.8,11.69-14,14.81-22.61,3.9-10.92,4.68-28.08-11.23-27q-2.86-.94-5.68-2a163.5,163.5,0,0,1-16.49-7.62c-2.42-1.22-4.83-2.49-7.24-3.75-7.32-4.43-16.82-7.36-24.58-11.84a41.37,41.37,0,0,1-4.4-2.91c-11.48-18.17-23.17-44.69-48.91-41.57a21.36,21.36,0,0,0-15.62,6.83Z"/><path class="cls-4" d="M363.17,478.31q3.56-1.11,7.07-2.3c2.36-.81,4.71-1.63,7.09-2.52,2.12-1,4.24-2,6.38-3s4.29-1.82,6.46-2.64c19.27-6.32,41.1-1.64,59.82-7.88,7.8-2.34,20.27-1.56,23.39-10.92a34.62,34.62,0,0,0,.72-7.64c-.2-13-7.34-26.28-21-28.23-7.8-1.56-15.6-2.34-23.77-4.31q-2.83-.76-5.61-1.73c-23.65-6.44-31.45-32.95-53.28-42.31-15.6-7-19.5,15.6-23.91,27.36-.74,1.6-1.46,3.15-2.13,4.62-2.7,5.85-4.73,10.23-4.73,10.23s2.53,11.65,5.07,23.3l1.25,5.77c.18,2,.24,4.08.23,6.16.83,13-6.19,26.28,2.38,38.75,3.12,3.9,7.8-.78,11.38-1.47C361.79,478.89,363.17,478.31,363.17,478.31Z"/><polyline class="cls-7" points="208.9 45.64 218.85 48.99 222.64 54.76 229.77 42.76 229.34 39.67 228.06 30.4 211.45 44.5"/><path class="cls-8" d="M334.74,62.51c-8-3.35-15,2.89-20.4,7.48-1.62,1.17-3.26,2.29-4.94,3.27a24.15,24.15,0,0,1-5.23,2.27c.26-2.46.42-5.12.6-7.89,1-12.38-1.38-25.64,7.19-35.77,6.24-6.24,17.16-4.68,20.28,3.89,2.34,7,3.9,14.82,6,21.75Z"/><path class="cls-9" d="M230.82,152c-.74-1.64-2.3-3.2-2.3-4.76,1.56-10.92-1.55-21.84-6.64-31-1-1.87-2.14-3.71-3.3-5.52-2.33-3.63-4.88-7.16-7.47-10.63-1.47-2-3-3.94-4.42-5.89-6.24-7-7-18.72,0-24.17,14.33-12.29,19.7-33.52,35.56-41a27.72,27.72,0,0,1,7.5-2.29,44.77,44.77,0,0,1,17.42,3.1,41.87,41.87,0,0,1,5,2.37c12.12,6.82,16,18.22,16.72,30.75.14,2.5.15,5.05.07,7.61-.32,2.12-.5,4.34-.62,6.61s-.21,4.59-.32,6.9a41.06,41.06,0,0,1,.12,5.46,28.45,28.45,0,0,1-.78,5.53c-1.09,1.47-1.09,4.59-1.87,4.59C262.84,113,250.36,133.24,233,150.59,231.57,151.55,230.82,152,230.82,152Z"/><path class="cls-10" d="M316.63,26.32a44.14,44.14,0,0,1,9.7,9.64c.49.64.95,1.31,1.39,2a26.25,26.25,0,0,1,4.11,11.13c.09.59.17,1.18.23,1.77s.12,1.19.16,1.78c0,.79.08,1.59.09,2.38,0,1.16,0,2.31-.06,3.47,0,.57-.05,1.14-.08,1.72-.08,2.92-.57,5.74-.33,8.56,3.39-2.82,8.23-3.47,12.59-3.69-.73-4.12-3.39-7.81-4.12-12l-.39-1.36c-.19-.69-.37-1.38-.55-2.07-.86-3.55-1.71-7.11-2.8-10.63-.22-.7-.45-1.41-.71-2.12-2.32-5.62-4.26-11.26-6.92-16.68a2.59,2.59,0,0,0-2.38-1.25,10.93,10.93,0,0,0-9.07,6.57C317,26,316.63,26.32,316.63,26.32Z"/><path class="cls-11" d="M238.9,50a13.78,13.78,0,0,0-3,8.51c0,.61,0,1.24,0,1.87.84,4,1.36,8.76,2.88,12.65a15.21,15.21,0,0,0,1.89,3.55c3.85,4.29,9.38,6.82,11.74,12.63a11,11,0,0,1,.82,3.13,9.45,9.45,0,0,1-.29,3.47"/><path class="cls-12" d="M209.64,149.92a9.23,9.23,0,0,1-3.93,3.43,16.67,16.67,0,0,1-2.37.86c-2.48.72-5.16,1.18-7.23,2.63a2.26,2.26,0,0,0-1,1.78,3.6,3.6,0,0,0,.51,2,9.85,9.85,0,0,0,2.87,3.23,11.22,11.22,0,0,0,1.93,1.13c10.32,2.2,23.83-1.85,32-9a10.23,10.23,0,0,0,1.39-2.54,11.42,11.42,0,0,0,.67-3.12c.17-6.95-7.49-11.59-14.35-11.48-5.55.28-6.46,6.65-9.52,10.09C210.05,149.51,209.64,149.92,209.64,149.92Z"/><path class="cls-13" d="M213.68,128.51c-1.5-.65-3.41-.61-4.21.62-3.08,3.89-6.6,5.76-11.21,7.09a1.33,1.33,0,0,0-.8,1.22c1.69,4.1,6.38,5.95,10.41,6.75.43.08.86.14,1.3.19a30,30,0,0,0,3.92.18c.66,0,1.32,0,2-.08l2.2-.15c.78-.06,1.59-.14,2.42-.24,4-.3,12.44-1.71,9.7-7.18-1.3-2.29-3.6-3.2-6.09-3.91l-1.89-.52c-2.4-.85-5.16-2.12-6.44-4.56Z"/><path class="cls-14" d="M225.28,131.55c-1.33-1.47-2.41-3.33-3.8-5A13.79,13.79,0,0,0,220,125a13.11,13.11,0,0,0-16.39-.76c-1.33,1.06-1.06,3.19,0,4.52,3.19,3.45,8.77,2.39,11.13,6.39.35.48.68,1,1,1.49a16.6,16.6,0,0,1,.82,1.56,15.39,15.39,0,0,1,1.4,5.2c4.81,7.15,15.71,3.16,20.49-2.42a5.19,5.19,0,0,0,1.33-4.25c-1.06-3.46-4.79-4.78-8.1-5.23a14.88,14.88,0,0,0-2.11-.07,14.1,14.1,0,0,0-2.07.24C226.32,131.66,225.28,131.55,225.28,131.55Z"/><path class="cls-14" d="M232.18,142.89a5,5,0,0,0,.1,2.21c2.42-1.71,4.83,1.56,6.51,2.93a12,12,0,0,0,1,.75c.24.19.47.39.69.59a14.15,14.15,0,0,1,1.26,1.31,9.26,9.26,0,0,0,1,1,5.32,5.32,0,0,0,1.22.75,3.3,3.3,0,0,0,1.59.26c1.07,0,2.64.11,3.06-1a4.85,4.85,0,0,0,.37-1.07,5.41,5.41,0,0,0,.06-1.77,18.51,18.51,0,0,1-1.13-4c-.08-.45-.14-.9-.2-1.35-.52-3.57-.52-7.27-1.94-10.54-1.42-3-5.4,0-7.74.89-.39.25-.79.51-1.18.79s-.78.56-1.17.86l-.76.61a6.23,6.23,0,0,0-3.37,7.94l.27-.26C232,143.29,232.18,142.89,232.18,142.89Z"/><path class="cls-15" d="M231.57,143.36a10,10,0,0,0-3.85-4.4,8.53,8.53,0,0,0-2.39-.93,4.14,4.14,0,0,0-2.36-.2c-6.64,2.39-12.49,5-18.87,8-2.39,1.06-1.33,4.51.8,5.84,6.11,4.52,14.09,3.19,20.06-.47a20.31,20.31,0,0,0,2-1.39c1.6-1.06.53-4.25,2.81-4.73Z"/><path class="cls-15" d="M223.54,146.68c.32,2.19-1.15,4-1.38,6.09a2,2,0,0,0,.54,1.61c2.72,3.08,7.06,4.1,10.06,7.29a19.76,19.76,0,0,0,1.51,1.38,13.42,13.42,0,0,0,1.69,1.18c1.16.76,2.11.28,2.88-.65a13.8,13.8,0,0,0,1.79-3.39c1.27-4.59,1.68-9.66-.72-14q-.42-.78-.9-1.59c-1.94-3.6-5.35-6-9.35-5.72-3.59.21-5.53,3.55-5.93,6.85C223.62,146.29,223.54,146.68,223.54,146.68Z"/><path class="cls-12" d="M239.55,119.23c-.31-4-5.78-2.74-8.41-4.2a10.6,10.6,0,0,1-1.12-.55l-1-.59a16.9,16.9,0,0,1-2.85-2.08l-.89-.84c-.29-.28-.57-.55-.84-.83s-.64-.55-1-.81a14.33,14.33,0,0,0-3.26-2,4.82,4.82,0,0,0-1.32-.29,4.28,4.28,0,0,0-1.32.17c-2.28.69-1.38,3.67-1.1,5.57.17.88.34,1.71.44,2.38a14.62,14.62,0,0,0,.36,1.56c.69,2.17,1.17,4.43,1.81,6.58.13.42.27.85.42,1.27a20.88,20.88,0,0,0,1.17,2.57c.23.42.48.85.75,1.27,2.32,4.07,6.54,5.88,10.91,5.81a14.52,14.52,0,0,0,1.46-.1,7.5,7.5,0,0,0,4.64-1.78l1-1,1-1,.82-1.14c.27-.38.54-.77.79-1.18a12.39,12.39,0,0,1,.27-1.27,10.87,10.87,0,0,1,.39-1.18,3,3,0,0,0,.32-.9c0-.31.18-.65.11-.91-1.45-1.4-.66-3.62-1.3-5.27-.25-.35-.45-1-.71-.91-.89,0-.49,1.28-1.25,1.5Z"/><path class="cls-15" d="M235.67,133.5c.91-.18,1.68-.65,1.68-1.47a3.36,3.36,0,0,0-2.64-3.25,23,23,0,0,1-8.21-2.73l-1.06-.64c-1.05-.63-2.1-1.28-3.22-1.86-.23-.09-.48-.18-.75-.26a6.6,6.6,0,0,0-4.18-.09,1.6,1.6,0,0,0-.73.65,7.09,7.09,0,0,0-.21,1.08,5.28,5.28,0,0,0,0,1,9.16,9.16,0,0,0,1.66,3.24c.24.34.5.67.76,1a4.44,4.44,0,0,1,.65,1.15,5,5,0,0,1,.28,1.19c.21,2.76-.94,6,1.17,8.24,1.84,1.86,4.7.08,6.56-1.23.39-.21.77-.41,1.14-.57l1.19-.71c1.13-.68,2.3-1.35,3.54-1.95q.54-.22,1.11-.42a11.5,11.5,0,0,1,1.19-.3l.79-.3a7.29,7.29,0,0,0,.74-.37,1.32,1.32,0,0,0,.6-.67c.18-.27.17-.62.3-.85a4.68,4.68,0,0,1-1.77.12Z"/><path class="cls-15" d="M236.94,142.15c.59.17,1.18.32,1.79.45A115.14,115.14,0,0,1,253.25,146c1.52.34,3.3-.42,3.14-2.21a16.5,16.5,0,0,0-2.82-7.89c-.24-.43-.5-.86-.78-1.28a18.38,18.38,0,0,0-1.91-2.43,19.66,19.66,0,0,0-1.56-1.45c-2.62-2.58-6-5.67-9.56-5.16a5.65,5.65,0,0,0-1.79.57c-.44.39-.9.78-1.38,1.16l-1.43,1.14a23.93,23.93,0,0,0-6.45,6.16,13.46,13.46,0,0,0-.83,1.54,4.22,4.22,0,0,0,.06,4.83,7.62,7.62,0,0,0,1.08,1.21c1.89,1.75,4,2.9,5.58,4.69"/><path id="Body" class="cls-16" d="M232.12,532.41a71.55,71.55,0,0,1-9.56-11.79A116.5,116.5,0,0,1,215.05,507c-4.44-9.45-7.93-19.48-11.4-29.41-.6-2.25-1.21-4.43-1.87-6.6s-1.33-4.22-2.11-6.3a99.92,99.92,0,0,1-6.51-21.19c-.48-2.38-.9-4.77-1.3-7.19-.68-2.42-1.28-4.85-1.82-7.3a241.73,241.73,0,0,1-5.46-38.13c-.18-2.56-.32-5.12-.44-7.69-1-11.07-2-22.2-2.52-33.33-.12-2.78-.2-5.57-.25-8.4a150.23,150.23,0,0,1,.38-33.46,134.88,134.88,0,0,1,3.09-16.32c3.13-16.49,16.39-27.4,21.07-42.22,3.12-11.7,2.34-23.39,3.35-35,.7-4.72,1.46-9.42,2.25-14.1s1.63-9.35,2.48-14c.69-2.64,1.44-5.27,2.23-7.88a218.22,218.22,0,0,1,33.24-65.28c1.85-2.14,3.8-4.2,5.86-6.25C266,97.2,279.86,81.65,293.09,86.28a17.85,17.85,0,0,1,5.62,3.29c5.46,4.68,9.36,12.48,7.8,20.28,12.34-1.95,23.61-1.74,31.53,7a29.87,29.87,0,0,1,4.34,6.29c3.12,6.24,1.56,14,3.12,18.72,2.34,7,3.89,13.25,3.89,20.27,2.34-.78,4.68-3.12,6.24-2.34,17.94,4.68,22.62-20.27,33.19-30.34a42.49,42.49,0,0,1,4.53-5.14c3.51-3.31,7.57-5.28,12.46-4.81a18.28,18.28,0,0,1,5.19,1.41,40.84,40.84,0,0,1,13.83,20.88,63.56,63.56,0,0,1,1.79,8.28,126.39,126.39,0,0,1,2,43.21q-.57,4.23-1.45,8.4a159.84,159.84,0,0,1-4.14,15.8c-.82,2.55-1.72,5.06-2.7,7.5-9.32,22.15-27.26,40.87-51.16,45.69a46.48,46.48,0,0,1-16.79,1.09,36.29,36.29,0,0,1-15.68-5.81A42.16,42.16,0,0,1,331,260c-8.86-11-15-27.34-20.34-38.61-1.19-2.26-2.4-4.42-3.65-6.44-1.39-2.46-2.7-4.84-4-7.23-3.79-6.9-7.56-13.76-11.84-20.35-1.41-1.85-2.85-3.64-4.32-5.39s-3-3.45-4.54-5.11q-.52,2.81-1,5.6c-.3,1.88-.57,3.75-.81,5.66q-.56,4-1,7.93c-1.14,19-2.7,37,.92,55.69.41,2.62.86,5.22,1.38,7.82a172.38,172.38,0,0,0,6.18,23c.67,2.47,1.38,4.92,2.16,7.36A137.9,137.9,0,0,0,299,311.33q1.65,2.81,3.51,5.46a78.52,78.52,0,0,0,8.27,9.92c1.84,1.84,3.77,3.6,5.81,5.27,21.9,16.49,55.43,29,76.35,5.29,2.09-1.71,4.12-3.49,6.09-5.29s3.89-3.59,5.74-5.35a167.42,167.42,0,0,1-7.7,19.63c-1,2.09-2,4.16-3,6.21a142.52,142.52,0,0,1-21.23,33.43c2.34-.39,5.07-1.76,7.5-2.73s4.59-1.56,5.76-.39c4.67,5.46-6.24,14-1.56,20.27a46.19,46.19,0,0,1,3.69,6.47,47.64,47.64,0,0,1,2.5,6.54c3.85,18.19,7.68,36.64,8.74,55,.16,2.66.26,5.31.3,8-.11,1.85-.33,3.83-.56,5.83s-.46,4-.59,6c1.57,6,3.49,11.91,5.6,17.72q1.05,2.91,2.15,5.79c3.27,7.76,6.76,15.44,9.94,23.16,1.06,2.58,2.09,5.16,3.06,7.75a173.42,173.42,0,0,1,7.95,29q.66,3.67,1.13,7.4a125.77,125.77,0,0,1,1.64,16c.1,2.68.11,5.36,0,8.07a83.27,83.27,0,0,1-1.94,24.68c-.61,2.66-1.35,5.29-2.22,7.92s-1.68,5.28-2.66,7.83-2.07,5-3.25,7.46c-10.55,24.62-32.38,41.78-57,50-2.1,1-4.23,2.07-6.35,3.08q-3.61,2.34-7.3,4.55c-17.25,10.28-36,17.91-56.44,16.61-2.85-.11-5.77-.18-8.7-.26l-8.79-.22c-30.5-.78-62.47-3.12-91.43-13.33q-3.69-1.54-7.22-3.41c-11.73-6.22-21.82-15.14-28.36-27.53-1.46-2.26-2.85-4.54-4.18-6.87-6.62-11.62-11.89-24.33-17.66-35.91-1.32-2.61-2.61-5.22-3.89-7.84-11.47-23.62-21.33-48.14-30.95-72.51q-1.06-2.64-2.13-5.24c-.71-1.73-1.43-3.45-2.15-5.14q-1.29-3-2.6-6c-2-8.58-6.49-12.84-12.19-14.49a22.5,22.5,0,0,0-6-.85c-9.62-.52-17.42,3.38-26,6.5,8.45-8.45,18-18.52,30-22.09a25.26,25.26,0,0,1,7.52-1.14l-4.82-2.76c-1.57-.9-3.13-1.84-4.66-2.81s-3-2-4.51-3C39.81,488.83,30.45,460,19.78,435.7c-.89-2.6-1.73-5.2-2.52-7.82a210.44,210.44,0,0,1-7.16-33.07q-.43-3.33-.77-6.68a308.36,308.36,0,0,0,1.25-63.4q-.35-3.94-.79-7.9a146.93,146.93,0,0,1,.39-34.65c1.56-7,8.58-19.49,14.82-13.25,12.47,13.25,3.89,33.53,9.25,49.8q.53,2.81,1.13,5.61t1.3,5.58q.91,3.72,2,7.42,1.06,3.51,2.36,6.9c.89,2.28,1.84,4.51,2.89,6.72,13.83,24,31,49,58.24,58.89,2.35,1.22,5,2.63,7.59,4.22a51.62,51.62,0,0,1,7.36,5.33,25.09,25.09,0,0,1,3.8,4.18c.78,1.31,2.34,2.87,2.34,4.43q-1.05,4.2-2.18,8.33c-.74,2.75-1.49,5.48-2.23,8.19q-.81,3.6-1.64,7.32c-.54,2.48-1.07,5-1.58,7.56-3.29,27.08-9.52,62.17,18.11,78.77,1.43,1.44,2.84,2.9,4.25,4.36,7.83,8.78,16.4,17.28,25.86,23.86a77.43,77.43,0,0,0,14.87,8.22c13.94,7.79,29.54.77,44.36-.79-3.12-12.48-11.7-30.41,3-39.65C229.14,533.34,232.12,532.41,232.12,532.41Z"/><path class="cls-17" d="M404.16,122.93c-1,11.56-4.86,22.47-8.43,33.6-.59,2.19-1.13,4.36-1.6,6.53a50.34,50.34,0,0,1-3.09,8.33,76.72,76.72,0,0,1-3.71,8c-7.95,13.94-20.88,27-35.48,29a27.48,27.48,0,0,1-6.35.15,37.58,37.58,0,0,1-11.82-7.3,54.42,54.42,0,0,1-4.84-5c-1.53-1.78-3-3.67-4.45-5.6-10.87-11.72-17.88-32.75-38.16-27.3C265.18,168,255.82,189,251.16,208q-1,3.57-1.9,7.16c-1.23,4.77-2.39,9.53-3.65,14.15-.43,2.14-.84,4.33-1.25,6.5-1.22,6.53-2.4,13-3.72,19.16-.49,2.93-1,5.82-1.41,8.71a539.54,539.54,0,0,0-6.18,61.06,42.51,42.51,0,0,0,.3,5.42,33.29,33.29,0,0,0,1.09,5.34,30.17,30.17,0,0,0,2.66,6.29,105.22,105.22,0,0,0,15.11,17.73c1.87,1.86,3.76,3.71,5.7,5.68a74.81,74.81,0,0,1,17.62,26.46c1,2.47,1.83,5,2.58,7.63,4.22,16.53,7.34,32.11,12.8,47.69A184,184,0,0,1,297.15,482a111.52,111.52,0,0,1,8.58-11.69c0,4.68-3.12,8.57-2.51,13.17a15.26,15.26,0,0,0,.95,4.75c8.57,24.94,18.71,49.87,24.14,75.29.62,2.77,1.18,5.54,1.71,8.32a205.57,205.57,0,0,1,3.67,42.46c.16,2.87.31,5.73.47,8.6.47,8.61,1,17.22,2,25.77a40.81,40.81,0,0,1,.43,7.59,47.94,47.94,0,0,1-3.05,14.82,71.23,71.23,0,0,1-3.09,7.08c-1.17,2.33-2.46,4.61-3.83,6.84-9.18,13.61-19.31,28.42-36.71,31.77-2.06.68-4.14,1.34-6.21,2-3.11,1-6.2,2-9.18,3.15a54.24,54.24,0,0,0-8.33,4l4.88.43c1.67.14,3.36.28,5.07.4,3.4.26,6.83.48,10.26.62,2.29.1,4.57.16,6.81.19a142.32,142.32,0,0,0,58.09-12.41c2.58-1.16,5.11-2.4,7.61-3.72,2.19-1,4.36-2,6.49-3,26.9-9.81,44.84-33.18,53.59-59.35,1.07-2.62,2.07-5.27,3-7.91s1.81-5.3,2.63-7.95,1.71-5.49,2.46-8.29a156.63,156.63,0,0,0,4.61-25.81c.25-2.84.38-5.72.38-8.62s-.13-5.84-.41-8.81q-.09-3.78-.49-7.52A85.44,85.44,0,0,0,422.79,545q-1.65-4-3.53-8c-3.75-7.9-8.06-15.58-12.32-23.06-.8-1.55-1.57-3.1-2.33-4.67s-1.49-3.13-2.19-4.71c-2.34-4.67-3.12-10.13-3.59-15.59-.23-1.63-.43-3.26-.59-4.89a75.5,75.5,0,0,1-.12-14.73c.06-2.78.09-5.46,0-8.12a51.78,51.78,0,0,0-.77-7.67c-.28-2.45-.65-4.9-1.08-7.35a160.93,160.93,0,0,0-5.6-21.92c-.86-2.83-1.74-5.55-2.65-8.26s-1.83-5.32-2.69-8c-2.37-9.47-3.15-19.59-.81-29,4.67-14.8,16.37-25.71,19.63-40.13a48.63,48.63,0,0,0,2.18-7.71,42.78,42.78,0,0,0,.8-8.26c-2.92,2.93-6,5.9-9.23,8.71-1.61,1.41-3.25,2.78-4.9,4.09-10,8.24-22.52,13.7-36.11,11.67a60.81,60.81,0,0,1-7.14-.89,56.93,56.93,0,0,1-6.81-1.69c-2.5-.85-5-1.8-7.42-2.82-7.28-3.06-14.28-6.69-20.56-10.09-1.21-1.26-2.35-2.61-3.49-4s-2.27-2.77-3.46-4.11c-1.56-2.19-3-4.42-4.35-6.7-10.72-18.6-15.85-40.8-19.95-62.84-.45-2.45-.9-4.9-1.33-7.26a109.36,109.36,0,0,1-2.82-13.85c-.31-2.31-.54-4.61-.7-6.92-2-14.73,1.94-28.76,6.62-42.78,2.34,14,14.82,22.6,22,34.3,1.05,1.8,2,3.63,2.9,5.53a48.47,48.47,0,0,1,2.27,5.89q1.36,3.09,2.83,6.14a58.17,58.17,0,0,0,2.7,7.09A68.54,68.54,0,0,0,330.74,261a47,47,0,0,0,5.67,4.61,47.54,47.54,0,0,0,34.08,8.16,41.38,41.38,0,0,0,8.24-2.49c25.53-8.76,40.09-29.83,46.73-53.84.73-2.79,1.37-5.59,1.91-8.5,3.34-15,5.23-31.08,3.45-46.49q-.37-3.3-1-6.56c-2.45-13.56-7.91-26-17.9-34.32-1.71-2.41-5.2-1.8-5.2-1.8S402.58,120.62,404.16,122.93Z"/><path class="cls-14" d="M305.47,75.41a29.32,29.32,0,0,1,4.47-2c7.48-2.56,15.87-.92,22.93,2.28,1.83,1.13,3.29.25,5.21-.34-4.85-6.57-14.86-10.41-23.88-8.82a26.7,26.7,0,0,0-4.43,1.35C304.06,70.13,299.39,74.1,297,79c1.7.47,2.46-2,4.36-1.29A37.21,37.21,0,0,0,305.47,75.41Z"/><path class="cls-12" d="M303.91,79.37a27.39,27.39,0,0,1,4.35-1.22c7.14-1.32,14.33,1.24,20.05,5,1.43,1.25,2.89.65,4.7.37-3.13-6.49-11.36-11.21-19.7-11a24.89,24.89,0,0,0-4.2.62c-5.5,1.29-10.39,4.22-13.36,8.27,1.43.64,2.56-1.5,4.12-.59A36.7,36.7,0,0,0,303.91,79.37Z"/><path class="cls-14" d="M291.7,82.36a49,49,0,0,1,7.68,2.52c11.66,5.1,18.17,15.62,21,26.38.29,3.11,3.11,3.7,6,5.07,4.43-12-.61-26.55-12.48-34.28a42.71,42.71,0,0,0-6.67-3.21,48,48,0,0,0-29.68-1.5c1.14,2.27,5.58.41,6.51,3.18A66.71,66.71,0,0,0,291.7,82.36Z"/><path class="cls-13" d="M282,81a48.19,48.19,0,0,1,7.42,3c11.16,5.85,16.68,16.76,18.52,27.68,0,3.12,2.76,3.9,5.52,5.46,5.52-11.7,1.84-26.51-9.29-35a40.74,40.74,0,0,0-6.35-3.64,47.83,47.83,0,0,0-29.45-3.46c.92,2.34,5.53.78,6.2,3.6A66.06,66.06,0,0,0,282,81Z"/><path class="cls-15" d="M285.86,82.44a52,52,0,0,1,8.22-.45c13.1.46,24.23,7.67,32.16,16.42,1.81,2.72,4.66,2.25,8,2.46-2-12.49-13.75-23.87-28.36-26.64a47.47,47.47,0,0,0-7.64-.53c-10.25.12-20.32,3.34-27.66,9.23,2.15,1.66,5.26-1.62,7.48.56A67.42,67.42,0,0,0,285.86,82.44Z"/><path class="cls-1" d="M276.58,102.33c-15,.55-23.89,10.82-25,21.1,0,12,11.14,24.83,29,23.12,12.25-1.71,18.93-9.42,21.16-18,2.23-10.28-4.46-20.56-17.56-24.06C280.44,103.32,276.58,102.33,276.58,102.33Z"/><path class="cls-2" d="M285,119.13a11.88,11.88,0,0,1-1.92-1.49c-5.46,3.12-3.12,9.36-1.56,13.26,1.56,5.46,8.58,6.24,13.26,3.12,6.24-4.68,5.46-14.82,0-19.5-1.56-.78-3.12-2.33-5.83-1.39Z"/><path class="cls-3" d="M286.44,120.28c-1.19.13-1.87,1.48-2.88,2.15,1.69.34,3,1.69,4.38,2.36.34-1,2-3.37-.18-3.72C287.06,120.63,286.44,120.28,286.44,120.28Z"/><path class="cls-18" d="M410.66,156.84c-2.32-1.66-6.9-3.08-8.35.12-.51,1.67.76,3.44.44,5"/><path class="cls-7" d="M244.85,121.25a39,39,0,0,1,.5-7.39,54.11,54.11,0,0,1,3.21-15,56,56,0,0,1,3-6.76,50.24,50.24,0,0,1,6.77-10.65q2-2.4,4.14-4.6c6.6-8.36,17.52-9.92,26.1-16.16,13.26-10.92,14-29.63,28.82-38.28a39.87,39.87,0,0,1,5.49-3.05,13.72,13.72,0,0,0-2.64,4,17,17,0,0,0-2.82,13.16c3.9,26.52-12.47,49.13-37.52,55.11-2.57,1.08-5.17,2.09-7.78,3s-5.22,1.86-7.8,2.72a43.51,43.51,0,0,0-6.41,4.77,35.65,35.65,0,0,0-9.53,13.95C246.5,118.78,244.85,121.25,244.85,121.25Z"/><path class="cls-4" d="M256.94,136.13a16.7,16.7,0,0,1-1-15.59,17,17,0,0,1,14-9.61c13.24-1.89,25.54,13.92,35,5.6,10.41-8.32,4.73-26.63-9.46-32.45-13.24-5-28.38.83-37.74,8.89a72.76,72.76,0,0,0-11.81,12.48,40.29,40.29,0,0,0-3.89,6.61,34.1,34.1,0,0,0-3.32,14.46c-.95,13.31,17,22.47,30.91,19.47"/><path class="cls-16" d="M81.48,365.44a61.08,61.08,0,0,0,6.42-13,695.41,695.41,0,0,1,25.63-68.84c2.36-5.54,4.85-10.83,7.59-16,8.24-15.4,18.8-29.45,33.28-39.28,2.25-1.65,4.54-3.26,6.84-4.84,6.92-4.77,14-9.37,20.37-14.63A150.81,150.81,0,0,1,194.84,200c8.73-5.09,17.78-8.4,27.45-7.46,14.81.78,9.35,25,4.81,37.18-.71,2.21-1.41,4.41-2,6.58s-1.22,4.31-1.67,6.38a35.8,35.8,0,0,0-.07,6.22c0,2.53-.15,5.08-.38,7.61a93.59,93.59,0,0,1-11,36,44.47,44.47,0,0,1-4.79,5.27,48.42,48.42,0,0,1-5.94,4.74c-5.46,3.9-12.48,3.9-18.73,2.79-2.2-.13-4.42-.28-6.61-.36-8.77-.29-17.16.69-22.23,9.27-2.34-2.34-2.34-6.24-4.48-8.77-1.37-2.93-2.92-5.66-5.66-7.6a36.74,36.74,0,0,1-2.27,14.59c-5.52,13.47-18,20.49-29.7,28.29-5.45,3.9-9.35,8.58-13.81,13-2.84,3.14-5.53,6.41-8.15,9.71s-5.15,6.64-7.69,9.92Z"/><path class="cls-19" d="M213.22,374.79c-10.43,8-19.79,16.57-30.36,23.67q-3.36,2.48-6.62,5.1c-15.18,12.27-28.48,27-40,42.53-1.06,1.54-2.08,3.1-3.1,4.68-3.05,4.72-6,9.6-9.09,14.67a10.13,10.13,0,0,0-1.47,7.89c.69,1.47,1.47,3,2.25,3,24.95-3.89,47.57,3.12,71.34,7.2,2.16,0,4.3-.18,6.64-.18-2.73.78-5.26,1.56-7.88,2.28-12.39,5.52-40.47-3.84-38.13,14.1,3.12,17.15,27.3,19.49,42.87,18.7,2.36-.67,4.68-1.4,7-2.15a58.28,58.28,0,0,1,18.76-3.66c2.11-.1,4.22-.12,6.36-.09a44.84,44.84,0,0,1,6.3.75c12.31,2.82,34.92,13,36.48-2.63a40.24,40.24,0,0,0,.15-7.6c-2.49-29.05-22.76-54.79-49.07-65.36-1.76-.8-3.49-1.55-5.21-2.25s-3.43-1.37-5.13-2c2.24-.59,4.49-1.06,6.76-1.45s4.54-.68,6.84-.9c13.69-1.55,27.73-.77,41.77-.8"/><path class="cls-19" d="M442.11,403.34c2.42-5,4-10.42,10.22-11.2a23.46,23.46,0,0,1,13.37,3.47,40.64,40.64,0,0,1,12.78,14.18,61.22,61.22,0,0,1,2.91,5.78c6.81,16.34,17.73,37.39,4.47,53.77-6.24,7.79-16.38,10.91-26.51,9.35a25.4,25.4,0,0,1-6.9-1.57c-6.65-2.52-12.21-7.78-13.38-14.8-2.34-10.92,3.9-20.28,4.53-31.55.28-2.64.5-5.28.59-7.91a50.89,50.89,0,0,0-1.6-15.55C442.28,404.81,442.11,403.34,442.11,403.34Z"/></svg>