<svg id="Layer_1" data-name="Layer 1" xmlns="http://www.w3.org/2000/svg" viewBox="0 0 750 750"><defs><style>.cls-1{fill:#231f20;fill-rule:evenodd;}</style></defs><title>ship-shadow</title><path class="cls-1" d="M7.3,548.87c61.8,24.56,104.4,49.9,166.2,72.54,10,4.61,38.76,5.76,31.85-12.28,6.53.38,15.35,1.15,24.18,1.92l1.15-4.23c-1.15-.38-2.3-1.15-2.3-2.3s1.54-2.3,3.07-2.3l1.54-5.76c-1.15-.38-2.31-1.15-2.31-2.3s1.54-2.3,3.46-2.3l1.53-6.53c-.76-.38-1.53-.77-1.53-1.53,0-1.15,1.15-1.92,2.3-2.31l1.54-5.75c-1.54-.39-2.69-1.16-2.69-2.31s1.54-2.3,3.46-2.3h.38l1.53-7.29c-36.46-4.22-66-.39-71.77,16.12-8.83-20.34-10.36-38.77-8.06-54.89-16.89,30.32-20.73,62.56-21.11,78.3-2.69-5-7.29-10-12.28-14.2a38.83,38.83,0,0,0-.39,6.52,61.11,61.11,0,0,0-8.44-11.89c-9.21-4.61-19.57-5.76-28,0l13-13C87.52,559.62,67.18,555,51.83,565.37,63,554.63,73.32,544.65,82.92,535.05c-23-7.29-47.21-5.76-70.63,10.36,69.09-67.55,112.85-95.95,178.48-152-49.9,49.13-71.78,83.67-80.22,114.38,24.57-24.18,47.59-46.44,75.61-70.62-4.6-29.17,9.6-55.27,25.72-73.7,13.05-5,28.78-8.44,46.06-11.51a1.32,1.32,0,0,1-.39-.77c-.38-2.3,1.54-4.6,4.61-6.14l1.53-16.89c-24.94,3.46-45.29,12.67-49.89,26.87C198.44,320.88,215,288.26,233,267.92a251.6,251.6,0,0,1,29.94-10.37c-1.16-.77-1.92-1.53-1.92-2.69,0-2.3,3.45-5,8.44-6.14l.38-26.86c-10.36-1.54-15.35.38-24.56,5-13.82,6.9-.77,19.19-18.81,25.33C204.58,259.85,204.2,246,180,248c-25.71,2.3-41.07,18-49.89,38.76,6.52-26.48,23.79-42.22,49.51-48.74,9.59-2.69,16.12,3.45,29.55,6.14,16.5,3.45,11.51-20.73,24.57-28.79,8.06-5.37,20-12.67,36.07-8.06V170.43h3.84l.77,77.91c4.22.38,7.29,1.53,7.29,3.84v.38c13-3.07,28-6.14,48-9.21-23,25.33-20.73,50.28,8.06,92.12-17.27-6.53-37.61-9.22-56.81-8.45l1.92,21.49c16.51-2.68,33.78-5,49.9-8.05-11.13,25.71-26.87,59.87,5,105.93-14.2-5.37-31.47-9.21-49.13-11.13l1.92,13.05a3.92,3.92,0,0,1,1.92,3.07,2.31,2.31,0,0,1-.38,1.53c12.66,0,26.09.39,40.3.39-9.6,19.57-11.52,49.51,3.07,86.36,5.76-30.71,17.65-57.58,29.93-81,16.89-5.76,41.84-10.75,69.09-14.2L440.63,418c-36.46,4.6-68.7,15.73-75.61,28-9.59-46.06,3.84-77.92,22.65-108.63,12.66-4.22,31.85-8.05,53-10.74-.38-.77-.38-1.15-.76-1.92,0-1.92,1.53-4.22,4.6-6.14l1.15-14.2c-24.95,5-47.59,15-61,27.63-8.45-40.3-5-67.93,26.48-91a189.18,189.18,0,0,1,31.47-7.68l1.54-19.19c-15.74,4.22-29.94,10.75-38.77,18.42-6.52-29.94-3.84-59.1,21.11-76.38A163.89,163.89,0,0,1,443.7,152c-1.92-1.15-3.07-2.3-3.07-3.45,0-2.69,5-5,11.13-5.38V115.92c-18.8,3.07-40.68-12.66-47.59-10.74-2.69.76-2.3,3.83,0,5.37,6.14,3.07,13.43,3.45,13.05,10.75-.38,8.82-6.14,10.36-14.58,10.74-9.6,0-11.14-5.76-20.73-5.76-10,1.16-5,5-28,5-15.74.39-11.9-12.28-35.31-7.67,28.4-8.06,24.95,6.91,37.61,5.76,11.13-.77,26.1-16.12,34.93-12.67,5,1.92,18.81,6.53,18,1.54-.38-3.08-10.75-6.14-14.59-9.6-6.14-5.37-4.22-15.35,4.61-19.19,14.2-6.14,31.86,13.43,52.58,8.83V84.45h3.84l.77,58.34c6.52.38,11.51,2.69,11.9,5.37,14.2-1.92,29.17-3.45,43.75-4.6-11.9,18.42-19.57,45.29,9.6,76-17.27-9.21-39.15-11.13-59.88-8.44L463.28,228a3.26,3.26,0,0,1,1.15,1.92c17.27-2.31,36.08-4.22,54.5-6.15-15.35,24.95-24.56,49.14,11.9,90.2-18.81-10.36-42.22-13.81-65.25-12.28l1.54,15.74a5.11,5.11,0,0,1,2.68,3.07,5.54,5.54,0,0,1-.76,2.68c21.49-1.92,43-3.07,60.25-3.07C512,348.51,505.5,382.29,547.34,429.5c-19.2-10.74-47.22-14.58-75.62-13.82l5.76,23.8c21.49-1.92,42.22-2.69,60.64-2.69C517.4,471,512.79,537,558.47,594.93c3.45-.39,7.29-1.15,11.13-1.54v-6.91c-15.74-47.59-33-95.57,0-159.67l-.39-3.45c-3.45-1.15-5.75-3.45-5.75-6.52,0-3.46,2.68-6.15,6.14-6.91V387.28c-18-50.66-11.13-106.32,0-157v-18h3.45V215c24.56,47.21,65.25,102.86,114,150.07-41.07-2.3-84.45,8.83-108.63,33.39l2.69,13.44c1.53.76,2.3,1.53,3.07,1.92,27.25-11.52,66-28,97.88-41.07-15,39.91,23,117.83,62.94,176.94-55.65-6.14-102.48-1.92-134,9.59l.38,1.92a2.81,2.81,0,0,1,2.3,2.69,2,2,0,0,1-1.53,1.92l1.53,7.67a2.57,2.57,0,0,1,2.69,2.31,2.1,2.1,0,0,1-1.53,2.3l1.15,5.37a3.31,3.31,0,0,1,2.3,2.69,2.86,2.86,0,0,1-.77,1.53l12.67-1.15a11.42,11.42,0,0,1-.77-3.83,5.83,5.83,0,0,1,1.54-3.84c-.39,0-.39-.39-.77-.77h0c0-.38-.38-.77-.38-1.15a2.46,2.46,0,0,1,1.91-1.92c.39,0,.77.38,1.16.77l12.28-1.54c.38-.77.77-1.15,1.53-1.15.39,0,.77.38,1.16.77L676.68,570l28.79-3.07.76-2.31,4.61-3.06L707.77,578h0c0,.77-.38,1.53-.38,2.3l-.39.77h0c-3.45,15-9.21,33-16.89,43.76-11.13,7.29-18.8,14.2-29.55,21.49-6.91,5.76-10,12.28-9.59,19.19H190.77l-22.26-34.93L5,550.79l2.3-1.92Zm156.6-36.08c6.14-20.73,18.81-37.61,32.63-50.28,18.42-6.14,36.84-8.44,56.42-9.21a3.42,3.42,0,0,1-.39-1.92c0-1.15.77-2.3,2.31-3.46l2.68-14.2c-32.24.39-59.87,7.68-65.25,24.18-2.68-6.52-5-13-5.75-19.57-28.79,31.86-44.14,69.85-51.82,101.71,9.6-9.21,18.81-18,29.17-27.25ZM446.39,228a11.2,11.2,0,0,1,5.37-1.92V212.64c-1.53.39-3.07.39-4.22.77L446.39,228Zm12.28-16.51h-1.53V225.7c.76.38,1.53.38,2.3.76l-.77-15ZM278.28,327h-2.69l.39,16.12a5.4,5.4,0,0,1,3.45,1.15L278.28,327Zm-13.43,16.89c1.15-.38,2.68-.77,4.22-1.15h0l.38-15a13.2,13.2,0,0,0-3.84.38l-.76,15.74Zm182.31-26.48a13.88,13.88,0,0,1,4.22-1.54V303.23c-1.15.38-2.3.38-3.45.76l-.77,13.44Zm15.35-15.36c-1.53,0-3.07.39-4.22.39v12.66a22.77,22.77,0,0,1,5.37.77l-1.15-13.82ZM439.1,436.79a15.18,15.18,0,0,1,3.45-1.53l4.22-18a7.56,7.56,0,0,0-3.07.38l-4.6,19.19Zm29.55-21.11h-5l3.46,16.89a20.27,20.27,0,0,1,5.75,1.92l-4.22-18.81Zm-203,18-1.15,11.13c1.54-.38,3.07-.38,4.61-.76V433.72Zm-3.84,11.52,1.16-11.52c-1.16,0-1.92-.38-2.69-.38l-2.3,13.05c1.15-.38,2.3-.77,3.83-1.15Zm17.66-10.75a4.92,4.92,0,0,0-2.3-.38v10c1.15.38,2.3.38,3.45.76l-1.15-10.36Zm3.07,10.75a21,21,0,0,1,5.76,1.53l-1.15-11.89c-1.92,0-3.84-.39-5.76-.39l1.15,10.75ZM232.61,611.05l6.9.76,1.15-5.37c-1.15-.38-1.91-1.15-1.91-1.92,0-1.15,1.15-1.92,2.68-2.3l1.15-5a2,2,0,0,1-1.53-1.92c0-1.15,1.15-1.92,2.3-2.3l1.54-6.91a2,2,0,0,1-1.54-1.92c0-1.15.77-1.92,2.3-2.3l1.15-6.14a2.84,2.84,0,0,1-1.91-2.31c0-1.15,1.53-2.3,3.07-2.3l1.15-6.14a29.19,29.19,0,0,0-5.76-.77l-1.92,7.68a1.52,1.52,0,0,1,.77,1.53,2,2,0,0,1-1.54,1.92l-1.15,6.14a2.45,2.45,0,0,1,1.92,2.31c0,1.15-1.53,1.91-3.07,2.3l-1.53,6.52a2.07,2.07,0,0,1,1.15,1.54,2.43,2.43,0,0,1-1.92,2.3l-1.54,6.14a2.12,2.12,0,0,1,1.15,1.92c0,1.15-.76,1.92-2.3,2.3l-.76,4.23Zm10,.76,6.91.77.77-6.14a2,2,0,0,1-1.53-1.92c0-1.15.76-1.92,2.3-2.3l1.15-5.37c-.77-.39-1.54-.77-1.54-1.54a2.43,2.43,0,0,1,1.92-2.3l1.54-6.91c-1.15-.39-1.92-1.15-1.92-1.92,0-1.15,1.15-1.92,2.69-2.3l.76-6.53c-1.15-.38-1.92-1.15-1.92-1.92,0-1.15,1.16-1.92,2.69-2.3l1.15-5c-1.92-.38-3.84-.38-5.76-.77l-1.15,6.14a2.58,2.58,0,0,1,1.54,1.92c0,1.15-1.15,1.92-2.69,2.31l-1.15,6.14a2.43,2.43,0,0,1,1.92,2.3c0,1.15-1.15,1.92-2.69,2.3L246,593a2.43,2.43,0,0,1,1.92,2.3c0,1.15-1.16,1.92-2.69,2.3l-.77,5a2.58,2.58,0,0,1,1.54,1.92c0,1.15-1.15,1.92-2.69,2.3l-.77,5Zm9.6.77c5.76.39,11.51.77,16.12,1.16v-45.3c-2.69-.76-5.37-1.15-8.44-1.92l-.77,5c1.15.39,1.92,1.16,1.92,1.92,0,1.15-1.15,1.92-2.69,2.31l-.77,6.14a2.58,2.58,0,0,1,1.54,2.3c0,1.15-1.15,1.92-2.31,2.3L255.63,593c1.15.38,2.31,1.15,2.31,2.3s-1.54,1.92-3.07,2.3l-.77,5a2.56,2.56,0,0,1,1.53,1.92c0,1.15-1.15,1.92-2.3,2.3l-1.15,5.76Zm26.48-42.22.77,51.43c4.22,2.31,10,3.84,16.5,4.61l-1.53-8.06a2.57,2.57,0,0,1-2.69-2.3,2.83,2.83,0,0,1,1.92-2.3l-.77-5.38h-.38c-1.92,0-3.45-1.15-3.45-2.3,0-1.54,1.15-2.3,3.07-2.69l-1.16-6.14c-1.91,0-3.45-1.15-3.45-2.3a2.57,2.57,0,0,1,2.69-2.31l-.77-6.14c-1.92-.38-3.07-1.15-3.07-2.3s.77-1.92,2.3-2.3l-.77-4.22h-.38c-1.92,0-3.45-1.16-3.45-2.31s1.15-2.3,3.07-2.3v-.38c-3.07-.77-5.76-1.54-8.45-2.31ZM299,626.78c2.69.39,5,.77,7.68,1.15v-.38c-1.53-.38-2.3-1.15-2.3-1.92a2.58,2.58,0,0,1,1.53-1.92l-1.15-5.37a2.43,2.43,0,0,1-1.92-2.3c0-.77.39-1.15,1.15-1.54l-1.15-6.14c-1.92-.38-3.07-1.15-3.07-2.3a2.43,2.43,0,0,1,1.92-2.3l-1.15-6.15c-1.15-.38-2.3-1.53-2.3-2.3a2.55,2.55,0,0,1,1.53-1.92l-1.53-7.29c-1.54-.39-2.69-1.15-2.69-2.3a2.45,2.45,0,0,1,1.92-2.31L295.93,575c-1.91-.77-4.22-1.15-6.14-1.92v.38a2.56,2.56,0,0,1,1.54,1.92,2.08,2.08,0,0,1-1.15,1.54l1.15,5a2.43,2.43,0,0,1,1.92,2.3,2.13,2.13,0,0,1-1.15,1.92l1.15,6.52c.77.77,1.53,1.16,1.53,2.31a2,2,0,0,1-1.15,1.53l1.54,7.68a2.94,2.94,0,0,1,.76,1.92,1.43,1.43,0,0,1-.38,1.15l1.15,6.91c1.15.38,1.92,1.15,1.92,1.92a2.12,2.12,0,0,1-1.15,1.92l1.53,8.82Zm10.75,1.15c2.69.39,5.38.39,7.68.77v-1.15c-1.54-.38-2.3-1.15-2.3-1.92a2.12,2.12,0,0,1,1.15-1.92l-1.15-6.14c-1.16-.38-1.92-1.15-1.92-1.92a2.91,2.91,0,0,1,.76-1.53l-1.53-6.53c-1.15-.38-2.3-1.15-2.3-2.3,0-.77.76-1.15,1.53-1.92l-1.53-6.14c-1.54-.38-2.69-1.54-2.69-2.3,0-1.15.76-1.54,1.53-2.31l-1.53-6.52c-1.54-.39-2.69-1.15-2.69-2.3a2.45,2.45,0,0,1,1.92-2.31l-1.15-3.83c-1.92-.77-4.22-1.16-6.53-1.92l1.16,5.75a2.57,2.57,0,0,1,2.68,2.31c0,.76-.77,1.53-1.92,1.91l1.54,7.3c1.53,0,3.07,1.15,3.07,2.3,0,.77-1.15,1.54-2.3,1.92l1.53,6.53a2.43,2.43,0,0,1,1.92,2.3,2,2,0,0,1-1.15,1.53l1.15,6.15c1.92,0,3.07,1.15,3.07,2.3a2.43,2.43,0,0,1-1.92,2.3l.77,4.6c1.54.39,3.07,1.16,3.07,2.69,0,.77-.77,1.54-1.92,1.92v.38Zm10.75,1.16c28.4,2.3,52.2,3.83,74.84,3.83l1.54-5.75a2.8,2.8,0,0,1-2.31-2.3c0-1.54,1.54-2.69,3.46-2.69l1.15-5.38a2.53,2.53,0,0,1-1.53-1.91c0-1.15,1.15-1.92,2.68-2.31l2.31-9.59c-1.16-.77-1.92-1.54-1.92-2.31,0-1.15,1.15-2.3,3.07-2.68l1.53-6.91a2.55,2.55,0,0,1-1.53-1.92c0-1.15,1.15-1.92,2.68-2.3l1.16-6.14c-17.28,1.53-33,4.22-45.29,8.44,3.83,5.37,7.67,10.75,12.28,16.5a252,252,0,0,0-24.95-11.89c-7.29,3.45-12.67,7.29-15.36,11.89a164.89,164.89,0,0,1-2.3-19.19c-7.67-2.68-15.35-5.37-23.41-8.06l.77,3.07a2.57,2.57,0,0,1,2.68,2.31,2.53,2.53,0,0,1-1.53,1.91l1.53,6.91a2.57,2.57,0,0,1,2.69,2.31c0,.76-.77,1.53-1.92,1.92l1.54,6.14c1.92.38,3.07,1.15,3.07,2.3a2.43,2.43,0,0,1-1.92,2.3l1.53,5.76c1.92,0,3.46,1.15,3.46,2.3s-1.15,1.92-2.31,2.31l1.16,5c1.53.39,3.07,1.16,3.07,2.69,0,.77-1.15,1.54-1.92,1.92v1.54Zm256-228.76c-.38.38-.76,1.15-1.15,1.54l-.38-1.16v9.22c1.15.38,2.3.38,3.45.76l-1.92-10.36Zm31.09,160.44-5.75,2.3a2.92,2.92,0,0,1,.38,1.53,2.11,2.11,0,0,1-1.53,2.31l1.53,8.44a2.44,2.44,0,0,1,1.92,2.31,2.1,2.1,0,0,1-1.15,1.91l.77,5.38c1.53.38,2.68,1.15,2.68,2.3a2,2,0,0,1-.76,1.54l6.52-.77c-1.15-.39-1.92-1.15-1.92-1.92a2.43,2.43,0,0,1,1.92-2.3l-1.15-5.38a2.79,2.79,0,0,1-2.3-2.68,2,2,0,0,1,1.53-1.92l-1.53-7.3c-1.54-.38-2.69-1.53-2.69-2.68a2.59,2.59,0,0,1,1.53-2.3v-.77Zm-10.74,6.52c-.39-.38-1.15-.38-1.54-.77a34,34,0,0,0-6.14,3.84l.77,6.14c1.15.39,2.3,1.54,2.3,2.31a2.43,2.43,0,0,1-1.92,2.3l.77,5.37a2.44,2.44,0,0,1,1.92,2.31,2.93,2.93,0,0,1-.77,1.53c2.31-.38,5-.38,7.68-.77a2.58,2.58,0,0,1-1.54-2.3,2.54,2.54,0,0,1,1.54-1.92l-.77-5c-1.92-.38-3.07-1.53-3.07-2.68s.77-1.92,2.3-2.31l-1.53-8.06Zm-10.37,14.2a3.28,3.28,0,0,1-2.3-2.68c0-.77.77-1.54,1.92-2.31l-.38-3.45a67.45,67.45,0,0,0-9.22,8.83l.39,10.36c3.07-.38,6.52-.77,10.36-1.15a2.8,2.8,0,0,1-2.3-2.3c0-1.16,1.15-1.92,2.3-2.31l-.77-5Zm-187.3,51.43h10l1.15-5.37a2.78,2.78,0,0,1-2.3-2.3c0-1.54,1.15-2.31,3.07-2.69l.77-4.22c-1.54-.38-2.69-1.15-2.69-2.69,0-1.15,1.92-2.3,3.84-2.68l1.92-9.21c-1.54-.39-2.69-1.54-2.69-2.69s1.92-2.69,3.84-2.69l1.15-6.14c-1.54-.38-2.69-1.54-2.69-2.69,0-1.53,1.92-2.68,3.84-2.68l1.54-6.91c-2.69,0-5.76.38-8.45.38l-1.53,6.53a2.43,2.43,0,0,1,1.92,2.3c0,1.15-1.15,2.3-3.07,2.69l-1.54,6.52c.77.77,1.54,1.54,1.54,2.3,0,1.15-1.15,2.31-2.69,2.69l-2.3,9.21c1.15.77,1.92,1.54,1.92,2.31,0,1.15-1.16,2.3-2.69,2.68l-1.54,5.37a2.13,2.13,0,0,1,1.16,1.93c0,.76-.77,1.53-1.92,2.3l-1.54,5.75Zm13.82,0c3.45,0,6.91-.38,10.36-.38l-.77-.38.77-5.76c0-.38-.38-.77-.38-1.15a2.1,2.1,0,0,1,1.15-1.92l.77-5.37a2.45,2.45,0,0,1-1.92-2.31c0-1.15,1.15-1.91,2.68-2.3l1.92-10a2.43,2.43,0,0,1-1.92-2.3c0-1.15,1.16-1.92,2.69-2.3l1.15-6.15c-1.92-.38-3.07-1.53-3.07-2.68s1.92-2.31,3.84-2.69l1.53-8.06a65.54,65.54,0,0,1-8.44.38L421.83,588a2.91,2.91,0,0,1,.76,1.53,2.53,2.53,0,0,1-1.53,1.92l-1.54,8.06a2.88,2.88,0,0,1,.77,1.54,2.78,2.78,0,0,1-1.53,2.3l-2.31,11.13c.39.39.77.77.77,1.15a3.32,3.32,0,0,1-1.15,2.31l-1.15,5.37a2.12,2.12,0,0,1,1.15,1.92c0,.77-.77,1.53-1.92,2.3L413,632.92Zm13.43-.38c8.06-.38,16.12-1.15,24.57-1.92V579.19H435.26l-1.53,9.21a2.93,2.93,0,0,1,.76,1.54,2.78,2.78,0,0,1-1.53,2.3l-1.16,6.53c1.16.76,1.93,1.53,1.93,2.3,0,1.15-1.16,2.3-2.69,2.69l-1.54,10a2.54,2.54,0,0,1,1.54,1.91,3.29,3.29,0,0,1-2.3,2.69l-.77,4.22c1.92.38,3.07,1.15,3.07,2.69s-1.92,2.68-3.84,2.68l-.77,4.61Zm24.95-200V416.84h-1.92l-4.22,17.27a29,29,0,0,1,6.14-1.54Zm10-16.5h-1.92l.39,15.73c1.53,0,3.06.39,4.6.39l-3.07-16.12Zm0,163.5.77,49.9c4.6-.38,9.21-.77,13.82-1.54l-.39-4.6c-1.54-.39-2.69-1.54-2.69-2.69a2.43,2.43,0,0,1,1.92-2.3l-.38-5c-1.54-.38-2.69-1.15-2.69-2.3s.77-1.92,2.3-2.3l-1.15-9.22c-1.53-.38-2.3-1.15-2.3-2.3a2.43,2.43,0,0,1,1.92-2.3l-.38-4.23c-1.92-.38-3.07-1.15-3.07-2.3s1.15-1.92,2.3-2.69l-.38-5.37c-3.46-.38-6.53-.38-9.6-.77Zm18.42,48L489,626.4l-.76-4.61c-1.15-.38-2.3-1.53-2.3-2.3a2.58,2.58,0,0,1,1.53-2.3l-.77-5c-1.53-.39-2.69-1.54-2.69-2.69a2.84,2.84,0,0,1,1.93-2.3l-1.16-8.06c-1.53-.38-2.68-1.15-2.68-2.3a2.43,2.43,0,0,1,1.91-2.31l-.76-4.6c-1.92-.39-3.07-1.54-3.07-2.69a2.78,2.78,0,0,1,2.3-2.3l-.77-3.84c-2.3,0-5-.38-7.29-.38l.38,5c1.54.77,2.31,1.54,2.31,2.69a2.54,2.54,0,0,1-1.54,1.92l.39,4.22c1.53.39,2.68,1.54,2.68,2.69a2.83,2.83,0,0,1-1.92,2.3l.77,8.83c1.53.77,2.3,1.54,2.3,2.69a2.58,2.58,0,0,1-1.53,1.92l.38,5.37a2.84,2.84,0,0,1,1.92,2.3,3.28,3.28,0,0,1-1.15,2.3l.38,4.61Zm13.05-1.92c3.07-.38,5.76-.76,8.83-1.15l-.77-3.84c-1.53-.38-2.68-1.53-2.68-2.68a2.78,2.78,0,0,1,1.53-2.31l-1.15-5.37c-1.15-.38-2.3-1.53-2.3-2.3a2.61,2.61,0,0,1,1.53-2.31l-1.53-7.29c-1.54-.38-2.69-1.53-2.69-2.69,0-.76.77-1.53,1.92-2.3l-.77-4.22c-1.92-.38-3.07-1.54-3.07-2.69a2.43,2.43,0,0,1,1.92-2.3v-1.53c-2.69-.39-5.76-.77-8.44-1.16l.77,3.46c1.53.38,2.3,1.15,2.3,2.3a2.58,2.58,0,0,1-1.54,2.3l.77,4.61c1.53.38,2.69,1.53,2.69,2.69,0,.76-.77,1.53-1.92,1.92l1.53,8.44a2.84,2.84,0,0,1,1.92,2.3,2.1,2.1,0,0,1-1.15,1.92l.77,5.37c1.53.39,2.68,1.54,2.68,2.69,0,.77-.76,1.54-1.91,1.92l.76,4.22Zm12.28-1.92c15.74-2.68,31.86-14.2,35.7-25.33a77.34,77.34,0,0,0,9.21-1.92c-15.35-6.14-33.77-10.36-53-13.43l.38,1.15c1.15.38,2.3,1.15,2.3,2.3a2.78,2.78,0,0,1-1.53,2.31l1.15,4.6c1.15.39,2.3,1.15,2.3,2.3s-.77,1.54-1.54,2.31l1.54,7.29c1.54.38,2.69,1.53,2.69,2.69,0,.77-.77,1.53-1.92,1.92l1.15,5.75c1.53.39,2.3,1.15,2.3,2.31a2.78,2.78,0,0,1-1.53,2.3l.76,3.45ZM700.86,569.6a1.33,1.33,0,0,1,.38.76,2,2,0,0,1-.76,1.54,6.37,6.37,0,0,1,.76,4.22,7.56,7.56,0,0,1-.38,3.07l1.15-.38,2.69-9.6-3.84.39Zm-2.3,2.3c-.77-.39-1.15-.77-1.15-1.54,0-.38.38-.38.38-.76L689,570.75h0c0,.76-.38,1.53-.76,1.53.76.77,1.15,2.3,1.15,4.22a5.12,5.12,0,0,1-1.54,3.84,88.4,88.4,0,0,1,10-.77,11.3,11.3,0,0,1-.77-3.45,6.12,6.12,0,0,1,1.54-4.22Zm-65.63,6.91a5.73,5.73,0,0,1,.76,3.84c0,1.53,0,2.68-.76,3.45L645.59,585c-.77-.77-1.15-2.3-1.15-4.22a5.85,5.85,0,0,1,1.54-3.84c-.39-.39-.77-.39-.77-.77l-11.9,1.54c0,.38-.38.76-.38,1.15Zm15-1.92a8.2,8.2,0,0,1-.39,7.67l11.13-1.15a7.26,7.26,0,0,1-.77-3.07c.39-1.53.77-3.07,1.54-3.84a2.94,2.94,0,0,1-.77-1.92v-.38l-10.36,1.54c0,.38-.38.76-.38,1.15Zm38.38-4.22a2.93,2.93,0,0,1-.77-1.92l-5,.76-5.76.77a1.4,1.4,0,0,1,.39,1.15,2,2,0,0,1-.77,1.54c.77.77,1.15,2.3,1.15,4.22a5.51,5.51,0,0,1-.77,2.69l11.52-1.15c-.77-.77-1.16-2.31-1.16-4.23s.39-3.07,1.16-3.83Zm-24.95,3.83c.77.39,1.15,1.92,1.15,3.84a7.12,7.12,0,0,1-.77,3.07c3.46-.38,6.53-.76,10-1.15a4.07,4.07,0,0,1-.38-3.07c0-1.92.38-3.45,1.15-3.84a2.94,2.94,0,0,1-.77-1.92v-.76l-10,1.15c.39.38.39.38.39.76a2.94,2.94,0,0,1-.77,1.92ZM319,641v7.67h7.68V641Zm-30.7-1.54v7.68h7.67v-7.68Zm-31.86-3.07v7.68h7.68v-7.68Zm-28.78-2.69v7.68h7.67v-7.68Zm339.67-29.17v5.38h4.61v-5.38Zm4.61,6.91h-4.61v5h4.61v-5Zm0,6.53h-4.61v5h4.61v-5Zm1.15-13.44v5.38h5v-5.38Zm5,6.91h-5v5h5v-5Zm0,6.53h-5v5h5v-5Zm22.26-15v5h5v-5Zm5,6.52h-5v5.38h5v-5.38Zm0,6.91h-5V621h5v-4.61ZM606.44,603v5h4.61v-5Zm4.61,6.52h-4.61v5.38h4.61v-5.38Zm0,6.91h-4.61V621h4.61v-4.61Zm22.64-17.27v5.37h5v-5.37Zm5,6.91h-5v5h5v-5Zm0,6.52h-5v5h5v-5Zm1.15-13.43v5.37h4.61v-5.37Zm4.61,6.91h-4.61v5h4.61v-5Zm0,6.52h-4.61v5h4.61v-5Zm23-16.12v5.37h4.61v-5.37Zm4.61,6.91h-4.61v5h4.61v-5Zm0,6.53h-4.61v5h4.61v-5Zm1.15-13.44v5.37h5v-5.37Zm5,6.91h-5v5h5v-5Zm0,6.53h-5v5h5v-5ZM378.07,643.67v8.06h7.68v-8.06Zm26.48,0v8.06h7.68v-8.06Zm27.25-.38v8.06h7.68v-8.06Zm29.56,0V651H469v-7.67Zm29.17-1.54v7.68h7.68v-7.68ZM349.67,642.9v7.68h7.68V642.9Zm201.12-3.45v7.68h7.68v-7.68Zm-29.94,1.92v7.68h7.68v-7.68Zm59.88-3.84v7.68h7.67v-7.68Zm29.94-1.15v8.06h7.67v-8.06Z"/></svg>