<?xml version="1.0" standalone="no"?>
<!DOCTYPE svg PUBLIC "-//W3C//DTD SVG 20010904//EN"
 "http://www.w3.org/TR/2001/REC-SVG-20010904/DTD/svg10.dtd">
<svg version="1.0" xmlns="http://www.w3.org/2000/svg"
 width="750.000000pt" height="750.000000pt" viewBox="0 0 750.000000 750.000000"
 preserveAspectRatio="xMidYMid meet">
<metadata>
Created by potrace 1.11, written by Peter Selinger 2001-2013
</metadata>
<g transform="translate(0.000000,750.000000) scale(0.100000,-0.100000)"
fill="#000000" stroke="none">
<path d="M3763 7033 c-380 -446 -688 -1148 -852 -1943 -53 -258 -97 -547 -116
-765 -9 -94 -45 -166 -146 -290 -158 -195 -190 -252 -248 -451 -69 -233 -113
-337 -206 -479 -88 -135 -194 -260 -721 -845 -1083 -1204 -1474 -1653 -1474
-1696 0 -28 44 -13 83 29 1700 1788 2170 2262 2422 2439 198 140 426 200 693
183 l117 -8 -110 -28 c-283 -71 -516 -191 -693 -354 -79 -74 -172 -190 -172
-217 0 -30 44 -21 96 21 122 96 203 117 490 125 241 7 344 22 478 70 107 39
196 95 272 171 114 114 149 265 104 453 -18 73 -83 224 -112 260 -6 7 -9 14
-7 16 2 2 40 -3 84 -11 116 -21 279 -12 375 20 41 14 76 24 78 23 8 -9 -81
-63 -137 -84 -49 -18 -93 -26 -174 -30 -59 -2 -106 -7 -104 -11 126 -230 119
-467 -18 -631 l-36 -43 28 -30 c91 -95 313 -244 496 -332 214 -102 403 -155
632 -174 180 -16 181 -14 33 38 -399 140 -706 368 -831 617 l-26 50 88 62 c48
34 98 73 111 87 l23 24 46 -40 c74 -66 246 -176 355 -229 128 -61 255 -103
390 -129 155 -30 178 -26 71 13 -190 69 -312 130 -455 227 -80 55 -215 168
-208 175 2 1 53 -17 113 -41 205 -83 382 -115 620 -114 197 2 258 12 135 22
-202 18 -474 91 -628 170 -94 48 -193 117 -189 132 6 16 136 45 233 52 174 11
397 -33 559 -111 151 -74 264 -195 322 -344 21 -54 27 -85 27 -157 1 -79 -2
-97 -26 -146 -26 -53 -102 -133 -232 -246 -59 -52 -55 -62 40 -93 38 -13 64
-27 64 -35 0 -22 -63 -80 -111 -103 -97 -47 -146 -52 -500 -55 -371 -4 -433
-11 -615 -72 -56 -18 -147 -56 -201 -84 -211 -105 -433 -278 -433 -336 0 -34
11 -32 82 16 138 94 435 210 631 246 130 24 468 24 627 -1 252 -39 413 -100
562 -213 227 -172 440 -393 565 -585 83 -126 155 -319 208 -552 26 -115 38
-142 56 -116 15 21 2 218 -22 352 -47 264 -145 485 -353 796 -199 300 -272
459 -246 538 19 57 31 60 114 25 41 -17 84 -31 97 -31 20 0 21 4 16 53 -3 28
-12 85 -21 126 -29 128 -13 171 166 451 228 357 292 521 305 781 11 240 -45
530 -153 781 l-35 81 35 136 c45 173 72 306 86 416 19 151 -12 294 -122 573
l-60 152 -50 0 c-102 0 -132 44 -88 130 11 22 18 40 15 40 -14 0 -99 -49 -190
-110 -55 -36 -107 -70 -114 -75 -33 -20 34 57 138 158 l111 107 -38 0 c-47 0
-101 34 -121 75 -8 17 -15 56 -15 87 -1 35 -5 58 -12 58 -31 0 -233 -201 -373
-370 -11 -14 -20 -20 -21 -15 -1 31 166 304 270 443 35 46 33 48 -25 27 -61
-22 -109 -19 -141 9 -25 21 -28 32 -34 102 l-5 79 -78 -78 c-77 -76 -226 -269
-294 -380 -20 -31 -38 -56 -39 -54 -13 13 122 289 220 451 36 60 66 111 66
112 0 2 -20 -4 -45 -13 -63 -21 -106 -11 -145 33 -17 20 -37 33 -45 30 -26
-10 -133 -150 -203 -266 -39 -63 -105 -182 -147 -265 -84 -163 -88 -151 -18
43 50 139 101 258 172 402 l49 99 -49 -39 c-74 -58 -126 -63 -177 -16 l-24 21
-28 -35 c-71 -86 -231 -389 -325 -613 -15 -37 -30 -66 -32 -64 -13 14 112 395
196 596 l31 74 -50 -47 c-75 -70 -134 -85 -184 -45 -14 11 -30 18 -36 14 -5
-3 -40 -52 -78 -108 -68 -103 -169 -291 -249 -467 -23 -52 -43 -90 -43 -84 0
21 79 279 138 451 l59 172 -36 -28 c-54 -43 -83 -44 -104 -4 -14 26 -14 25
-84 -98 -79 -139 -188 -355 -223 -441 -13 -32 -25 -56 -27 -55 -12 12 121 428
182 569 l37 88 -32 37 c-29 33 -41 55 -64 118 -6 17 -14 8 -44 -50 -66 -130
-144 -309 -253 -580 -60 -148 -109 -266 -109 -262 0 5 14 63 31 130 57 227
185 582 307 852 46 100 49 112 35 127 -20 23 -12 79 26 170 16 37 28 68 26 68
-2 0 -25 -26 -52 -57z m1427 -1692 c139 -24 253 -60 340 -107 138 -75 315
-229 420 -364 23 -30 -1 -11 -71 55 -206 197 -397 300 -659 356 -124 26 -412
36 -571 20 -500 -52 -941 -278 -1337 -685 -127 -131 -134 -134 -60 -29 124
177 241 287 463 435 275 184 599 300 940 337 134 15 400 6 535 -18z m102 -285
c262 -47 477 -158 671 -346 108 -104 182 -197 254 -317 41 -70 131 -256 100
-209 -6 10 -38 60 -71 110 -71 111 -220 262 -330 336 -158 106 -344 179 -543
215 -123 22 -377 30 -493 16 -384 -48 -778 -223 -1160 -515 -357 -274 -575
-436 -587 -436 -27 0 59 179 144 297 154 216 474 459 838 639 236 116 504 197
736 223 110 13 332 6 441 -13z m-19 -332 c32 -6 37 -10 37 -33 0 -44 -12 -53
-66 -49 l-49 3 -3 43 c-3 47 1 49 81 36z m-289 -30 c8 -22 8 -64 -1 -64 -5 -1
-27 -5 -51 -9 -41 -8 -44 -7 -53 17 -15 38 -7 56 26 63 52 11 73 9 79 -7z
m622 -44 c21 -8 22 -12 13 -40 -12 -34 -13 -34 -74 -18 -39 11 -45 16 -41 33
3 11 6 26 6 34 0 14 46 10 96 -9z m-929 -54 c10 -34 10 -34 -31 -50 -56 -22
-62 -21 -76 14 -15 36 -15 36 36 54 56 21 59 20 71 -18z m1200 -74 c39 -26 42
-30 29 -48 -14 -18 -15 -18 -60 3 -47 23 -56 39 -34 61 16 16 17 16 65 -16z
m-1494 -47 l16 -34 -45 -27 -46 -27 -19 24 c-10 13 -19 29 -19 36 0 9 71 59
91 62 3 1 13 -15 22 -34z m1752 -148 c23 -20 36 -38 31 -45 -10 -17 -17 -15
-59 23 -22 18 -36 39 -32 44 10 17 19 14 60 -22z m-1402 -202 c332 -157 808
-280 1287 -331 91 -10 169 -21 173 -25 33 -28 -600 -32 -823 -5 -277 33 -564
101 -788 187 -160 62 -172 62 -229 10 -43 -39 -42 -21 3 54 57 96 109 143 184
166 38 11 71 2 193 -56z m-1637 -392 c4 -19 2 -45 -5 -59 -22 -50 -131 -89
-131 -46 0 25 48 123 72 149 20 21 23 22 40 7 9 -9 21 -32 24 -51z m2487 -299
c123 -61 221 -162 281 -289 48 -99 60 -160 53 -274 -6 -113 -32 -196 -107
-339 -50 -95 -307 -468 -317 -458 -3 2 36 78 86 169 225 407 276 571 242 774
-25 144 -138 322 -265 415 -48 35 -39 36 27 2z"/>
<path d="M4038 6813 c-62 -4 -67 -6 -75 -30 -7 -20 -4 -42 11 -81 24 -67 48
-79 126 -63 30 6 65 8 77 5 13 -4 33 0 47 9 47 31 111 41 160 24 38 -13 45
-13 50 -1 11 29 98 74 143 74 40 0 113 26 113 41 0 3 -26 9 -57 13 -76 8 -509
15 -595 9z"/>
<path d="M3140 6610 c-407 -155 -804 -413 -1120 -730 -533 -532 -851 -1202
-931 -1955 -17 -161 -14 -513 6 -680 19 -165 54 -348 95 -497 35 -127 121
-368 131 -368 3 0 41 38 83 84 l76 84 -15 34 c-25 62 -82 260 -108 378 -176
794 -22 1625 429 2305 189 285 423 533 702 743 157 118 275 190 475 292 l169
85 68 133 c37 72 63 132 56 132 -6 0 -58 -19 -116 -40z"/>
<path d="M6039 6263 c5 -32 11 -38 41 -46 47 -12 84 -40 111 -85 13 -20 33
-50 46 -65 13 -16 28 -49 34 -74 7 -27 21 -50 36 -60 29 -19 64 -77 99 -164
18 -44 45 -84 89 -130 244 -259 481 -645 609 -994 176 -478 229 -1027 145
-1525 -99 -590 -359 -1116 -774 -1567 -47 -50 -85 -95 -85 -99 0 -4 19 -52 42
-107 l43 -100 114 119 c336 351 585 756 737 1199 194 565 226 1175 92 1765
-172 760 -626 1434 -1286 1907 -48 34 -90 63 -93 63 -3 0 -3 -17 0 -37z"/>
<path d="M1650 1956 l-73 -75 38 -58 c91 -138 230 -308 365 -447 205 -210 367
-343 598 -489 128 -82 449 -242 582 -291 242 -89 504 -151 765 -182 167 -19
530 -22 685 -5 500 56 934 202 1353 457 51 31 93 57 95 59 5 4 -44 117 -68
158 l-21 36 -67 -43 c-343 -219 -755 -374 -1162 -436 -752 -116 -1532 64
-2157 497 -294 203 -611 525 -790 803 -32 49 -60 89 -63 90 -3 0 -39 -34 -80
-74z"/>
</g>
</svg>
