<?xml version="1.0" standalone="no"?>
<!DOCTYPE svg PUBLIC "-//W3C//DTD SVG 20010904//EN"
 "http://www.w3.org/TR/2001/REC-SVG-20010904/DTD/svg10.dtd">
<svg version="1.0" xmlns="http://www.w3.org/2000/svg"
 width="750.000000pt" height="750.000000pt" viewBox="0 0 750.000000 750.000000"
 preserveAspectRatio="xMidYMid meet">
<metadata>
Created by potrace 1.11, written by Peter Selinger 2001-2013
</metadata>
<g transform="translate(0.000000,750.000000) scale(0.100000,-0.100000)"
fill="#000000" stroke="none">
<path d="M4020 7164 c0 -5 -12 -22 -28 -39 -88 -96 -266 -347 -345 -485 -314
-552 -547 -1286 -653 -2055 -3 -22 -7 -51 -9 -65 -5 -35 -13 -103 -20 -185
-11 -121 -15 -139 -45 -200 -16 -33 -72 -113 -125 -179 -160 -198 -183 -241
-247 -456 -73 -249 -141 -399 -254 -557 -47 -66 -162 -210 -193 -243 -14 -15
-118 -131 -164 -184 -10 -12 -31 -34 -46 -51 -15 -16 -51 -57 -81 -90 -45 -51
-93 -104 -235 -261 -11 -12 -49 -54 -85 -94 -36 -40 -74 -82 -85 -94 -11 -12
-51 -57 -90 -101 -38 -43 -75 -83 -80 -89 -6 -6 -51 -56 -100 -111 -49 -55
-94 -105 -100 -111 -5 -6 -37 -42 -70 -79 -33 -38 -67 -76 -75 -84 -9 -9 -47
-52 -85 -96 -39 -44 -77 -87 -85 -95 -15 -15 -204 -231 -381 -435 -135 -156
-274 -326 -287 -351 -9 -17 -9 -24 2 -33 22 -18 31 -10 466 449 80 84 170 178
200 210 90 94 351 368 410 430 71 75 411 428 518 539 282 291 649 654 743 736
25 22 76 67 113 100 177 157 377 266 535 291 18 3 43 8 55 11 29 7 300 11 356
5 43 -5 41 -6 -66 -32 -360 -89 -669 -274 -849 -510 -52 -69 -59 -87 -37 -98
23 -12 38 -6 96 40 82 65 167 102 263 113 21 2 126 7 233 10 107 3 210 7 228
10 86 11 118 16 134 21 9 3 25 6 35 9 43 8 201 70 238 93 70 43 160 121 197
170 70 93 101 243 77 367 -6 28 -12 60 -15 73 -8 39 -44 124 -85 200 l-39 73
38 -6 c108 -19 155 -23 242 -20 95 3 200 24 252 51 39 20 45 17 17 -7 -81 -71
-197 -108 -349 -110 l-75 -1 36 -76 c38 -79 68 -209 63 -272 -8 -107 -17 -144
-56 -230 -7 -14 -31 -50 -54 -81 l-43 -56 62 -55 c346 -304 791 -489 1212
-503 91 -3 113 6 44 18 -70 13 -345 132 -459 198 -160 93 -318 229 -407 349
-38 53 -103 160 -103 172 0 3 24 21 53 39 28 19 80 58 114 86 l62 53 96 -75
c240 -187 546 -318 820 -351 22 -3 51 -7 65 -10 45 -10 16 4 -81 39 -235 85
-432 193 -589 323 -109 91 -120 112 -38 75 257 -116 568 -166 852 -139 78 8
99 18 40 19 -40 1 -49 2 -164 19 -213 32 -410 92 -559 170 -89 47 -193 122
-183 132 9 9 114 36 172 44 69 10 236 7 315 -6 334 -53 556 -195 660 -423 26
-56 52 -166 50 -207 -9 -143 -64 -227 -250 -381 -36 -30 -65 -61 -65 -71 0
-11 22 -25 70 -43 38 -15 72 -31 76 -36 15 -25 -73 -99 -155 -130 -88 -33
-146 -40 -301 -38 -299 3 -357 3 -450 -4 -300 -21 -595 -134 -850 -325 -103
-77 -167 -139 -179 -174 -16 -46 8 -45 89 7 99 65 252 136 397 185 303 102
577 117 988 55 135 -21 296 -76 394 -134 237 -143 541 -438 699 -680 95 -145
184 -390 233 -639 11 -59 29 -85 47 -68 12 13 2 281 -12 305 -2 3 -6 29 -10
56 -3 28 -11 68 -16 90 -6 22 -13 49 -15 61 -13 59 -72 220 -111 302 -24 52
-44 96 -44 98 0 8 -89 150 -195 309 -123 184 -142 217 -191 315 -63 127 -75
215 -36 264 l18 23 79 -33 c88 -37 120 -42 128 -20 3 8 -3 52 -15 98 -47 192
-34 246 118 480 300 463 366 641 359 973 -1 83 -6 161 -9 175 -3 13 -8 42 -12
65 -23 160 -89 377 -161 531 -13 30 -12 41 21 165 61 232 97 424 98 535 2 119
-45 289 -149 545 l-48 117 -63 5 c-104 8 -124 44 -76 138 l25 51 -58 -32 c-32
-17 -112 -68 -178 -113 -113 -76 -118 -78 -88 -41 42 53 135 147 206 209 l58
51 -43 -2 c-102 -4 -154 63 -149 193 l1 42 -36 -21 c-40 -23 -196 -176 -285
-278 -31 -36 -69 -78 -83 -95 l-26 -30 25 60 c14 33 40 82 57 110 51 80 142
220 148 225 11 10 91 130 87 130 -3 0 -20 -6 -38 -14 -86 -36 -158 -25 -185
26 -10 19 -14 51 -13 89 1 32 -1 59 -4 59 -4 0 -11 0 -15 0 -13 0 -125 -117
-187 -195 -31 -38 -91 -122 -135 -185 -44 -63 -86 -124 -95 -135 l-16 -20 10
20 c6 11 22 49 37 85 50 124 173 353 258 482 l17 27 -49 -19 c-66 -25 -116
-14 -160 36 l-32 38 -36 -35 c-88 -85 -215 -281 -340 -527 -41 -80 -76 -147
-79 -150 -15 -15 86 276 130 373 12 28 35 79 50 115 16 36 46 98 67 139 21 41
37 76 35 77 -2 2 -12 -4 -23 -14 -79 -74 -153 -85 -210 -31 l-22 21 -45 -64
c-95 -134 -227 -385 -312 -593 -43 -106 -47 -100 -15 23 35 134 91 297 155
452 26 63 50 122 53 130 3 8 -7 0 -24 -19 -72 -86 -171 -115 -220 -66 l-24 24
-40 -50 c-84 -107 -242 -392 -315 -569 -41 -98 -47 -94 -19 11 25 93 136 436
153 474 5 11 14 35 20 54 l11 34 -22 -19 c-13 -10 -25 -22 -28 -25 -28 -34
-87 -29 -96 7 -8 31 -17 30 -35 -3 -7 -16 -23 -44 -35 -63 -68 -114 -211 -396
-254 -502 -28 -69 -35 -70 -15 -2 8 27 33 114 56 194 23 80 68 212 101 293
l59 148 -31 36 c-29 33 -43 57 -67 122 -8 22 -16 11 -75 -110 -97 -197 -328
-751 -328 -785 0 -7 -4 -15 -9 -19 -10 -6 -10 -3 8 80 49 219 238 737 367
1005 18 38 19 46 7 55 -28 21 -10 122 40 218 11 21 17 41 13 44 -3 4 -6 2 -6
-3z m1365 -1818 c17 -4 68 -13 113 -22 250 -45 468 -171 661 -382 113 -123
130 -152 35 -60 -313 303 -617 422 -1079 421 -434 0 -817 -116 -1180 -358
-161 -107 -263 -192 -419 -348 -90 -90 -131 -125 -116 -100 25 40 106 148 150
196 228 258 641 503 995 593 17 4 32 8 35 9 8 2 112 25 140 30 14 3 48 8 75
11 28 4 73 10 100 14 57 9 444 5 490 -4z m115 -300 c13 -3 42 -8 65 -11 196
-29 432 -135 602 -272 173 -138 304 -306 425 -543 48 -95 49 -112 2 -34 -143
238 -357 424 -615 533 -94 40 -245 85 -324 96 -23 3 -50 7 -60 9 -88 17 -375
25 -450 12 -17 -2 -55 -8 -85 -11 -87 -11 -273 -61 -394 -106 -253 -94 -572
-282 -831 -489 -174 -140 -511 -390 -524 -390 -31 0 80 217 174 341 243 322
825 682 1309 810 61 16 131 32 156 35 25 3 47 8 51 9 3 2 39 7 80 11 40 3 75
8 77 9 5 5 317 -4 342 -9z m34 -357 l47 -3 -5 -35 c-3 -20 -5 -39 -6 -44 0 -7
-96 -1 -110 8 -4 2 -5 17 -3 32 7 43 12 55 21 49 5 -3 30 -6 56 -7z m-300 -17
c2 -4 7 -23 11 -42 l6 -35 -56 -11 c-31 -5 -58 -8 -59 -5 -2 4 -6 22 -10 42
l-6 37 47 10 c27 5 51 10 55 11 4 0 9 -2 12 -7z m674 -66 c1 -2 -3 -17 -9 -35
-10 -28 -15 -32 -36 -26 -14 3 -38 9 -54 12 -31 6 -35 17 -19 57 l9 25 53 -15
c29 -9 54 -17 56 -18z m-981 -79 c-2 -8 -99 -50 -102 -44 -12 26 -25 60 -25
67 0 5 24 17 52 28 l53 20 13 -31 c7 -17 11 -35 9 -40z m1239 -43 c46 -27 54
-43 30 -63 -11 -9 -24 -7 -60 11 -49 23 -52 28 -36 59 13 24 13 24 66 -7z
m-1551 -55 c9 -17 15 -32 13 -34 -9 -7 -88 -55 -92 -55 -6 0 -49 71 -45 73 50
29 87 47 96 47 7 0 20 -14 28 -31z m1829 -158 c25 -25 34 -41 26 -46 -18 -11
-107 56 -96 74 12 19 31 12 70 -28z m-1545 -165 c36 -31 279 -130 461 -188
201 -63 524 -140 690 -163 25 -3 88 -12 140 -20 144 -20 237 -31 304 -34 48
-2 25 -9 -49 -16 -39 -4 -86 -8 -105 -11 -49 -6 -478 -6 -520 0 -19 3 -71 8
-115 11 -91 7 -115 10 -240 31 -49 8 -103 17 -120 20 -130 21 -357 86 -543
156 -90 34 -141 48 -158 44 -13 -4 -43 -23 -66 -44 l-41 -37 36 70 c34 64 86
130 129 164 52 40 160 49 197 17z m-1628 -436 c0 -8 2 -24 4 -34 5 -27 -22
-70 -55 -90 -35 -20 -90 -22 -90 -2 0 34 66 157 95 178 11 8 44 -29 46 -52z
m2598 -324 c60 -31 133 -86 174 -133 231 -261 232 -537 4 -903 -43 -68 -262
-378 -280 -395 -12 -12 85 175 168 325 205 368 239 611 117 845 -55 105 -153
220 -227 266 -43 27 -13 23 44 -5z"/>
<path d="M3135 6169 c-420 -215 -810 -555 -1080 -944 -72 -104 -76 -110 -121
-185 -164 -278 -312 -663 -358 -935 -3 -16 -12 -70 -21 -119 -23 -137 -30
-234 -30 -456 0 -280 11 -394 64 -645 6 -27 15 -67 21 -87 5 -21 14 -53 18
-70 18 -67 66 -208 72 -207 3 0 27 26 54 57 27 31 70 80 95 108 327 361 426
520 516 829 75 255 117 337 277 535 55 69 109 143 118 165 10 22 21 78 25 125
4 47 8 92 10 100 1 8 6 44 10 80 9 86 21 171 31 225 2 11 13 72 24 135 21 123
27 150 36 190 3 14 7 39 10 55 3 17 29 127 59 245 72 285 161 567 244 768 19
46 25 72 18 72 -7 0 -48 -19 -92 -41z"/>
<path d="M6872 5248 c11 -63 12 -165 3 -228 -19 -139 -53 -306 -90 -447 -14
-51 -22 -100 -19 -110 4 -10 21 -57 40 -104 52 -137 101 -330 129 -514 14 -91
14 -341 0 -415 -7 -41 -16 -91 -20 -110 -12 -67 -75 -241 -124 -338 -51 -103
-106 -196 -235 -397 -126 -195 -127 -197 -92 -345 21 -88 25 -147 13 -192 -12
-49 -74 -111 -128 -128 -24 -7 -46 -15 -47 -16 -10 -7 280 -456 297 -461 9 -2
160 170 245 281 231 300 416 677 510 1036 19 74 38 149 40 165 3 17 10 55 16
85 6 30 13 78 16 105 4 28 8 52 9 55 7 11 19 277 19 385 -1 110 -10 260 -19
325 -9 56 -26 173 -31 200 -2 14 -19 88 -38 165 -86 349 -231 670 -433 963
-36 50 -66 92 -67 92 -2 0 1 -24 6 -52z"/>
<path d="M4570 2909 c0 -26 140 -147 262 -227 81 -52 297 -162 320 -162 8 0
18 -4 24 -8 13 -12 198 -72 221 -72 21 0 160 87 181 113 17 20 7 25 -59 32
-30 3 -61 7 -69 10 -8 2 -32 6 -52 9 -21 3 -73 15 -115 27 -43 12 -91 25 -108
29 -33 8 -152 53 -255 95 -36 15 -126 58 -200 96 -142 72 -150 76 -150 58z"/>
<path d="M3815 2616 c-27 -18 -95 -50 -150 -70 -186 -68 -281 -83 -595 -91
-252 -6 -274 -12 -388 -100 -67 -51 -127 -73 -189 -69 -55 4 -124 42 -150 84
l-19 29 -193 -193 -194 -194 28 -49 c121 -209 403 -536 611 -709 316 -261 682
-459 1054 -569 117 -35 263 -70 337 -80 21 -3 43 -8 50 -10 11 -4 28 -6 193
-24 79 -9 547 -7 590 2 14 3 45 8 70 11 214 25 436 81 665 166 135 50 335 145
440 208 114 68 195 123 195 132 0 24 -289 302 -420 404 -163 127 -353 187
-670 212 -78 6 -277 6 -347 -1 -210 -21 -514 -127 -689 -241 -100 -65 -106
-68 -174 -68 -66 -1 -109 18 -148 64 -51 59 -58 153 -17 235 78 159 454 410
770 513 l86 28 -58 25 c-112 46 -269 131 -378 204 -107 71 -125 84 -207 153
-22 17 -43 32 -46 31 -4 0 -29 -15 -57 -33z"/>
</g>
</svg>
