<svg id="Layer_1" data-name="Layer 1" xmlns="http://www.w3.org/2000/svg" viewBox="0 0 750 750"><defs><style>.cls-1{fill:#0b476b;}</style></defs><title>icon-blue-centered</title><path class="cls-1" d="M427.18,103.4l.16-.17-.7-.12C426.82,103.21,427,103.29,427.18,103.4Z"/><path class="cls-1" d="M529.32,149.54c0,.18,0,.36-.06.52a16.58,16.58,0,0,1,14.51,9.85c.14.31.27.64.39,1a16.6,16.6,0,0,1,5.84,12.9,16.63,16.63,0,0,1,6.84,6.14c.28.45.55.94.79,1.41l.21.43c1,2.1,3.15,6.91,5.68,13.18a258.62,258.62,0,0,1-4.28,366,174.06,174.06,0,0,1,7.49,17.71A276.18,276.18,0,0,0,655.38,375.8c0-97.25-50.41-182.94-126.46-232.35A16.57,16.57,0,0,1,529.32,149.54Z"/><path class="cls-1" d="M349.71,104.34a16.47,16.47,0,0,1,2.18,5.33,11.56,11.56,0,0,0,1.4,3.9l.12.19.12.13a1.8,1.8,0,0,0,.29.26l.61.42a17.64,17.64,0,0,1,2,.24,16.81,16.81,0,0,1,2.72.74,16.61,16.61,0,0,1,12-1,16.61,16.61,0,0,1,19-2.16c.52-.54,1.1-1.18,1.75-2a16.56,16.56,0,0,1,15.89-5.59,16.5,16.5,0,0,1,7.29-3.47,278.41,278.41,0,0,0-36.62-2.43c-9.25,0-18.4.47-27.43,1.36A16.06,16.06,0,0,1,349.71,104.34Z"/><path class="cls-1" d="M123.71,481.06l12.58-14a258.16,258.16,0,0,1-16.61-91.3c0-107.52,65.57-199.7,158.9-238.79,3.79-8.07,7.89-16.06,12.32-23.89C181,149.85,101.59,253.72,101.59,375.8a275.31,275.31,0,0,0,21.22,106.26Z"/><path class="cls-1" d="M527.73,598.38a64.28,64.28,0,0,0-4.49-8,258.87,258.87,0,0,1-365.31-79.13q-6.31,6.5-12.9,13.31c49.23,77,135.48,128.15,233.45,128.15a275.29,275.29,0,0,0,152.71-46C530.15,603.93,529,601.15,527.73,598.38Z"/><path class="cls-1" d="M542.8,188.73l0,0c-17.39,1.25-15-7.27-9.36-15.2-5.31,1-29.64,18.58-29.64,18.58,8.3-12.42,24.84-25.45,24.84-25.45-.63.1-1.23.18-1.81.24-13.47,1.34-15.17-9.38-13.94-19.35-10.33,4.5-35.8,35.7-35.8,35.7,2.77-12.32,27-44.39,27-44.39A34,34,0,0,1,493.66,142c-10.26,1-11.07-8.24-9.33-17.71-15.93,11-38.18,47.86-38.18,47.86,8.54-25.45,27.13-53,27.13-53a22.1,22.1,0,0,1-8.25,2.88c-5.81.57-9.23-2.9-11.24-7.3-16.8,12.33-39.37,63.05-39.37,63.05,6.41-28.31,25.34-63.57,25.34-63.57-5,5.32-9.17,7.53-12.52,7.86-3.91.39-6.76-1.79-8.78-4.59-15.1,16.33-34.34,64.84-34.34,64.84,5.2-28.19,20.49-61.27,20.49-61.27-5.77,6.87-10.41,9.62-14.11,10s-6.31-1.57-8.29-4.16c-17.47,20.22-33.75,61.75-33.75,61.75,3.4-18.48,18-58.23,18-58.23-3.78,4.08-6.54,5.8-8.53,6-2.61.26-3.91-2.12-4.5-5.3,0,0-26.1,43.32-30.28,63.11,0,0,7.6-38.32,21.44-66.29a17.73,17.73,0,0,1-3.58-3.14,4.38,4.38,0,0,1-1.58-2.07,27.83,27.83,0,0,1-3.78-9.56c-16.23,29.82-35.64,83.36-35.64,83.36,8.4-45.42,34.76-99.44,34.76-99.44-7.88-1.24,4.15-22.8,4.15-22.8-70.43,77-86.1,207-88.91,238.15a9.83,9.83,0,0,0-.18,2h0c-.18,2.2-.29,3.71-.33,4.4-3,15.57-25.33,28.76-31.73,52.78-8.82,33-16.4,45.49-33.4,66.24C169.5,456.1,39.66,597,10.11,635.6c-1.85,2.41-1.19,4.12.52,3.95a5.55,5.55,0,0,0,3-1.64c8.59-8,156.15-165.75,189.38-194.47,14.27-12.34,30.67-30.43,63-33.64a154.72,154.72,0,0,1,30.31.73s-56.1,7-84.47,48.68c-2.95,4.34,1.11,6,5.1,2.47,17.61-15.7,32.19-11.18,48.85-12.33,11.55-.79,20.9-.25,35.9-5.94,3.69-1.34,6.45-2.41,8.49-3.22,9.53-5.5,19.29-13.08,23.26-22.51,10.61-25.24-10-52.82-10-52.82a79.24,79.24,0,0,0,28.38,2.61,52,52,0,0,0,20.74-6.29c-6.21,8.19-17.1,11-25.64,11.82a66.25,66.25,0,0,1-12.42.09S350.27,395.51,339,420a41.12,41.12,0,0,1-8.63,11.92c3.49,3.59,48,47.95,114.24,46.68,0,0-65.88-15.78-85.83-61.64,8.18-4.93,15-10,19.3-14.84,8.51,8,38.52,33.14,83.49,36.67,0,0-45.25-12.74-67.56-39.26,13.32,6.72,41.75,18.05,77.08,14.54,2.44-.24,4.9-.55,7.41-.94,0,0-53.43-2.21-80.08-27a66.59,66.59,0,0,1,17.76-4.09,103.17,103.17,0,0,1,50.75,8.54c27.7,12.62,38.06,43.09,27.67,59.14-7.7,11.9-24.31,21.08-22.25,23.34s8.89,3.14,12.54,5.52c-.24,3.71-6.28,11.08-23.21,14-.8.13-1.64.24-2.53.33-11.7,1.16-30.82-1.64-52.53.51a120.56,120.56,0,0,0-35.88,8.9C348.16,512,333.33,524,327.43,530.14l.35,0a19.46,19.46,0,0,0-3.06,3.66c-1.31,2.52-.9,5.37,3.13,2.51S344.7,523.94,375,515.19s79.48-3.17,99.58,7.15,56.87,44.33,68.24,69.13c9.62,21,12.88,41.37,13.91,45.58s3.55,4.77,3.61-.77S561.47,590,532.48,548c-24.45-35.45-32.19-51.57-23.11-59.24,0,0,16.61,8.2,17.12,5.07.16-5.29-2.13-10.3-3.09-16.05h0a27.09,27.09,0,0,1,3-18.33c13-24.83,42.9-53.77,38.13-101.88-1.68-16.86-6.07-38.22-16.27-58.75,0,0,10.55-36,11.18-54.51S542.8,188.73,542.8,188.73Zm-235,80.81a218.2,218.2,0,0,1,33.29-23.26c22.24-12.56,46.47-19.15,69.22-21.41,25.4-2.53,49,.36,65.9,6.37,1.66.59,3.28,1.24,4.88,1.9,13.26,6.39,31.3,18.93,47.84,43.27-5.64-7.13-25.63-30.34-54.36-40.55-16.36-5.82-39.16-8.6-63.75-6.16-22.11,2.19-45.67,8.61-67.32,20.85-35.28,19.93-56.88,46.27-62.13,53.11A142.19,142.19,0,0,1,307.81,269.54ZM274.87,371.39c-2.75,3.65-8.13,5.23-10.47,4a1.6,1.6,0,0,1-.42-.3,9.11,9.11,0,0,1-.29-1.47c1.12-3,5.11-13,8.67-14.81C276.37,362,277.46,368,274.87,371.39ZM479.68,513.17c4.14-10,10.78-21,17.15-32.78h0c12.44-22.87,22.71-48.33,5.41-73.73-12.05-17.68-22.69-20-22.69-20a50.36,50.36,0,0,1,25.22,14.52C541.94,442.08,499.69,482.63,479.68,513.17Zm57.93-150.26c-23.36,2.32-84.67,5-144.67-20.86,0,0-.09,0-.13,0a4.38,4.38,0,0,0-2.2-.31c-5.18.51-10.87,8.65-10.87,8.65,6.48-17,14.86-23.66,22.3-24.4a14.32,14.32,0,0,1,7,1.09s45.42,27.47,138.38,34.64C547.47,361.69,543.92,362.29,537.61,362.91ZM376.25,302.55c3-1.62,6-3.21,9-4.71l3.13,6.31c-5.47,2.82-8.6,4.84-8.6,4.84Zm25.27-12c3.19-1.27,6.41-2.45,9.58-3.52l2.25,6.68c-3.27,1.06-6.36,2.18-9.25,3.32Zm26.81-8.34c3.39-.75,6.8-1.37,10.11-1.85l1,7.27-1.14.19q-4.32.61-8.45,1.47Zm28,4.28.09-7.35,1.29,0c3,.07,6,.28,9,.59L466,287.1c-2.81-.3-5.65-.49-8.46-.56Zm26.35,3.35,1.7-6.3c3.5.94,6.76,1.95,9.82,3l-2.14,5.87Q487.6,291,482.72,289.87Zm25.35,8.83,2.58-4.79c3.08,1.7,6,3.5,8.74,5.38l-2.52,3.92Q512.8,300.93,508.07,298.7Zm23.37,14,2.22-2.57a65.12,65.12,0,0,1,7.52,7l-2.08,2A81.19,81.19,0,0,0,531.44,312.71Zm26.25,23.9s-22.8-72.89-118.8-69.51c-2.74.1-5.49.28-8.21.56-39.45,3.91-76.41,25.39-103.93,46.57-.56.4-1.16.84-1.84,1.42l-.17.14c-3.08,2.4-6,4.8-8.84,7.15-13.7,10.78-31,23.33-36.64,27.35a.73.73,0,0,1-.36.14.77.77,0,0,1-.8-1c7.33-22.8,24.79-39.67,31-45.11.05,0,.05-.1.08-.14,28.71-23.48,70.59-49.67,118.5-54.42h0C531.65,239.48,557.67,336.56,557.69,336.61Z"/></svg>