<svg id="Layer_1" data-name="Layer 1" xmlns="http://www.w3.org/2000/svg" viewBox="0 0 1000 1000"><defs><style>.cls-1{fill:#fff;}</style></defs><title>white-sq-logotype</title><path class="cls-1" d="M295.11,310.76l.12-.12-.5-.09C294.86,310.62,295,310.68,295.11,310.76Z"/><path class="cls-1" d="M367.2,343.32c0,.13,0,.25,0,.37a11.72,11.72,0,0,1,10.24,6.95c.09.22.19.44.27.67a11.73,11.73,0,0,1,4.12,9.11,11.71,11.71,0,0,1,4.83,4.33c.2.32.39.66.56,1,.05.11.1.21.14.31.69,1.48,2.23,4.88,4,9.3a182.5,182.5,0,0,1-3,258.31,121,121,0,0,1,5.29,12.5A195.18,195.18,0,0,0,366.91,339,11.7,11.7,0,0,1,367.2,343.32Z"/><path class="cls-1" d="M240.45,311.42a11.63,11.63,0,0,1,1.53,3.76,8.17,8.17,0,0,0,1,2.76l.09.12a.39.39,0,0,0,.08.1.91.91,0,0,0,.21.18l.42.3a13.93,13.93,0,0,1,1.43.17,12.35,12.35,0,0,1,1.92.52,11.74,11.74,0,0,1,8.48-.73,11.72,11.72,0,0,1,13.4-1.52c.37-.38.78-.84,1.24-1.38a11.67,11.67,0,0,1,11.2-3.95,11.66,11.66,0,0,1,5.15-2.45,196.75,196.75,0,0,0-25.84-1.71q-9.8,0-19.36,1A11.49,11.49,0,0,1,240.45,311.42Z"/><path class="cls-1" d="M81,577.28l8.88-9.86A182.75,182.75,0,0,1,190.25,334.47c2.67-5.69,5.56-11.33,8.69-16.85C121.39,343.54,65.34,416.84,65.34,503a194.43,194.43,0,0,0,15,75Z"/><path class="cls-1" d="M366.08,660.07a46.52,46.52,0,0,0-3.17-5.65A182.69,182.69,0,0,1,105.1,598.57L96,608a195.18,195.18,0,0,0,272.52,57.94C367.79,664,367,662,366.08,660.07Z"/><path class="cls-1" d="M831.37,498.53c-11.52,0-19.81,7.49-21.2,19h41.48C851.07,505.9,843.24,498.53,831.37,498.53Z"/><path class="cls-1" d="M718.46,498.42c0-12.22-8.3-18.44-22.93-18.44l-4.16-.12L679.9,498.24l19.58-8.57-19.75,27.87,15.8-.11C710.16,517.43,718.46,511,718.46,498.42Z"/><path class="cls-1" d="M763.63,498.53c-11.52,0-19.81,7.49-21.2,19h41.48C783.33,505.9,775.5,498.53,763.63,498.53Z"/><path class="cls-1" d="M971,400.63H411.77a183.61,183.61,0,0,1-13.23,222H971a28.79,28.79,0,0,0,29-28.56V429.19A28.78,28.78,0,0,0,971,400.63ZM516.72,552.55H491.91V471.07h24.81Zm61.45,0-11.09-22H554v22h-24.8V471.07h39c22.42,0,35.3,10.46,35.3,28.94,0,12.09-5,20.92-14.07,25.92l16.94,26.62Zm30.35-62.18v-19.3h67.3l19-29.79h8.61l-19,29.79h0l-12.37,19.3H657.66v33.24L667.74,517l-55.07,75.76,20.06-34.4v-68Zm109.13,61.39-16.71-25.69c-1.72.11-3.57.23-5.41.23l-22,0-47.13,66.5,60.18-92.2-19,8.31,42.2-67.61h5.69l-18.65,29.87c19.36.42,30.52,10.24,30.52,27,0,13.36-6.45,22.35-18.09,26.15l18.89,27.42ZM792,524.92H742.43c1.61,11.86,10.26,19.35,22,19.35,7.49,0,14-2.65,18.78-7.6l4.95,5.3c-5.76,6.45-14.29,10.14-24.42,10.14-17.86,0-30.19-12.56-30.19-30.65s12.45-30.65,30.07-30.65C783.22,490.7,792.89,504.29,792,524.92Zm67.74,0H810.17c1.61,11.86,10.26,19.35,22,19.35,7.49,0,14.05-2.65,18.78-7.6l4.95,5.3c-5.76,6.45-14.29,10.14-24.42,10.14-17.86,0-30.19-12.56-30.19-30.65s12.45-30.65,30.07-30.65C851,490.7,860.64,504.29,859.71,524.92Zm22.59,26.84h-9V466.27h9Zm37.67.35c-8.64,0-17.51-3-23.27-8.53l3.45-6.8a30.76,30.76,0,0,0,20.17,7.72c7.14,0,12.9-2.65,13-8.64.34-14.63-33.65-7.14-33.53-28.69,0-11.63,10-16.47,21.08-16.47a35.07,35.07,0,0,1,19.36,5.53l-3.46,7.14a32.1,32.1,0,0,0-16.47-4.95c-6.8,0-12,2.42-12,8.06,0,13.48,33.88,6.57,33.88,28.34C942.21,546.81,931.61,552.11,920,552.11Z"/><path class="cls-1" d="M568.15,489.67H554V512h14.2c7.39,0,11.69-4,11.69-11.27C579.84,493.62,575.54,489.67,568.15,489.67Z"/><path class="cls-1" d="M376.71,371v0c-12.27.88-10.61-5.13-6.61-10.73-3.75.68-20.92,13.12-20.92,13.12,5.86-8.77,17.53-18,17.53-18-.44.07-.87.13-1.28.17-9.5.94-10.7-6.62-9.83-13.66-7.29,3.18-25.27,25.19-25.27,25.19,2-8.69,19-31.32,19-31.32A24.26,24.26,0,0,1,342,338c-7.24.72-7.81-5.82-6.58-12.5-11.24,7.78-26.95,33.77-26.95,33.77,6-18,19.15-37.41,19.15-37.41a15.7,15.7,0,0,1-5.83,2c-4.09.4-6.51-2.05-7.93-5.15-11.85,8.7-27.78,44.49-27.78,44.49,4.53-20,17.89-44.86,17.89-44.86-3.56,3.75-6.48,5.31-8.84,5.55-2.76.27-4.77-1.27-6.2-3.24-10.65,11.52-24.23,45.76-24.23,45.76,3.67-19.9,14.46-43.24,14.46-43.24-4.08,4.84-7.35,6.79-10,7s-4.45-1.1-5.85-2.93c-12.33,14.27-23.81,43.58-23.81,43.58,2.39-13,12.72-41.09,12.72-41.09-2.67,2.87-4.61,4.09-6,4.23-1.84.18-2.76-1.5-3.17-3.74,0,0-18.42,30.57-21.37,44.54,0,0,5.36-27,15.13-46.78a12.88,12.88,0,0,1-2.53-2.22,3.14,3.14,0,0,1-1.11-1.46,19.52,19.52,0,0,1-2.67-6.75c-11.45,21.05-25.15,58.83-25.15,58.83,5.93-32.05,24.53-70.17,24.53-70.17-5.56-.88,2.93-16.1,2.93-16.1-49.7,54.33-60.76,146.06-62.75,168.07a7.08,7.08,0,0,0-.12,1.44h0c-.13,1.55-.21,2.62-.24,3.1-2.15,11-17.87,20.3-22.39,37.25-6.22,23.33-11.57,32.11-23.57,46.75C113.27,559.66,21.63,659.12.78,686.34c-1.3,1.7-.84,2.9.37,2.78A3.87,3.87,0,0,0,3.26,688c6.06-5.63,110.2-117,133.65-137.24C147,542,158.55,529.25,181.34,527a109.44,109.44,0,0,1,21.4.51s-39.59,4.93-59.61,34.36c-2.09,3.06.78,4.24,3.59,1.74,12.43-11.08,22.72-7.89,34.48-8.7,8.15-.56,14.75-.18,25.34-4.19,2.6-1,4.55-1.7,6-2.28,6.72-3.88,13.61-9.23,16.41-15.88,7.49-17.81-7-37.28-7-37.28a56.18,56.18,0,0,0,20,1.85,36.72,36.72,0,0,0,14.64-4.44c-4.39,5.77-12.07,7.74-18.1,8.34a46.19,46.19,0,0,1-8.76.06s11.12,15.82,3.14,33.11a29.1,29.1,0,0,1-6.08,8.41c2.46,2.53,33.85,33.83,80.62,32.94,0,0-46.5-11.13-60.58-43.5,5.78-3.48,10.58-7,13.62-10.47,6,5.65,27.19,23.38,58.93,25.87,0,0-31.94-9-47.68-27.7A100.73,100.73,0,0,0,326.08,530c1.72-.17,3.46-.39,5.23-.67,0,0-37.71-1.55-56.51-19a47.1,47.1,0,0,1,12.53-2.89,72.92,72.92,0,0,1,35.82,6c19.55,8.91,26.85,30.42,19.52,41.74-5.43,8.4-17.15,14.88-15.69,16.47s6.27,2.22,8.84,3.9c-.17,2.62-4.43,7.82-16.38,9.87-.56.1-1.16.18-1.78.24-8.26.82-21.76-1.16-37.08.36a85.13,85.13,0,0,0-25.32,6.28c-15.91,6.81-26.38,15.32-30.54,19.63l.25,0a14,14,0,0,0-2.16,2.58c-.92,1.78-.63,3.8,2.21,1.78s11.89-8.71,33.26-14.88,56.09-2.24,70.27,5,40.14,31.28,48.16,48.78c6.79,14.81,9.09,29.2,9.82,32.17s2.5,3.37,2.55-.54.81-32.65-19.65-62.32c-17.25-25-22.72-36.4-16.31-41.81,0,0,11.72,5.78,12.08,3.58.11-3.74-1.5-7.27-2.18-11.33h0A19.17,19.17,0,0,1,365.1,562c9.19-17.52,30.28-37.94,26.91-71.89-1.18-11.9-4.28-27-11.48-41.46,0,0,7.45-25.42,7.89-38.47S376.71,371,376.71,371ZM210.87,428a154.59,154.59,0,0,1,23.5-16.41,124.61,124.61,0,0,1,48.85-15.11c17.93-1.78,34.56.25,46.5,4.5,1.18.41,2.32.87,3.45,1.34,9.36,4.51,22.09,13.36,33.76,30.53-4-5-18.09-21.41-38.36-28.62-11.55-4.1-27.64-6.06-45-4.34a121.22,121.22,0,0,0-47.51,14.71,152.34,152.34,0,0,0-43.85,37.49A100.41,100.41,0,0,1,210.87,428Zm-23.24,71.88c-1.94,2.58-5.74,3.69-7.39,2.83a1.25,1.25,0,0,1-.3-.21,6.87,6.87,0,0,1-.2-1c.79-2.12,3.61-9.2,6.12-10.45C188.69,493.24,189.45,497.46,187.63,499.88ZM332.16,599.94c2.93-7.07,7.61-14.85,12.11-23.14h0c8.78-16.14,16-34.1,3.82-52-8.5-12.48-16-14.1-16-14.1a35.51,35.51,0,0,1,17.79,10.24C376.11,549.77,346.29,578.39,332.16,599.94Zm40.89-106c-16.49,1.64-59.76,3.54-102.1-14.73,0,0-.06,0-.09,0a3.05,3.05,0,0,0-1.55-.21c-3.65.36-7.68,6.1-7.68,6.1,4.58-12,10.5-16.7,15.74-17.22a10.19,10.19,0,0,1,5,.77S314.4,488,380,493C380,493,377.5,493.46,373.05,493.9ZM259.18,451.3c2.08-1.15,4.22-2.26,6.35-3.32l2.21,4.45c-3.86,2-6.06,3.41-6.06,3.41ZM277,442.85c2.25-.89,4.52-1.73,6.76-2.48l1.59,4.71c-2.31.75-4.49,1.54-6.53,2.34ZM295.93,437c2.39-.52,4.79-1,7.13-1.3l.74,5.13-.81.14c-2,.28-4,.63-6,1Zm19.79,3,.06-5.18.91,0c2.11.05,4.26.2,6.37.42l-.54,5.15c-2-.21-4-.34-6-.39Zm18.59,2.37,1.2-4.45c2.47.67,4.77,1.38,6.93,2.14l-1.51,4.14C338.81,443.51,336.61,442.89,334.31,442.35Zm17.89,6.23,1.82-3.37c2.18,1.19,4.21,2.46,6.17,3.79l-1.78,2.77C356.5,450.7,354.43,449.62,352.2,448.58Zm16.49,9.89,1.57-1.81a46.24,46.24,0,0,1,5.31,4.92L374.1,463A57.08,57.08,0,0,0,368.69,458.47Zm18.53,16.87s-16.09-51.44-83.84-49.06q-2.91.11-5.8.39c-27.83,2.77-53.92,17.92-73.34,32.87-.4.28-.82.6-1.3,1l-.12.1c-2.17,1.7-4.25,3.39-6.24,5.05-9.66,7.6-21.91,16.46-25.85,19.3a.52.52,0,0,1-.26.1.54.54,0,0,1-.56-.7c5.17-16.09,17.49-28,21.86-31.83,0,0,0-.07.06-.1,20.26-16.57,49.81-35,83.63-38.41h0C368.84,406.79,387.21,475.3,387.22,475.34Z"/></svg>