<?xml version="1.0" standalone="no"?>
<!DOCTYPE svg PUBLIC "-//W3C//DTD SVG 20010904//EN"
 "http://www.w3.org/TR/2001/REC-SVG-20010904/DTD/svg10.dtd">
<svg version="1.0" xmlns="http://www.w3.org/2000/svg"
 width="750.000000pt" height="750.000000pt" viewBox="0 0 750.000000 750.000000"
 preserveAspectRatio="xMidYMid meet">
<metadata>
Created by potrace 1.11, written by Peter Selinger 2001-2013
</metadata>
<g transform="translate(0.000000,750.000000) scale(0.100000,-0.100000)"
fill="#000000" stroke="none">
<path d="M3768 7038 c-107 -122 -196 -252 -338 -488 -104 -173 -263 -547 -352
-825 -47 -146 -131 -452 -145 -525 -2 -14 -13 -63 -23 -110 -10 -47 -26 -125
-34 -175 -9 -49 -18 -99 -20 -110 -2 -11 -7 -40 -10 -65 -3 -25 -8 -54 -10
-65 -2 -11 -7 -42 -10 -70 -14 -109 -18 -141 -21 -165 -2 -14 -7 -61 -10 -105
-8 -103 -32 -155 -126 -274 -185 -233 -210 -278 -268 -477 -85 -288 -146 -412
-310 -624 -55 -71 -219 -263 -240 -280 -3 -3 -35 -39 -71 -80 -36 -41 -72 -81
-80 -90 -61 -66 -254 -280 -320 -355 -19 -22 -49 -55 -67 -73 -18 -18 -44 -48
-59 -65 -15 -18 -61 -70 -104 -117 -42 -47 -157 -175 -255 -285 -99 -110 -182
-202 -185 -205 -3 -3 -68 -77 -145 -165 -76 -88 -142 -162 -145 -165 -3 -3
-60 -68 -126 -145 -168 -195 -294 -353 -294 -369 0 -40 37 -23 105 49 28 29
125 131 216 227 91 95 182 190 201 210 19 20 104 110 190 200 86 90 173 181
193 203 21 22 122 127 224 234 845 881 1198 1224 1396 1355 138 92 277 146
421 163 57 7 172 8 304 4 l65 -2 -108 -29 c-379 -98 -676 -281 -837 -515 -60
-87 -21 -102 75 -30 116 88 200 112 402 115 192 3 312 11 402 26 67 12 258 86
309 121 93 62 169 144 205 220 29 64 31 75 31 183 0 145 -33 260 -110 381 -14
22 -24 42 -22 44 2 1 30 -3 63 -10 127 -27 330 -12 433 31 50 21 50 10 0 -23
-85 -57 -162 -79 -290 -82 -45 -1 -84 -3 -84 -4 -1 -1 10 -29 26 -62 97 -207
80 -425 -45 -575 l-36 -43 28 -29 c37 -39 184 -155 253 -200 192 -124 374
-205 595 -264 87 -24 232 -44 354 -49 l96 -5 -110 39 c-300 105 -508 225 -679
394 -93 93 -136 149 -181 237 l-24 48 62 41 c34 23 84 61 112 85 l50 43 55
-47 c212 -183 561 -338 825 -365 33 -4 64 -9 70 -12 7 -4 7 -3 0 4 -5 6 -35
18 -65 28 -217 69 -489 222 -630 354 -65 62 -65 62 -25 45 315 -126 509 -160
820 -144 76 4 118 18 60 20 -22 1 -47 3 -55 4 -8 2 -39 6 -69 10 -144 17 -346
70 -471 123 -140 60 -284 154 -264 172 21 19 157 43 255 46 92 2 217 -10 313
-30 64 -13 198 -64 260 -99 188 -105 309 -295 310 -486 0 -90 -19 -148 -65
-201 -12 -13 -31 -35 -43 -49 -11 -14 -55 -54 -96 -89 -119 -100 -120 -107
-27 -137 69 -22 84 -36 66 -62 -56 -79 -235 -144 -379 -136 -181 10 -507 3
-595 -12 -87 -15 -186 -38 -235 -54 -201 -68 -454 -215 -575 -335 -103 -102
-93 -148 16 -74 91 62 309 161 429 194 156 44 177 49 290 63 111 13 479 5 532
-12 7 -3 31 -7 53 -10 256 -36 400 -102 624 -289 239 -200 443 -441 527 -622
46 -99 108 -291 134 -416 24 -116 31 -134 51 -134 11 0 14 21 14 95 0 52 -3
120 -7 150 -49 343 -139 566 -359 890 -178 262 -257 414 -260 498 -2 58 0 68
19 92 l19 23 76 -31 c41 -18 87 -32 100 -32 22 0 24 4 22 33 -2 19 -11 63 -21
98 -44 164 -25 219 175 524 155 236 243 434 276 621 15 83 20 269 10 341 -32
229 -71 382 -145 563 -35 85 -40 105 -32 128 6 15 22 74 36 132 115 477 111
556 -45 956 l-59 151 -45 1 c-109 5 -139 46 -95 132 23 45 16 49 -36 19 -57
-32 -233 -149 -239 -160 -4 -5 -11 -9 -16 -9 -20 0 89 122 184 207 33 28 59
54 60 58 1 4 -17 8 -41 9 -80 4 -124 59 -126 158 0 32 -5 58 -11 58 -27 0
-162 -129 -295 -280 -98 -111 -100 -113 -100 -103 0 29 125 237 241 401 33 45
59 84 59 86 0 2 -23 -4 -50 -15 -69 -26 -113 -24 -147 5 -26 23 -28 29 -28
100 0 42 -4 76 -9 76 -32 0 -243 -254 -371 -447 -26 -40 -49 -73 -51 -73 -1 0
15 41 36 91 58 135 172 345 257 476 15 22 15 22 -16 7 -70 -35 -136 -24 -179
31 -11 14 -24 25 -29 25 -13 0 -73 -65 -127 -140 -65 -88 -134 -205 -229 -390
-43 -85 -81 -157 -83 -159 -5 -6 40 136 69 217 40 108 103 254 163 374 l53
107 -47 -36 c-25 -19 -58 -39 -72 -45 -35 -13 -83 -2 -110 27 l-23 24 -39 -54
c-85 -119 -208 -350 -299 -562 -24 -56 -44 -101 -46 -100 -4 5 46 186 80 288
32 94 88 240 132 343 l17 39 -42 -41 c-75 -73 -144 -91 -195 -50 l-28 22 -24
-30 c-64 -77 -151 -223 -225 -374 -87 -179 -98 -203 -98 -217 0 -7 -4 -13 -10
-13 -5 0 -10 4 -10 8 0 14 108 356 148 470 22 61 38 112 37 112 -2 0 -19 -13
-37 -30 -41 -38 -84 -40 -100 -5 -9 19 -14 22 -25 14 -7 -6 -13 -15 -13 -19 0
-5 -19 -42 -42 -82 -24 -41 -50 -87 -60 -103 -30 -55 -111 -219 -150 -305 -21
-47 -38 -78 -38 -70 0 29 102 367 135 445 7 17 27 65 45 107 l32 78 -32 37
c-32 35 -63 95 -63 121 -1 31 -19 1 -89 -145 -71 -149 -174 -391 -269 -636
-23 -59 -43 -106 -45 -104 -7 6 68 275 117 420 55 164 154 414 223 564 42 91
44 99 29 116 -15 15 -15 25 -6 70 6 29 25 81 41 115 17 34 29 62 27 62 -1 0
-27 -28 -57 -62z m195 -1208 c-3 -12 -8 -19 -11 -16 -5 6 5 36 12 36 2 0 2 -9
-1 -20z m1127 -474 c14 -2 48 -7 75 -11 126 -15 315 -79 410 -138 60 -37 87
-57 155 -113 81 -67 153 -140 214 -219 38 -49 38 -49 -22 12 -233 236 -502
376 -787 408 -33 4 -69 9 -80 11 -29 6 -343 6 -385 0 -19 -3 -57 -8 -85 -12
-110 -13 -342 -68 -400 -94 -11 -5 -56 -23 -100 -40 -279 -109 -608 -350 -848
-621 l-49 -54 38 60 c115 187 265 332 504 488 218 141 487 252 710 291 19 3
46 8 60 11 28 7 74 13 175 24 71 8 369 6 415 -3z m145 -291 c444 -63 795 -319
1025 -750 23 -44 46 -91 51 -105 10 -29 13 -33 -65 88 -63 97 -238 273 -336
336 -163 107 -374 190 -539 212 -25 3 -55 9 -66 11 -49 13 -413 11 -485 -3
-41 -7 -88 -15 -105 -18 -152 -25 -451 -144 -645 -256 -152 -87 -363 -234
-495 -345 -27 -23 -113 -89 -190 -146 -271 -203 -275 -205 -249 -141 114 279
284 466 634 699 58 39 141 91 186 116 97 56 307 157 326 157 8 0 18 4 24 9 14
14 250 87 339 105 100 20 134 25 215 32 36 3 66 7 68 9 6 6 255 -3 307 -10z
m58 -344 c16 -1 18 -7 13 -38 -3 -21 -5 -39 -6 -41 0 -4 -81 0 -97 6 -11 3
-15 58 -6 74 2 4 21 6 41 4 20 -3 45 -5 55 -5z m-309 -27 c3 -9 6 -26 6 -39 0
-24 -14 -30 -89 -38 -14 -2 -38 60 -27 70 6 6 64 20 87 22 9 1 20 -6 23 -15z
m598 -36 c37 -11 39 -14 34 -42 -4 -16 -8 -31 -10 -33 -6 -6 -106 20 -106 28
0 20 21 59 31 59 6 0 29 -5 51 -12z m-905 -63 c11 -34 10 -34 -26 -46 -20 -6
-42 -16 -48 -22 -10 -7 -17 0 -29 28 -8 20 -13 39 -11 41 5 6 80 32 93 33 6 1
15 -15 21 -34z m1198 -72 c38 -24 42 -29 33 -49 l-11 -23 -48 25 c-54 27 -54
27 -39 55 14 24 15 24 65 -8z m-1492 -47 l16 -35 -46 -27 -46 -27 -18 24 c-10
13 -19 29 -19 36 0 9 71 59 91 62 3 1 13 -14 22 -33z m1753 -151 c31 -30 38
-56 16 -55 -16 1 -83 70 -77 79 10 18 23 13 61 -24z m-1438 -184 c188 -94 578
-223 802 -265 14 -3 50 -10 80 -16 30 -6 66 -13 80 -15 14 -3 35 -7 47 -9 11
-3 43 -8 70 -12 26 -3 55 -8 63 -9 9 -2 43 -6 75 -10 33 -4 67 -9 76 -10 18
-4 167 -18 187 -18 6 0 12 -4 12 -9 0 -4 -17 -8 -37 -9 -21 0 -49 -3 -63 -6
-70 -14 -629 -6 -717 11 -12 3 -46 7 -75 10 -64 7 -83 11 -218 37 -194 38
-327 75 -496 140 -167 63 -157 62 -209 27 -25 -16 -45 -34 -45 -39 0 -5 -4 -9
-10 -9 -12 0 48 111 85 158 50 62 135 104 193 95 13 -2 58 -21 100 -42z
m-1624 -360 c26 -29 31 -84 11 -115 -33 -49 -125 -78 -125 -38 1 33 74 172 91
172 3 0 14 -8 23 -19z m2550 -369 c136 -80 255 -243 286 -396 19 -95 15 -177
-16 -286 -9 -30 -16 -57 -17 -60 0 -3 -23 -50 -50 -105 -52 -102 -117 -203
-248 -382 -41 -56 -79 -110 -86 -120 -12 -17 -12 -17 -6 2 7 22 39 83 113 215
132 238 189 365 214 486 22 99 15 251 -13 333 -40 116 -145 257 -246 333 -53
40 -14 29 69 -20z"/>
<path d="M4019 6812 c-60 -4 -77 -33 -53 -90 38 -89 36 -87 84 -86 123 4 168
11 192 26 33 22 103 28 147 14 31 -11 36 -10 64 17 43 40 82 58 129 59 32 0
128 31 128 41 0 1 -12 3 -27 3 -16 1 -44 5 -63 9 -36 7 -520 13 -601 7z"/>
<path d="M3095 6592 c-431 -176 -760 -396 -1090 -727 -693 -695 -1023 -1656
-909 -2645 17 -148 58 -347 105 -510 34 -121 111 -330 120 -330 15 0 154 164
151 178 -2 9 -19 61 -37 117 -43 130 -63 206 -90 340 -22 111 -24 126 -31 190
-4 33 -8 63 -10 67 -5 9 -18 246 -18 343 0 96 12 317 18 336 3 8 7 34 10 59
24 200 70 389 150 612 80 228 182 431 319 638 126 189 213 296 382 465 256
258 514 439 869 612 l99 48 68 133 c52 102 64 132 51 131 -9 0 -80 -26 -157
-57z"/>
<path d="M6035 6265 c0 -30 4 -37 25 -42 53 -12 101 -45 127 -86 16 -23 34
-48 41 -55 22 -23 41 -69 44 -101 1 -17 5 -31 8 -31 3 0 22 -16 42 -35 22 -22
49 -67 73 -122 25 -60 52 -104 84 -138 188 -199 359 -444 490 -702 33 -66 61
-123 61 -127 0 -3 14 -36 31 -73 17 -38 33 -75 35 -83 2 -8 17 -54 34 -102 51
-145 90 -301 118 -478 31 -187 36 -256 37 -465 0 -169 -11 -390 -20 -405 -2
-3 -6 -29 -10 -59 -4 -30 -9 -63 -11 -75 -3 -12 -6 -32 -9 -46 -8 -56 -55
-241 -85 -335 -66 -206 -170 -443 -262 -593 -21 -34 -38 -65 -38 -67 0 -3 -32
-52 -71 -110 -89 -130 -196 -264 -302 -378 -45 -49 -83 -93 -85 -98 -2 -5 16
-54 39 -110 l44 -102 113 118 c150 156 337 392 417 527 6 9 32 54 59 100 102
170 205 399 275 606 31 92 95 335 105 402 3 19 8 45 10 58 29 140 41 305 41
552 0 241 -8 357 -35 514 -62 353 -152 629 -306 932 -235 466 -575 861 -1005
1169 -57 41 -106 75 -109 75 -3 0 -5 -16 -5 -35z"/>
<path d="M1680 1990 c-19 -21 -50 -54 -69 -73 l-34 -36 38 -58 c386 -585 1002
-1053 1675 -1271 85 -28 162 -50 182 -52 4 -1 22 -6 40 -11 38 -12 46 -13 148
-34 101 -20 126 -24 185 -31 28 -4 53 -8 56 -10 14 -8 246 -18 399 -18 149 0
319 9 372 19 11 3 44 7 73 10 43 6 285 53 349 70 195 49 452 147 641 243 75
38 264 147 313 180 10 7 9 19 -8 62 -11 29 -32 72 -46 95 l-25 43 -107 -66
c-121 -74 -315 -173 -442 -225 -218 -89 -519 -169 -725 -193 -27 -3 -77 -9
-109 -13 -147 -20 -514 -17 -656 4 -40 6 -200 33 -245 41 -106 18 -394 104
-500 149 -480 202 -816 440 -1160 820 -47 52 -223 287 -261 347 -16 27 -33 48
-39 47 -5 -1 -26 -18 -45 -39z"/>
</g>
</svg>
